{
.appVersion = "1313";
copyright = "Copyright © 2019 by Noir Blanc Rouge. All rights reserved.";
customParameters = (
{
name = sampleText;
value = "Il réussit car il le devait\012De l'argent comme s'il en pleuvait\012Parle d'amour comme s'il en rêvait\012Vit sa vie comme s'il en crevait";
},
{
name = license;
value = "SIL OPEN FONT LICENSE ";
},
{
name = panose;
value = (
0,
0,
5,
0,
0,
0,
0,
0,
0,
0
);
},
{
name = unicodeRanges;
value = (
0,
1
);
},
{
name = codePageRanges;
value = (
1252
);
},
{
name = blueScale;
value = 0.037;
},
{
name = glyphOrder;
value = (
.notdef,
space,
lslash,
Scaron,
scaron,
Yacute,
yacute,
Zcaron,
zcaron,
Lslash,
quotesingle,
comma,
hyphen,
period,
A,
B,
C,
D,
E,
F,
G,
H,
I,
J,
K,
L,
M,
N,
O,
P,
Q,
R,
S,
T,
U,
V,
W,
X,
Y,
Z,
a,
b,
c,
d,
e,
f,
g,
h,
i,
j,
k,
l,
m,
n,
o,
p,
q,
r,
s,
t,
u,
v,
w,
x,
y,
z,
Adieresis,
Aring,
Ccedilla,
Eacute,
Ntilde,
Odieresis,
Udieresis,
aacute,
agrave,
acircumflex,
adieresis,
atilde,
aring,
ccedilla,
eacute,
egrave,
ecircumflex,
edieresis,
iacute,
igrave,
icircumflex,
idieresis,
ntilde,
oacute,
ograve,
ocircumflex,
odieresis,
otilde,
uacute,
ugrave,
ucircumflex,
udieresis,
Agrave,
Atilde,
Otilde,
ydieresis,
Ydieresis,
Acircumflex,
Ecircumflex,
Aacute,
Edieresis,
Egrave,
Iacute,
Icircumflex,
Idieresis,
Igrave,
Oacute,
Ocircumflex,
Ograve,
Uacute,
Ucircumflex,
Ugrave,
AE,
Eth,
Oslash,
OE,
Thorn,
ae,
eth,
dotlessi,
oslash,
oe,
thorn,
germandbls,
fi,
fl,
Delta,
Omega,
mu,
pi,
ordfeminine,
ordmasculine,
zero,
one,
two,
three,
four,
five,
six,
seven,
eight,
nine,
fraction,
onehalf,
onequarter,
threequarters,
onesuperior,
twosuperior,
threesuperior,
foursuperior,
asterisk,
backslash,
bullet,
colon,
ellipsis,
exclam,
exclamdown,
numbersign,
periodcentered,
question,
questiondown,
quotedbl,
semicolon,
slash,
underscore,
braceleft,
braceright,
bracketleft,
bracketright,
parenleft,
parenright,
emdash,
endash,
softhyphen,
guillemotleft,
guillemotright,
guilsinglleft,
guilsinglright,
quotedblbase,
quotedblleft,

glyphs = (
{
glyphname = .notdef;
layers = (
{
hints = (
{
horizontal = 1;
place = "{0, 50}";
type = Stem;
},
{
horizontal = 1;
place = "{650, 50}";
type = Stem;
},
{
place = "{0, 50}";
type = Stem;
},
{
place = "{450, 50}";
type = Stem;
}
);
layerId = "1041D826-7B5A-4F1A-81FD-3B5FB25AF0FC";
paths = (
{
closed = 1;
nodes = (
"500 700 LINE",
"0 700 LINE",
"0 0 LINE",
"500 0 LINE"
);
},
{
closed = 1;
nodes = (
"80 650 LINE",
"420 650 LINE",
"250 395 LINE"
);
},
{
closed = 1;
nodes = (
"220 350 LINE",
"50 95 LINE",
"50 605 LINE"
);
},
{
closed = 1;
nodes = (
"450 605 LINE",
"450 95 LINE",
"280 350 LINE"
);
},
{
closed = 1;
nodes = (
"250 305 LINE",
"420 50 LINE",
"80 50 LINE"
);
}
);
width = 500;
}
);
note = .notdef;
},
{
glyphname = lslash;
layers = (
{
hints = (
{
horizontal = 1;
place = "{0, 700}";
type = Stem;
},
{
place = "{136, 70}";
type = Stem;
}
);
layerId = "1041D826-7B5A-4F1A-81FD-3B5FB25AF0FC";
paths = (
{
closed = 1;
nodes = (
"136 0 LINE",
"206 0 LINE",
"206 351 LINE",
"325 405 LINE",
"296 464 LINE",
"206 423 LINE",
"206 700 LINE",
"136 700 LINE",
"136 391 LINE",
"33 344 LINE",
"62 286 LINE",
"136 320 LINE"
);
}
);
width = 355;
}
);
note = lslash;
unicode = 0142;
},
{
glyphname = Scaron;
layers = (
{
hints = (
{
horizontal = 1;
place = "{-2, 64}";
type = Stem;
},
{
horizontal = 1;
place = "{638, 64}";
type = Stem;
},
{
place = "{57, 70}";
type = Stem;
},
{
place = "{396, 70}";
type = Stem;
}
);
layerId = "1041D826-7B5A-4F1A-81FD-3B5FB25AF0FC";
paths = (
{
closed = 1;
nodes = (
"62 900 LINE",
"46 840 LINE",
"243 745 LINE",
"440 840 LINE",
"424 900 LINE",
"243 829 LINE"
);
},
{
closed = 1;
nodes = (
"425 625 LINE",
"398 652 OFFCURVE",
"341 702 OFFCURVE",
"243 702 CURVE SMOOTH",
"145 702 OFFCURVE",
"57 630 OFFCURVE",
"57 529 CURVE SMOOTH",
"57 421 OFFCURVE",
"151 378 OFFCURVE",
"230 346 CURVE SMOOTH",
"317 310 OFFCURVE",
"396 288 OFFCURVE",
"396 184 CURVE SMOOTH",
"396 101 OFFCURVE",
"328 62 OFFCURVE",
"236 62 CURVE SMOOTH",
"161 62 OFFCURVE",
"108 97 OFFCURVE",
"74 135 CURVE",
"22 92 LINE",
"61 49 OFFCURVE",
"136 -2 OFFCURVE",
"236 -2 CURVE SMOOTH",
"353 -2 OFFCURVE",
"466 58 OFFCURVE",
"466 184 CURVE SMOOTH",
"466 327 OFFCURVE",
"367 360 OFFCURVE",
"257 405 CURVE SMOOTH",
"178 437 OFFCURVE",
"127 465 OFFCURVE",
"127 529 CURVE SMOOTH",
"127 594 OFFCURVE",
"179 638 OFFCURVE",
"243 638 CURVE SMOOTH",
"313 638 OFFCURVE",
"348 607 OFFCURVE",
"376 580 CURVE"
);
}
);
width = 491;
}
);
leftKerningGroup = Scaron;
note = Scaron;
rightKerningGroup = Scaron;
unicode = 0160;
},
{
glyphname = scaron;
layers = (
{
hints = (
{
horizontal = 1;
place = "{-5, 64}";
type = Stem;
},
{
horizontal = 1;
place = "{445, 63}";
type = Stem;
},
{
place = "{61, 70}";
type = Stem;
},
{
place = "{323, 70}";
type = Stem;
}
);
layerId = "1041D826-7B5A-4F1A-81FD-3B5FB25AF0FC";
paths = (
{
closed = 1;
nodes = (
"39 708 LINE",
"24 648 LINE",
"220 554 LINE",
"417 648 LINE",
"401 708 LINE",
"220 638 LINE"
);
},
{
closed = 1;
nodes = (
"362 436 LINE",
"320 481 OFFCURVE",
"277 505 OFFCURVE",
"216 508 CURVE SMOOTH",
"128 513 OFFCURVE",
"57 450 OFFCURVE",
"61 373 CURVE SMOOTH",
"65 287 OFFCURVE",
"145 265 OFFCURVE",
"229 235 CURVE SMOOTH",
"272 221 OFFCURVE",
"323 201 OFFCURVE",
"323 141 CURVE SMOOTH",
"323 87 OFFCURVE",
"280 59 OFFCURVE",
"218 59 CURVE SMOOTH",
"151 59 OFFCURVE",
"118 87 OFFCURVE",
"81 126 CURVE",
"30 82 LINE",
"74 36 OFFCURVE",
"125 -5 OFFCURVE",
"218 -5 CURVE SMOOTH",
"302 -5 OFFCURVE",
"393 41 OFFCURVE",
"393 141 CURVE SMOOTH",
"393 262 OFFCURVE",
"273 288 OFFCURVE",
"230 303 CURVE SMOOTH",
"165 326 OFFCURVE",
"133 338 OFFCURVE",
"131 376 CURVE SMOOTH",
"129 417 OFFCURVE",
"162 447 OFFCURVE",
"212 445 CURVE SMOOTH",
"257 442 OFFCURVE",
"285 424 OFFCURVE",
"313 394 CURVE"
);
}
);
width = 421;
}
);
note = scaron;
rightKerningGroup = scaron;
unicode = 0161;
},
{
glyphname = Yacute;
layers = (
{
hints = (
{
horizontal = 1;
place = "{0, 908}";
type = Stem;
},
{
place = "{284, 70}";
type = Stem;
}
);
layerId = "1041D826-7B5A-4F1A-81FD-3B5FB25AF0FC";
paths = (
{
closed = 1;
nodes = (
"438 834 LINE",
"416 908 LINE",
"219 814 LINE",
"235 754 LINE"
);
},
{
closed = 1;
nodes = (
"634 700 LINE",
"548 700 LINE",
"319 405 LINE",
"90 700 LINE",
"4 700 LINE",
"284 339 LINE",
"284 0 LINE",
"354 0 LINE",
"354 339 LINE"
);
}
);
width = 638;
}
);
leftKerningGroup = Yacute;
note = Yacute;
rightKerningGroup = Yacute;
unicode = 00DD;
},
{
glyphname = yacute;
layers = (
{
hints = (
{
horizontal = 1;
place = "{-200, 908}";
type = Stem;
},
{
place = "{9, 579}";
type = Stem;
}
);
layerId = "1041D826-7B5A-4F1A-81FD-3B5FB25AF0FC";
paths = (
{
closed = 1;
nodes = (
"416 634 LINE",
"394 708 LINE",
"197 614 LINE",
"213 554 LINE"
);
},
{
closed = 1;
nodes = (
"9 500 LINE",
"260 75 LINE",
"99 -200 LINE",
"179 -200 LINE",
"588 500 LINE",
"509 500 LINE",
"300 143 LINE",
"90 500 LINE"
);
}
);
width = 593;
}
);
leftKerningGroup = yacute;
note = yacute;
rightKerningGroup = yacute;
unicode = 00FD;
},
{
glyphname = Zcaron;
layers = (
{
hints = (
{
horizontal = 1;
place = "{0, 64}";
type = Stem;
},
{
horizontal = 1;
place = "{636, 64}";
type = Stem;
},
{
place = "{20, 591}";
type = Stem;
}
);
layerId = "1041D826-7B5A-4F1A-81FD-3B5FB25AF0FC";
paths = (
{
closed = 1;
nodes = (
"165 913 LINE",
"149 853 LINE",
"346 759 LINE",
"543 853 LINE",
"527 913 LINE",
"346 843 LINE"
);
},
{
closed = 1;
nodes = (
"20 0 LINE",
"603 0 LINE",
"603 64 LINE",
"150 64 LINE",
"611 700 LINE",
"82 700 LINE",
"82 636 LINE",
"482 636 LINE"
);
}
);
width = 626;
}
);
note = Zcaron;
rightKerningGroup = Zcaron;
unicode = 017D;
},
{
glyphname = zcaron;
layers = (
{
hints = (
{
horizontal = 1;
place = "{0, 64}";
type = Stem;
},
{
horizontal = 1;
place = "{436, 64}";
type = Stem;
},
{
place = "{62, 419}";
type = Stem;
}
);
layerId = "1041D826-7B5A-4F1A-81FD-3B5FB25AF0FC";
paths = (
{
closed = 1;
nodes = (
"102 708 LINE",
"86 648 LINE",
"283 554 LINE",
"480 648 LINE",
"464 708 LINE",
"283 638 LINE"
);
},
{
closed = 1;
nodes = (
"62 0 LINE",
"481 0 LINE",
"481 64 LINE",
"159 64 LINE",
"481 454 LINE",
"481 500 LINE",
"67 500 LINE",
"67 436 LINE",
"386 436 LINE",
"62 52 LINE"
);
}
);
width = 539;
}
);
note = zcaron;
rightKerningGroup = zcaron;
unicode = 017E;
},
{
glyphname = Lslash;
layers = (
{
hints = (
{
horizontal = 1;
place = "{0, 64}";
type = Stem;
},
{
place = "{117, 70}";
type = Stem;
}
);
layerId = "1041D826-7B5A-4F1A-81FD-3B5FB25AF0FC";
paths = (
{
closed = 1;
nodes = (
"117 0 LINE",
"441 0 LINE",
"441 64 LINE",
"187 64 LINE",
"187 373 LINE",
"344 442 LINE",
"344 513 LINE",
"187 443 LINE",
"187 700 LINE",
"117 700 LINE",
"117 413 LINE",
"19 369 LINE",
"19 299 LINE",
"117 343 LINE"
);
}
);
width = 456;
}
);
note = Lslash;
rightKerningGroup = Lslash;
unicode = 0141;
},
{
glyphname = quotesingle;
layers = (
{
hints = (
{
horizontal = 1;
place = "{548, 218}";
type = Stem;
},
{
place = "{19, 63}";
type = Stem;
}
);
layerId = "1041D826-7B5A-4F1A-81FD-3B5FB25AF0FC";
paths = (
{
closed = 1;
nodes = (
"87 766 LINE",
"11 766 LINE",
"27 548 LINE",
"77 548 LINE"
);
}
);
width = 135;
}
);
note = quotesingle;
rightKerningGroup = scaron;
unicode = 0027;
},
{
glyphname = comma;
layers = (
{
hints = (
{
horizontal = 1;
place = "{-126, 217}";
type = Stem;
},
{
place = "{110, 71}";
type = Stem;
}
);
layerId = "1041D826-7B5A-4F1A-81FD-3B5FB25AF0FC";
paths = (
{
closed = 1;
nodes = (
"110 91 LINE",
"110 7 LINE",
"58 -98 LINE",
"121 -126 LINE",
"181 -7 LINE",
"181 91 LINE"
);
}
);
width = 265;
}
);
note = comma;
rightKerningGroup = scaron;
unicode = 002C;
},
{
glyphname = hyphen;
layers = (
{
hints = (
{
horizontal = 1;
place = "{256, 62}";
type = Stem;
},
{
place = "{66, 366}";
type = Stem;
}
);
layerId = "1041D826-7B5A-4F1A-81FD-3B5FB25AF0FC";
paths = (
{
closed = 1;
nodes = (
"66 318 LINE",
"66 256 LINE",
"432 256 LINE",
"432 318 LINE"
);
}
);
width = 497;
}
);
note = hyphen;
rightKerningGroup = scaron;
unicode = 002D;
},
{
glyphname = period;
layers = (
{
hints = (
{
horizontal = 1;
place = "{0, 125}";
type = Stem;
},
{
place = "{124, 125}";
type = Stem;
}
);
layerId = "1041D826-7B5A-4F1A-81FD-3B5FB25AF0FC";
paths = (
{
closed = 1;
nodes = (
"221 0 OFFCURVE",
"249 28 OFFCURVE",
"249 63 CURVE SMOOTH",
"249 97 OFFCURVE",
"221 125 OFFCURVE",
"187 125 CURVE SMOOTH",
"152 125 OFFCURVE",
"124 97 OFFCURVE",
"124 63 CURVE SMOOTH",
"124 28 OFFCURVE",
"152 0 OFFCURVE",
"187 0 CURVE SMOOTH"
);
}
);
width = 379;
}
);
note = period;
rightKerningGroup = scaron;
unicode = 002E;
},
{
glyphname = A;
layers = (
{
hints = (
{
horizontal = 1;
place = "{223, 64}";
type = Stem;
},
{
place = "{11, 630}";
type = Stem;
}
);
layerId = "1041D826-7B5A-4F1A-81FD-3B5FB25AF0FC";
paths = (
{
closed = 1;
nodes = (
"85 0 LINE",
"173 223 LINE",
"479 223 LINE",
"566 0 LINE",
"641 0 LINE",
"366 700 LINE",
"285 700 LINE",
"11 0 LINE"
);
},
{
closed = 1;
nodes = (
"198 287 LINE",
"326 614 LINE",
"454 287 LINE"
);
}
);
width = 653;
}
);
note = A;
rightKerningGroup = A;
unicode = 0041;
},
{
glyphname = B;
layers = (
{
hints = (
{
horizontal = 1;
place = "{0, 64}";
type = Stem;
},
{
horizontal = 1;
place = "{372, 64}";
type = Stem;
},
{
horizontal = 1;
place = "{636, 64}";
type = Stem;
},
{
place = "{86, 70}";
type = Stem;
},
{
place = "{496, 70}";
type = Stem;
},
{
place = "{409, 70}";
type = Stem;
}
);
layerId = "1041D826-7B5A-4F1A-81FD-3B5FB25AF0FC";
paths = (
{
closed = 1;
nodes = (
"86 700 LINE",
"86 0 LINE",
"346 0 LINE SMOOTH",
"471 2 OFFCURVE",
"566 100 OFFCURVE",
"566 218 CURVE SMOOTH",
"566 308 OFFCURVE",
"510 386 OFFCURVE",
"430 420 CURVE",
"460 449 OFFCURVE",
"479 491 OFFCURVE",
"479 536 CURVE SMOOTH",
"479 627 OFFCURVE",
"405 700 OFFCURVE",
"315 700 CURVE SMOOTH"
);
},
{
closed = 1;
nodes = (
"156 436 LINE",
"156 636 LINE",
"315 636 LINE SMOOTH",
"365 636 OFFCURVE",
"409 592 OFFCURVE",
"409 536 CURVE SMOOTH",
"409 481 OFFCURVE",
"366 437 OFFCURVE",
"317 436 CURVE SMOOTH"
);
},
{
closed = 1;
nodes = (
"156 64 LINE",
"156 372 LINE",
"345 372 LINE SMOOTH",
"428 372 OFFCURVE",
"496 304 OFFCURVE",
"496 218 CURVE SMOOTH",
"496 132 OFFCURVE",
"433 65 OFFCURVE",
"346 64 CURVE SMOOTH"
);
}
);
width = 593;
}
);
leftKerningGroup = B;
note = B;
rightKerningGroup = B;
unicode = 0042;
},
{
glyphname = C;
layers = (
{
hints = (
{
horizontal = 1;
place = "{-2, 64}";
type = Stem;
},
{
horizontal = 1;
place = "{637, 64}";
type = Stem;
},
{
place = "{36, 70}";
type = Stem;
}
);
layerId = "1041D826-7B5A-4F1A-81FD-3B5FB25AF0FC";
paths = (
{
closed = 1;
nodes = (
"577 175 LINE",
"525 103 OFFCURVE",
"453 62 OFFCURVE",
"369 62 CURVE SMOOTH",
"227 62 OFFCURVE",
"106 189 OFFCURVE",
"106 350 CURVE SMOOTH",
"106 497 OFFCURVE",
"214 637 OFFCURVE",
"369 637 CURVE SMOOTH",
"447 637 OFFCURVE",
"515 602 OFFCURVE",
"567 538 CURVE",
"621 578 LINE",
"560 654 OFFCURVE",
"470 701 OFFCURVE",
"369 701 CURVE SMOOTH",
"167 701 OFFCURVE",
"36 527 OFFCURVE",
"36 350 CURVE SMOOTH",
"36 156 OFFCURVE",
"185 -2 OFFCURVE",
"369 -2 CURVE SMOOTH",
"477 -2 OFFCURVE",
"573 53 OFFCURVE",
"634 138 CURVE"
);
}
);
width = 656;
}
);
leftKerningGroup = C;
note = C;
rightKerningGroup = C;
unicode = 0043;
},
{
glyphname = D;
layers = (
{
hints = (
{
horizontal = 1;
place = "{0, 64}";
type = Stem;
},
{
horizontal = 1;
place = "{636, 64}";
type = Stem;
},
{
place = "{86, 70}";
type = Stem;
},
{
place = "{509, 70}";
type = Stem;
}
);
layerId = "1041D826-7B5A-4F1A-81FD-3B5FB25AF0FC";
paths = (
{
closed = 1;
nodes = (
"86 700 LINE",
"86 0 LINE",
"228 0 LINE SMOOTH",
"465 0 OFFCURVE",
"579 149 OFFCURVE",
"579 350 CURVE SMOOTH",
"579 553 OFFCURVE",
"472 700 OFFCURVE",
"223 700 CURVE SMOOTH"
);
},
{
closed = 1;
nodes = (
"156 64 LINE",
"156 636 LINE",
"223 636 LINE SMOOTH",
"427 636 OFFCURVE",
"509 526 OFFCURVE",
"509 350 CURVE SMOOTH",
"509 177 OFFCURVE",
"421 64 OFFCURVE",
"228 64 CURVE SMOOTH"
);
}
);
width = 627;
}
);
note = D;
rightKerningGroup = D;
unicode = 0044;
},
{
glyphname = E;
layers = (
{
hints = (
{
horizontal = 1;
place = "{0, 64}";
type = Stem;
},
{
horizontal = 1;
place = "{322, 64}";
type = Stem;
},
{
horizontal = 1;
place = "{636, 64}";
type = Stem;
},
{
place = "{86, 70}";
type = Stem;
}
);
layerId = "1041D826-7B5A-4F1A-81FD-3B5FB25AF0FC";
paths = (
{
closed = 1;
nodes = (
"86 0 LINE",
"539 0 LINE",
"539 64 LINE",
"156 64 LINE",
"156 322 LINE",
"464 322 LINE",
"464 386 LINE",
"156 386 LINE",
"156 636 LINE",
"538 636 LINE",
"538 700 LINE",
"86 700 LINE"
);
}
);
width = 570;
}
);
leftKerningGroup = B;
note = E;
rightKerningGroup = E;
unicode = 0045;
},
{
glyphname = F;
layers = (
{
hints = (
{
horizontal = 1;
place = "{322, 64}";
type = Stem;
},
{
horizontal = 1;
place = "{637, 64}";
type = Stem;
},
{
place = "{85, 70}";
type = Stem;
}
);
layerId = "1041D826-7B5A-4F1A-81FD-3B5FB25AF0FC";
paths = (
{
closed = 1;
nodes = (
"443 386 LINE",
"155 386 LINE",
"155 637 LINE",
"518 637 LINE",
"518 701 LINE",
"85 701 LINE",
"85 0 LINE",
"155 0 LINE",
"155 322 LINE",
"443 322 LINE"
);
}
);
width = 533;
}
);
leftKerningGroup = B;
note = F;
rightKerningGroup = F;
unicode = 0046;
},
{
glyphname = G;
layers = (
{
hints = (
{
horizontal = 1;
place = "{-2, 64}";
type = Stem;
},
{
horizontal = 1;
place = "{287, 64}";
type = Stem;
},
{
horizontal = 1;
place = "{637, 64}";
type = Stem;
},
{
place = "{36, 70}";
type = Stem;
},
{
place = "{564, 70}";
type = Stem;
}
);
layerId = "1041D826-7B5A-4F1A-81FD-3B5FB25AF0FC";
paths = (
{
closed = 1;
nodes = (
"634 351 LINE",
"375 351 LINE",
"375 287 LINE",
"564 287 LINE",
"564 158 LINE",
"510 91 OFFCURVE",
"441 62 OFFCURVE",
"369 62 CURVE SMOOTH",
"227 62 OFFCURVE",
"106 189 OFFCURVE",
"106 350 CURVE SMOOTH",
"106 510 OFFCURVE",
"227 637 OFFCURVE",
"369 637 CURVE SMOOTH",
"436 637 OFFCURVE",
"495 611 OFFCURVE",
"545 563 CURVE",
"594 609 LINE",
"535 666 OFFCURVE",
"456 701 OFFCURVE",
"369 701 CURVE SMOOTH",
"185 701 OFFCURVE",
"36 544 OFFCURVE",
"36 350 CURVE SMOOTH",
"36 155 OFFCURVE",
"185 -2 OFFCURVE",
"369 -2 CURVE SMOOTH",
"467 -2 OFFCURVE",
"567 43 OFFCURVE",
"634 138 CURVE"
);
}
);
width = 670;
}
);
leftKerningGroup = C;
note = G;
rightKerningGroup = G;
unicode = 0047;
},
{
glyphname = H;
layers = (
{
hints = (
{
horizontal = 1;
place = "{322, 64}";
type = Stem;
},
{
place = "{86, 70}";
type = Stem;
},
{
place = "{565, 70}";
type = Stem;
}
);
layerId = "1041D826-7B5A-4F1A-81FD-3B5FB25AF0FC";
paths = (
{
closed = 1;
nodes = (
"565 0 LINE",
"635 0 LINE",
"635 700 LINE",
"565 700 LINE",
"565 386 LINE",
"156 386 LINE",
"156 700 LINE",
"86 700 LINE",
"86 0 LINE",
"156 0 LINE",
"156 322 LINE",
"565 322 LINE"
);
}
);
width = 721;
}
);
leftKerningGroup = B;
note = H;
rightKerningGroup = scaron;
unicode = 0048;
},
{
glyphname = I;
layers = (
{
hints = (
{
horizontal = 1;
place = "{0, 700}";
type = Stem;
},
{
place = "{86, 70}";
type = Stem;
}
);
layerId = "1041D826-7B5A-4F1A-81FD-3B5FB25AF0FC";
paths = (
{
closed = 1;
nodes = (
"86 0 LINE",
"156 0 LINE",
"156 700 LINE",
"86 700 LINE"
);
}
);
width = 242;
}
);
leftKerningGroup = I;
note = I;
rightKerningGroup = I;
unicode = 0049;
},
{
glyphname = J;
layers = (
{
hints = (
{
horizontal = 1;
place = "{-2, 64}";
type = Stem;
},
{
place = "{33, 70}";
type = Stem;
},
{
place = "{323, 71}";
type = Stem;
}
);
layerId = "1041D826-7B5A-4F1A-81FD-3B5FB25AF0FC";
paths = (
{
closed = 1;
nodes = (
"394 701 LINE",
"323 701 LINE",
"323 179 LINE SMOOTH",
"325 113 OFFCURVE",
"273 62 OFFCURVE",
"214 62 CURVE SMOOTH",
"154 62 OFFCURVE",
"103 113 OFFCURVE",
"103 179 CURVE",
"33 179 LINE",
"33 79 OFFCURVE",
"114 -2 OFFCURVE",
"214 -2 CURVE SMOOTH",
"314 -2 OFFCURVE",
"395 79 OFFCURVE",
"394 179 CURVE"
);
}
);
width = 463;
}
);
note = J;
rightKerningGroup = J;
unicode = 004A;
},
{
glyphname = K;
layers = (
{
hints = (
{
horizontal = 1;
place = "{0, 702}";
type = Stem;
},
{
place = "{87, 70}";
type = Stem;
}
);
layerId = "1041D826-7B5A-4F1A-81FD-3B5FB25AF0FC";
paths = (
{
closed = 1;
nodes = (
"498 0 LINE",
"585 0 LINE",
"273 403 LINE",
"590 700 LINE",
"492 700 LINE",
"187 415 LINE",
"181 411 LINE",
"182 410 LINE",
"157 387 LINE",
"157 702 LINE",
"87 702 LINE",
"87 321 LINE",
"86 320 LINE",
"87 319 LINE",
"87 0 LINE",
"157 0 LINE",
"157 295 LINE",
"223 357 LINE"
);
}
);
width = 600;
}
);
leftKerningGroup = B;
note = K;
rightKerningGroup = K;
unicode = 004B;
},
{
glyphname = L;
layers = (
{
hints = (
{
horizontal = 1;
place = "{0, 64}";
type = Stem;
},
{
place = "{86, 70}";
type = Stem;
}
);
layerId = "1041D826-7B5A-4F1A-81FD-3B5FB25AF0FC";
paths = (
{
closed = 1;
nodes = (
"86 700 LINE",
"86 0 LINE",
"410 0 LINE",
"410 64 LINE",
"156 64 LINE",
"156 700 LINE"
);
}
);
width = 425;
}
);
note = L;
rightKerningGroup = Lslash;
unicode = 004C;
},
{
glyphname = M;
layers = (
{
hints = (
{
horizontal = 1;
place = "{0, 700}";
type = Stem;
},
{
place = "{86, 70}";
type = Stem;
},
{
place = "{705, 70}";
type = Stem;
}
);
layerId = "1041D826-7B5A-4F1A-81FD-3B5FB25AF0FC";
paths = (
{
closed = 1;
nodes = (
"775 700 LINE",
"700 700 LINE",
"430 194 LINE",
"162 700 LINE",
"86 700 LINE",
"86 0 LINE",
"156 0 LINE",
"156 565 LINE",
"430 48 LINE",
"705 563 LINE",
"705 0 LINE",
"775 0 LINE"
);
}
);
width = 861;
}
);
leftKerningGroup = B;
note = M;
rightKerningGroup = scaron;
unicode = 004D;
},
{
glyphname = N;
layers = (
{
hints = (
{
horizontal = 1;
place = "{0, 700}";
type = Stem;
},
{
place = "{86, 70}";
type = Stem;
},
{
place = "{568, 71}";
type = Stem;
}
);
layerId = "1041D826-7B5A-4F1A-81FD-3B5FB25AF0FC";
paths = (
{
closed = 1;
nodes = (
"156 591 LINE",
"562 0 LINE",
"639 0 LINE",
"639 700 LINE",
"568 700 LINE",
"568 111 LINE",
"164 700 LINE",
"86 700 LINE",
"86 0 LINE",
"156 0 LINE"
);
}
);
width = 725;
}
);
leftKerningGroup = B;
note = N;
rightKerningGroup = scaron;
unicode = 004E;
},
{
glyphname = O;
layers = (
{
hints = (
{
horizontal = 1;
place = "{0, 64}";
type = Stem;
},
{
horizontal = 1;
place = "{638, 64}";
type = Stem;
},
{
place = "{36, 70}";
type = Stem;
},
{
place = "{669, 70}";
type = Stem;
}
);
layerId = "1041D826-7B5A-4F1A-81FD-3B5FB25AF0FC";
paths = (
{
closed = 1;
nodes = (
"190 702 OFFCURVE",
"36 542 OFFCURVE",
"36 351 CURVE SMOOTH",
"36 157 OFFCURVE",
"193 0 OFFCURVE",
"387 0 CURVE SMOOTH",
"557 0 OFFCURVE",
"739 130 OFFCURVE",
"739 351 CURVE SMOOTH",
"739 545 OFFCURVE",
"581 702 OFFCURVE",
"387 702 CURVE SMOOTH"
);
},
{
closed = 1;
nodes = (
"541 638 OFFCURVE",
"669 511 OFFCURVE",
"669 351 CURVE SMOOTH",
"669 171 OFFCURVE",
"523 64 OFFCURVE",
"387 64 CURVE SMOOTH",
"234 64 OFFCURVE",
"106 192 OFFCURVE",
"106 351 CURVE SMOOTH",
"106 509 OFFCURVE",
"231 638 OFFCURVE",
"387 638 CURVE SMOOTH"
);
}
);
width = 774;
}
);
leftKerningGroup = C;
note = O;
rightKerningGroup = O;
unicode = 004F;
},
{
glyphname = P;
layers = (
{
hints = (
{
horizontal = 1;
place = "{322, 64}";
type = Stem;
},
{
horizontal = 1;
place = "{643, 64}";
type = Stem;
},
{
place = "{86, 70}";
type = Stem;
},
{
place = "{466, 70}";
type = Stem;
}
);
layerId = "1041D826-7B5A-4F1A-81FD-3B5FB25AF0FC";
paths = (
{
closed = 1;
nodes = (
"86 707 LINE",
"86 0 LINE",
"156 0 LINE",
"156 322 LINE",
"343 322 LINE SMOOTH",
"449 322 OFFCURVE",
"536 409 OFFCURVE",
"536 514 CURVE SMOOTH",
"536 567 OFFCURVE",
"514 616 OFFCURVE",
"479 650 CURVE SMOOTH",
"445 685 OFFCURVE",
"396 707 OFFCURVE",
"343 707 CURVE SMOOTH"
);
},
{
closed = 1;
nodes = (
"156 386 LINE",
"156 643 LINE",
"343 643 LINE SMOOTH",
"377 643 OFFCURVE",
"404 631 OFFCURVE",
"430 605 CURVE SMOOTH",
"451 584 OFFCURVE",
"466 550 OFFCURVE",
"466 514 CURVE SMOOTH",
"466 441 OFFCURVE",
"410 386 OFFCURVE",
"343 386 CURVE SMOOTH"
);
}
);
width = 571;
}
);
leftKerningGroup = B;
note = P;
rightKerningGroup = P;
unicode = 0050;
},
{
glyphname = Q;
layers = (
{
hints = (
{
horizontal = 1;
place = "{0, 64}";
type = Stem;
},
{
horizontal = 1;
place = "{638, 64}";
type = Stem;
},
{
place = "{35, 70}";
type = Stem;
},
{
place = "{668, 70}";
type = Stem;
}
);
layerId = "1041D826-7B5A-4F1A-81FD-3B5FB25AF0FC";
paths = (
{
closed = 1;
nodes = (
"659 0 LINE",
"756 0 LINE",
"641 107 LINE",
"699 166 OFFCURVE",
"738 249 OFFCURVE",
"738 351 CURVE SMOOTH",
"738 545 OFFCURVE",
"580 702 OFFCURVE",
"386 702 CURVE SMOOTH",
"189 702 OFFCURVE",
"35 542 OFFCURVE",
"35 351 CURVE SMOOTH",
"35 157 OFFCURVE",
"192 0 OFFCURVE",
"386 0 CURVE SMOOTH",
"457 0 OFFCURVE",
"529 22 OFFCURVE",
"589 64 CURVE"
);
},
{
closed = 1;
nodes = (
"443 291 LINE",
"344 291 LINE",
"540 110 LINE",
"493 80 OFFCURVE",
"439 64 OFFCURVE",
"386 64 CURVE SMOOTH",
"233 64 OFFCURVE",
"105 192 OFFCURVE",
"105 351 CURVE SMOOTH",
"105 509 OFFCURVE",
"230 638 OFFCURVE",
"386 638 CURVE SMOOTH",
"540 638 OFFCURVE",
"668 511 OFFCURVE",
"668 351 CURVE SMOOTH",
"668 269 OFFCURVE",
"637 201 OFFCURVE",
"591 153 CURVE"
);
}
);
width = 790;
}
);
leftKerningGroup = C;
note = Q;
rightKerningGroup = Q;
unicode = 0051;
},
{
glyphname = R;
layers = (
{
hints = (
{
horizontal = 1;
place = "{363, 64}";
type = Stem;
},
{
horizontal = 1;
place = "{643, 64}";
type = Stem;
},
{
place = "{86, 70}";
type = Stem;
},
{
place = "{485, 70}";
type = Stem;
}
);
layerId = "1041D826-7B5A-4F1A-81FD-3B5FB25AF0FC";
paths = (
{
closed = 1;
nodes = (
"320 363 LINE",
"548 0 LINE",
"629 0 LINE",
"401 364 LINE",
"487 373 OFFCURVE",
"555 447 OFFCURVE",
"555 535 CURVE SMOOTH",
"555 629 OFFCURVE",
"477 707 OFFCURVE",
"383 707 CURVE SMOOTH",
"86 707 LINE",
"86 0 LINE",
"156 0 LINE",
"156 363 LINE"
);
},
{
closed = 1;
nodes = (
"156 427 LINE",
"156 643 LINE",
"383 643 LINE SMOOTH",
"439 643 OFFCURVE",
"485 596 OFFCURVE",
"485 535 CURVE SMOOTH",
"485 473 OFFCURVE",
"439 427 OFFCURVE",
"383 427 CURVE SMOOTH"
);
}
);
width = 649;
}
);
leftKerningGroup = B;
note = R;
rightKerningGroup = R;
unicode = 0052;
},
{
glyphname = S;
layers = (
{
hints = (
{
horizontal = 1;
place = "{-2, 64}";
type = Stem;
},
{
horizontal = 1;
place = "{638, 64}";
type = Stem;
},
{
place = "{57, 70}";
type = Stem;
},
{
place = "{396, 70}";
type = Stem;
}
);
layerId = "1041D826-7B5A-4F1A-81FD-3B5FB25AF0FC";
paths = (
{
closed = 1;
nodes = (
"425 625 LINE",
"398 652 OFFCURVE",
"341 702 OFFCURVE",
"243 702 CURVE SMOOTH",
"145 702 OFFCURVE",
"57 630 OFFCURVE",
"57 529 CURVE SMOOTH",
"57 421 OFFCURVE",
"151 378 OFFCURVE",
"230 346 CURVE SMOOTH",
"317 310 OFFCURVE",
"396 288 OFFCURVE",
"396 184 CURVE SMOOTH",
"396 101 OFFCURVE",
"328 62 OFFCURVE",
"236 62 CURVE SMOOTH",
"161 62 OFFCURVE",
"108 97 OFFCURVE",
"74 135 CURVE",
"22 92 LINE",
"61 49 OFFCURVE",
"136 -2 OFFCURVE",
"236 -2 CURVE SMOOTH",
"353 -2 OFFCURVE",
"466 58 OFFCURVE",
"466 184 CURVE SMOOTH",
"466 327 OFFCURVE",
"367 360 OFFCURVE",
"257 405 CURVE SMOOTH",
"178 437 OFFCURVE",
"127 465 OFFCURVE",
"127 529 CURVE SMOOTH",
"127 594 OFFCURVE",
"179 638 OFFCURVE",
"243 638 CURVE SMOOTH",
"313 638 OFFCURVE",
"348 607 OFFCURVE",
"376 580 CURVE"
);
}
);
width = 491;
}
);
leftKerningGroup = Scaron;
note = S;
rightKerningGroup = Scaron;
unicode = 0053;
},
{
glyphname = T;
layers = (
{
hints = (
{
horizontal = 1;
place = "{636, 64}";
type = Stem;
},
{
place = "{223, 70}";
type = Stem;
}
);
layerId = "1041D826-7B5A-4F1A-81FD-3B5FB25AF0FC";
paths = (
{
closed = 1;
nodes = (
"293 0 LINE",
"293 636 LINE",
"510 636 LINE",
"510 700 LINE",
"6 700 LINE",
"6 636 LINE",
"223 636 LINE",
"223 0 LINE"
);
}
);
width = 516;
}
);
leftKerningGroup = T;
note = T;
rightKerningGroup = T;
unicode = 0054;
},
{
glyphname = U;
layers = (
{
hints = (
{
horizontal = 1;
place = "{-9, 64}";
type = Stem;
},
{
place = "{69, 70}";
type = Stem;
},
{
place = "{527, 70}";
type = Stem;
}
);
layerId = "1041D826-7B5A-4F1A-81FD-3B5FB25AF0FC";
paths = (
{
closed = 1;
nodes = (
"139 700 LINE",
"69 700 LINE",
"69 270 LINE",
"69 270 OFFCURVE",
"59 0 OFFCURVE",
"323 -9 CURVE SMOOTH",
"343 -9 LINE SMOOTH",
"607 0 OFFCURVE",
"597 270 OFFCURVE",
"597 270 CURVE",
"597 700 LINE",
"527 700 LINE",
"527 260 LINE SMOOTH",
"526 219 OFFCURVE",
"510 61 OFFCURVE",
"342 55 CURVE",
"324 55 LINE",
"147 62 OFFCURVE",
"139 236 OFFCURVE",
"139 265 CURVE SMOOTH"
);
}
);
width = 661;
}
);
leftKerningGroup = U;
note = U;
rightKerningGroup = U;
unicode = 0055;
},
{
glyphname = V;
layers = (
{
hints = (
{
horizontal = 1;
place = "{0, 700}";
type = Stem;
},
{
place = "{14, 617}";
type = Stem;
}
);
layerId = "1041D826-7B5A-4F1A-81FD-3B5FB25AF0FC";
paths = (
{
closed = 1;
nodes = (
"286 0 LINE",
"360 0 LINE",
"631 700 LINE",
"557 700 LINE",
"323 96 LINE",
"88 700 LINE",
"14 700 LINE"
);
}
);
width = 645;
}
);
leftKerningGroup = V;
note = V;
rightKerningGroup = V;
unicode = 0056;
},
{
glyphname = W;
layers = (
{
hints = (
{
horizontal = 1;
place = "{0, 700}";
type = Stem;
},
{
place = "{23, 917}";
type = Stem;
}
);
layerId = "1041D826-7B5A-4F1A-81FD-3B5FB25AF0FC";
paths = (
{
closed = 1;
nodes = (
"940 700 LINE",
"868 700 LINE",
"724 120 LINE",
"518 700 LINE",
"444 700 LINE",
"238 121 LINE",
"95 700 LINE",
"23 700 LINE",
"197 0 LINE",
"269 0 LINE",
"481 597 LINE",
"693 0 LINE",
"766 0 LINE"
);
}
);
width = 963;
}
);
leftKerningGroup = W;
note = W;
rightKerningGroup = W;
unicode = 0057;
},
{
glyphname = X;
layers = (
{
hints = (
{
horizontal = 1;
place = "{0, 700}";
type = Stem;
},
{
place = "{18, 741}";
type = Stem;
}
);
layerId = "1041D826-7B5A-4F1A-81FD-3B5FB25AF0FC";
paths = (
{
closed = 1;
nodes = (
"105 0 LINE",
"387 351 LINE",
"672 0 LINE",
"759 0 LINE",
"434 400 LINE",
"678 700 LINE",
"591 700 LINE",
"390 454 LINE",
"190 700 LINE",
"103 700 LINE",
"343 404 LINE",
"18 0 LINE"
);
}
);
width = 777;
}
);
note = X;
rightKerningGroup = X;
unicode = 0058;
},
{
glyphname = Y;
layers = (
{
hints = (
{
horizontal = 1;
place = "{0, 700}";
type = Stem;
},
{
place = "{284, 70}";
type = Stem;
}
);
layerId = "1041D826-7B5A-4F1A-81FD-3B5FB25AF0FC";
paths = (
{
closed = 1;
nodes = (
"548 700 LINE",
"319 405 LINE",
"90 700 LINE",
"4 700 LINE",
"284 339 LINE",
"284 0 LINE",
"354 0 LINE",
"354 339 LINE",
"634 700 LINE"
);
}
);
width = 638;
}
);
leftKerningGroup = Yacute;
note = Y;
rightKerningGroup = Yacute;
unicode = 0059;
},
{
glyphname = Z;
layers = (
{
hints = (
{
horizontal = 1;
place = "{0, 64}";
type = Stem;
},
{
horizontal = 1;
place = "{636, 64}";
type = Stem;
},
{
place = "{20, 591}";
type = Stem;
}
);
layerId = "1041D826-7B5A-4F1A-81FD-3B5FB25AF0FC";
paths = (
{
closed = 1;
nodes = (
"603 0 LINE",
"603 64 LINE",
"150 64 LINE",
"611 700 LINE",
"82 700 LINE",
"82 636 LINE",
"482 636 LINE",
"20 0 LINE"
);
}
);
width = 626;
}
);
note = Z;
rightKerningGroup = Zcaron;
unicode = 005A;
},
{
glyphname = a;
layers = (
{
hints = (
{
horizontal = 1;
place = "{-6, 64}";
type = Stem;
},
{
horizontal = 1;
place = "{246, 57}";
type = Stem;
},
{
horizontal = 1;
place = "{445, 64}";
type = Stem;
},
{
place = "{47, 70}";
type = Stem;
},
{
place = "{371, 70}";
type = Stem;
}
);
layerId = "1041D826-7B5A-4F1A-81FD-3B5FB25AF0FC";
paths = (
{
closed = 1;
nodes = (
"133 394 LINE",
"159 417 OFFCURVE",
"201 445 OFFCURVE",
"254 445 CURVE SMOOTH",
"322 445 OFFCURVE",
"371 403 OFFCURVE",
"371 329 CURVE SMOOTH",
"371 292 LINE",
"340 299 OFFCURVE",
"303 303 OFFCURVE",
"270 303 CURVE SMOOTH",
"154 303 OFFCURVE",
"47 267 OFFCURVE",
"47 137 CURVE SMOOTH",
"47 71 OFFCURVE",
"97 -6 OFFCURVE",
"208 -6 CURVE SMOOTH",
"274 -6 OFFCURVE",
"330 23 OFFCURVE",
"371 68 CURVE",
"371 0 LINE",
"441 0 LINE",
"441 329 LINE SMOOTH",
"441 439 OFFCURVE",
"357 509 OFFCURVE",
"254 509 CURVE SMOOTH",
"165 509 OFFCURVE",
"109 464 OFFCURVE",
"84 436 CURVE"
);
},
{
closed = 1;
nodes = (
"317 246 OFFCURVE",
"348 242 OFFCURVE",
"371 237 CURVE",
"371 123 OFFCURVE",
"314 58 OFFCURVE",
"208 58 CURVE SMOOTH",
"145 58 OFFCURVE",
"117 96 OFFCURVE",
"117 137 CURVE SMOOTH",
"117 220 OFFCURVE",
"180 246 OFFCURVE",
"284 246 CURVE SMOOTH"
);
}
);
width = 516;
}
);
note = a;
rightKerningGroup = a;
unicode = 0061;
},
{
glyphname = b;
layers = (
{
hints = (
{
horizontal = 1;
place = "{-6, 64}";
type = Stem;
},
{
horizontal = 1;
place = "{454, 64}";
type = Stem;
},
{
place = "{76, 70}";
type = Stem;
},
{
place = "{488, 70}";
type = Stem;
}
);
layerId = "1041D826-7B5A-4F1A-81FD-3B5FB25AF0FC";
paths = (
{
closed = 1;
nodes = (
"146 700 LINE",
"76 700 LINE",
"76 0 LINE",
"146 0 LINE",
"146 59 LINE",
"185 18 OFFCURVE",
"240 -6 OFFCURVE",
"309 -6 CURVE SMOOTH",
"450 -6 OFFCURVE",
"558 108 OFFCURVE",
"558 254 CURVE SMOOTH",
"558 399 OFFCURVE",
"443 518 OFFCURVE",
"302 518 CURVE SMOOTH",
"232 518 OFFCURVE",
"181 489 OFFCURVE",
"146 453 CURVE"
);
},
{
closed = 1;
nodes = (
"146 356 LINE",
"163 403 OFFCURVE",
"214 454 OFFCURVE",
"302 454 CURVE SMOOTH",
"402 454 OFFCURVE",
"488 366 OFFCURVE",
"488 254 CURVE SMOOTH",
"488 141 OFFCURVE",
"408 58 OFFCURVE",
"309 58 CURVE SMOOTH",
"223 58 OFFCURVE",
"166 107 OFFCURVE",
"146 158 CURVE"
);
}
);
width = 587;
}
);
leftKerningGroup = b;
note = b;
rightKerningGroup = b;
unicode = 0062;
},
{
glyphname = c;
layers = (
{
hints = (
{
horizontal = 1;
place = "{-11, 64}";
type = Stem;
},
{
horizontal = 1;
place = "{452, 64}";
type = Stem;
},
{
place = "{37, 70}";
type = Stem;
}
);
layerId = "1041D826-7B5A-4F1A-81FD-3B5FB25AF0FC";
paths = (
{
closed = 1;
nodes = (
"444 119 LINE",
"405 76 OFFCURVE",
"356 53 OFFCURVE",
"300 53 CURVE SMOOTH",
"195 53 OFFCURVE",
"107 141 OFFCURVE",
"107 253 CURVE SMOOTH",
"107 359 OFFCURVE",
"193 452 OFFCURVE",
"300 452 CURVE SMOOTH",
"351 452 OFFCURVE",
"396 433 OFFCURVE",
"434 396 CURVE",
"482 442 LINE",
"435 488 OFFCURVE",
"371 516 OFFCURVE",
"300 516 CURVE SMOOTH",
"151 516 OFFCURVE",
"37 392 OFFCURVE",
"37 253 CURVE SMOOTH",
"37 107 OFFCURVE",
"155 -11 OFFCURVE",
"300 -11 CURVE SMOOTH",
"378 -11 OFFCURVE",
"448 23 OFFCURVE",
"496 76 CURVE"
);
}
);
width = 515;
}
);
leftKerningGroup = c;
note = c;
rightKerningGroup = c;
unicode = 0063;
},
{
glyphname = d;
layers = (
{
hints = (
{
horizontal = 1;
place = "{-6, 64}";
type = Stem;
},
{
horizontal = 1;
place = "{454, 64}";
type = Stem;
},
{
place = "{37, 70}";
type = Stem;
},
{
place = "{449, 70}";
type = Stem;
}
);
layerId = "1041D826-7B5A-4F1A-81FD-3B5FB25AF0FC";
paths = (
{
closed = 1;
nodes = (
"519 0 LINE",
"519 700 LINE",
"449 700 LINE",
"449 453 LINE",
"413 489 OFFCURVE",
"362 518 OFFCURVE",
"292 518 CURVE SMOOTH",
"151 518 OFFCURVE",
"37 399 OFFCURVE",
"37 254 CURVE SMOOTH",
"37 108 OFFCURVE",
"145 -6 OFFCURVE",
"286 -6 CURVE SMOOTH",
"355 -6 OFFCURVE",
"410 18 OFFCURVE",
"449 59 CURVE",
"449 0 LINE"
);
},
{
closed = 1;
nodes = (
"449 158 LINE",
"428 107 OFFCURVE",
"371 58 OFFCURVE",
"286 58 CURVE SMOOTH",
"187 58 OFFCURVE",
"107 141 OFFCURVE",
"107 254 CURVE SMOOTH",
"107 366 OFFCURVE",
"192 454 OFFCURVE",
"292 454 CURVE SMOOTH",
"380 454 OFFCURVE",
"432 403 OFFCURVE",
"449 356 CURVE"
);
}
);
width = 564;
}
);
leftKerningGroup = c;
note = d;
rightKerningGroup = a;
unicode = 0064;
},
{
glyphname = e;
layers = (
{
hints = (
{
horizontal = 1;
place = "{-10, 64}";
type = Stem;
},
{
horizontal = 1;
place = "{247, 61}";
type = Stem;
},
{
horizontal = 1;
place = "{454, 64}";
type = Stem;
},
{
place = "{38, 70}";
type = Stem;
},
{
place = "{439, 68.04}";
type = Stem;
}
);
layerId = "1041D826-7B5A-4F1A-81FD-3B5FB25AF0FC";
paths = (
{
closed = 1;
nodes = (
"448 154 LINE",
"417 92 OFFCURVE",
"363 54 OFFCURVE",
"291 54 CURVE SMOOTH",
"173 54 OFFCURVE",
"111 143 OFFCURVE",
"108 247 CURVE",
"502 247 LINE",
"516 348 OFFCURVE",
"500 402 OFFCURVE",
"465 444 CURVE SMOOTH",
"425 491 OFFCURVE",
"366 518 OFFCURVE",
"290 518 CURVE SMOOTH",
"123 518 OFFCURVE",
"38 386 OFFCURVE",
"38 254 CURVE SMOOTH",
"38 122 OFFCURVE",
"122 -10 OFFCURVE",
"291 -10 CURVE SMOOTH",
"392 -10 OFFCURVE",
"466 42 OFFCURVE",
"506 107 CURVE"
);
},
{
closed = 1;
nodes = (
"114 308 LINE",
"132 390 OFFCURVE",
"192 454 OFFCURVE",
"290 454 CURVE SMOOTH",
"384 454 OFFCURVE",
"449 395 OFFCURVE",
"439 308 CURVE"
);
}
);
width = 553;
}
);
note = e;
rightKerningGroup = e;
unicode = 0065;
},
{
glyphname = f;
layers = (
{
hints = (
{
horizontal = 1;
place = "{443, 64}";
type = Stem;
},
{
horizontal = 1;
place = "{653, 62}";
type = Stem;
},
{
place = "{103, 70}";
type = Stem;
}
);
layerId = "1041D826-7B5A-4F1A-81FD-3B5FB25AF0FC";
paths = (
{
closed = 1;
nodes = (
"316 443 LINE",
"316 507 LINE",
"173 507 LINE",
"173 561 LINE SMOOTH",
"173 612 OFFCURVE",
"185 653 OFFCURVE",
"236 653 CURVE SMOOTH",
"255 653 OFFCURVE",
"272 649 OFFCURVE",
"308 628 CURVE",
"342 684 LINE",
"295 711 OFFCURVE",
"259 715 OFFCURVE",
"236 715 CURVE SMOOTH",
"125 715 OFFCURVE",
"103 623 OFFCURVE",
"103 561 CURVE SMOOTH",
"103 507 LINE",
"9 507 LINE",
"9 443 LINE",
"103 443 LINE",
"103 0 LINE",
"173 0 LINE",
"173 443 LINE"
);
}
);
width = 344;
}
);
leftKerningGroup = f;
note = f;
rightKerningGroup = f;
unicode = 0066;
},
{
glyphname = g;
layers = (
{
hints = (
{
horizontal = 1;
place = "{-301, 64}";
type = Stem;
},
{
horizontal = 1;
place = "{-20, 64}";
type = Stem;
},
{
horizontal = 1;
place = "{147, 64}";
type = Stem;
},
{
horizontal = 1;
place = "{436, 58.5}";
type = Stem;
},
{
place = "{38.87, 70.13}";
type = Stem;
},
{
place = "{455, 70}";
type = Stem;
},
{
horizontal = 1;
place = "{446, 64}";
type = Stem;
},
{
place = "{90, 70}";
type = Stem;
},
{
place = "{33, 67}";
type = Stem;
},
{
place = "{385, 70}";
type = Stem;
}
);
layerId = "1041D826-7B5A-4F1A-81FD-3B5FB25AF0FC";
paths = (
{
closed = 1;
nodes = (
"511 436 LINE",
"522 500 LINE",
"358 489 LINE",
"333 503 OFFCURVE",
"303 510 OFFCURVE",
"272 510 CURVE SMOOTH",
"172 510 OFFCURVE",
"90 429 OFFCURVE",
"90 329 CURVE SMOOTH",
"90 284 OFFCURVE",
"106 243 OFFCURVE",
"133 211 CURVE",
"93 206 OFFCURVE",
"56 184 OFFCURVE",
"43 134 CURVE SMOOTH",
"31 89 OFFCURVE",
"42 29 OFFCURVE",
"112 -3 CURVE",
"63 -35 OFFCURVE",
"33 -90 OFFCURVE",
"33 -145 CURVE SMOOTH",
"33 -224 OFFCURVE",
"95 -301 OFFCURVE",
"250 -301 CURVE SMOOTH",
"444 -301 OFFCURVE",
"525 -209 OFFCURVE",
"525 -103 CURVE SMOOTH",
"525 30 OFFCURVE",
"391 44 OFFCURVE",
"284 44 CURVE SMOOTH",
"256 44 OFFCURVE",
"230 43 OFFCURVE",
"209 43 CURVE SMOOTH",
"138 43 OFFCURVE",
"109 73 OFFCURVE",
"109 104 CURVE SMOOTH",
"109 159 OFFCURVE",
"171 171 OFFCURVE",
"196 163 CURVE",
"220 153 OFFCURVE",
"245 147 OFFCURVE",
"272 147 CURVE SMOOTH",
"373 147 OFFCURVE",
"455 228 OFFCURVE",
"455 329 CURVE SMOOTH",
"455 369 OFFCURVE",
"442 406 OFFCURVE",
"420 436 CURVE"
);
},
{
closed = 1;
nodes = (
"333 446 OFFCURVE",
"385 394 OFFCURVE",
"385 329 CURVE SMOOTH",
"385 263 OFFCURVE",
"333 211 OFFCURVE",
"272 211 CURVE SMOOTH",
"212 211 OFFCURVE",
"160 263 OFFCURVE",
"160 329 CURVE SMOOTH",
"160 394 OFFCURVE",
"212 446 OFFCURVE",
"272 446 CURVE SMOOTH"
);
},
{
closed = 1;
nodes = (
"141 -237 OFFCURVE",
"99 -178 OFFCURVE",
"100 -120 CURVE SMOOTH",
"100 -76 OFFCURVE",
"126 -34 OFFCURVE",
"166 -18 CURVE",
"201 -23 OFFCURVE",
"245 -20 OFFCURVE",
"297 -20 CURVE SMOOTH",
"380 -20 OFFCURVE",
"455 -30 OFFCURVE",
"455 -107 CURVE SMOOTH",
"455 -197 OFFCURVE",
"371 -237 OFFCURVE",
"251 -237 CURVE SMOOTH"
);
}
);
width = 561;
}
);
leftKerningGroup = c;
note = g;
rightKerningGroup = a;
unicode = 0067;
},
{
glyphname = h;
layers = (
{
hints = (
{
horizontal = 1;
place = "{450, 63}";
type = Stem;
},
{
place = "{76, 70}";
type = Stem;
},
{
place = "{425, 70}";
type = Stem;
}
);
layerId = "1041D826-7B5A-4F1A-81FD-3B5FB25AF0FC";
paths = (
{
closed = 1;
nodes = (
"146 700 LINE",
"76 700 LINE",
"76 0 LINE",
"146 0 LINE",
"146 352 LINE",
"164 402 OFFCURVE",
"212 450 OFFCURVE",
"280 450 CURVE SMOOTH",
"367 450 OFFCURVE",
"425 395 OFFCURVE",
"425 285 CURVE SMOOTH",
"425 0 LINE",
"495 0 LINE",
"495 285 LINE SMOOTH",
"495 428 OFFCURVE",
"406 513 OFFCURVE",
"280 513 CURVE SMOOTH",
"227 513 OFFCURVE",
"181 491 OFFCURVE",
"146 452 CURVE"
);
}
);
width = 561;
}
);
leftKerningGroup = b;
note = h;
rightKerningGroup = h;
unicode = 0068;
},
{
glyphname = i;
layers = (
{
hints = (
{
horizontal = 1;
place = "{0, 650}";
type = Stem;
},
{
place = "{68, 70}";
type = Stem;
}
);
layerId = "1041D826-7B5A-4F1A-81FD-3B5FB25AF0FC";
paths = (
{
closed = 1;
nodes = (
"56 629 OFFCURVE",
"78 650 OFFCURVE",
"103 650 CURVE SMOOTH",
"128 650 OFFCURVE",
"149 629 OFFCURVE",
"149 604 CURVE SMOOTH",
"149 579 OFFCURVE",
"128 557 OFFCURVE",
"103 557 CURVE SMOOTH",
"78 557 OFFCURVE",
"56 579 OFFCURVE",
"56 604 CURVE SMOOTH"
);
},
{
closed = 1;
nodes = (
"68 0 LINE",
"138 0 LINE",
"138 507 LINE",
"68 507 LINE"
);
}
);
width = 205;
}
);
leftKerningGroup = i;
note = i;
rightKerningGroup = i;
unicode = 0069;
},
{
glyphname = j;
layers = (
{
hints = (
{
horizontal = 1;
place = "{-204, 64}";
type = Stem;
},
{
place = "{86, 70}";
type = Stem;
}
);
layerId = "1041D826-7B5A-4F1A-81FD-3B5FB25AF0FC";
paths = (
{
closed = 1;
nodes = (
"75 629 OFFCURVE",
"96 650 OFFCURVE",
"121 650 CURVE SMOOTH",
"146 650 OFFCURVE",
"168 629 OFFCURVE",
"168 604 CURVE SMOOTH",
"168 578 OFFCURVE",
"147 557 OFFCURVE",
"121 557 CURVE SMOOTH",
"96 557 OFFCURVE",
"75 578 OFFCURVE",
"75 604 CURVE SMOOTH"
);
},
{
closed = 1;
nodes = (
"156 507 LINE",
"86 507 LINE",
"86 -9 LINE SMOOTH",
"86 -95 OFFCURVE",
"23 -140 OFFCURVE",
"-50 -140 CURVE",
"-50 -204 LINE",
"58 -204 OFFCURVE",
"156 -136 OFFCURVE",
"156 -9 CURVE SMOOTH"
);
}
);
width = 224;
}
);
leftKerningGroup = j;
note = j;
rightKerningGroup = j;
unicode = 006A;
},
{
glyphname = k;
lastChange = "2019-02-04 10:49:36 +0000";
layers = (
{
hints = (
{
horizontal = 1;
place = "{0, 700}";
type = Stem;
},
{
place = "{76, 70}";
type = Stem;
}
);
layerId = "1041D826-7B5A-4F1A-81FD-3B5FB25AF0FC";
paths = (
{
closed = 1;
nodes = (
"375 0 LINE",
"456 0 LINE",
"248 333 LINE",
"469 507 LINE",
"376 507 LINE",
"146 325 LINE",
"146 700 LINE",
"76 700 LINE",
"76 0 LINE",
"146 0 LINE",
"146 252 LINE",
"194 290 LINE"
);
}
);
width = 488;
}
);
leftKerningGroup = b;
note = k;
rightKerningGroup = k;
unicode = 006B;
},
{
glyphname = l;
layers = (
{
hints = (
{
horizontal = 1;
place = "{0, 700}";
type = Stem;
},
{
place = "{76, 70}";
type = Stem;
}
);
layerId = "1041D826-7B5A-4F1A-81FD-3B5FB25AF0FC";
paths = (
{
closed = 1;
nodes = (
"146 700 LINE",
"76 700 LINE",
"76 0 LINE",
"146 0 LINE"
);
}
);
width = 224;
}
);
leftKerningGroup = l;
note = l;
rightKerningGroup = a;
unicode = 006C;
},
{
glyphname = m;
layers = (
{
hints = (
{
horizontal = 1;
place = "{450, 63}";
type = Stem;
},
{
place = "{76, 70}";
type = Stem;
},
{
place = "{409, 70}";
type = Stem;
},
{
place = "{744, 70}";
type = Stem;
}
);
layerId = "1041D826-7B5A-4F1A-81FD-3B5FB25AF0FC";
paths = (
{
closed = 1;
nodes = (
"146 507 LINE",
"76 507 LINE",
"76 0 LINE",
"146 0 LINE",
"146 350 LINE",
"169 416 OFFCURVE",
"227 449 OFFCURVE",
"279 449 CURVE SMOOTH",
"356 449 OFFCURVE",
"409 398 OFFCURVE",
"409 291 CURVE SMOOTH",
"409 0 LINE",
"479 0 LINE",
"479 291 LINE SMOOTH",
"479 318 OFFCURVE",
"476 342 OFFCURVE",
"471 365 CURVE",
"492 410 OFFCURVE",
"537 450 OFFCURVE",
"599 450 CURVE SMOOTH",
"686 450 OFFCURVE",
"744 397 OFFCURVE",
"744 287 CURVE SMOOTH",
"744 0 LINE",
"814 0 LINE",
"814 287 LINE SMOOTH",
"814 430 OFFCURVE",
"725 513 OFFCURVE",
"599 513 CURVE SMOOTH",
"530 513 OFFCURVE",
"476 477 OFFCURVE",
"445 427 CURVE",
"410 483 OFFCURVE",
"351 513 OFFCURVE",
"279 513 CURVE SMOOTH",
"229 513 OFFCURVE",
"181 493 OFFCURVE",
"146 456 CURVE"
);
}
);
width = 880;
}
);
leftKerningGroup = b;
note = m;
rightKerningGroup = h;
unicode = 006D;
},
{
glyphname = n;
lastChange = "2019-02-04 10:47:44 +0000";
layers = (
{
hints = (
{
horizontal = 1;
place = "{450, 63}";
type = Stem;
},
{
place = "{76, 70}";
type = Stem;
},
{
place = "{432, 70}";
type = Stem;
}
);
layerId = "1041D826-7B5A-4F1A-81FD-3B5FB25AF0FC";
paths = (
{
closed = 1;
nodes = (
"146 507 LINE",
"76 507 LINE",
"76 0 LINE",
"146 0 LINE",
"146 325 LINE",
"156 383 OFFCURVE",
"217 450 OFFCURVE",
"297 450 CURVE SMOOTH",
"384 450 OFFCURVE",
"432 411 OFFCURVE",
"432 291 CURVE SMOOTH",
"432 0 LINE",
"502 0 LINE",
"502 291 LINE SMOOTH",
"502 444 OFFCURVE",
"423 513 OFFCURVE",
"297 513 CURVE SMOOTH",
"241 513 OFFCURVE",
"182 487 OFFCURVE",
"146 424 CURVE"
);
}
);
width = 561;
}
);
leftKerningGroup = b;
note = n;
rightKerningGroup = h;
unicode = 006E;
},
{
glyphname = o;
layers = (
{
hints = (
{
horizontal = 1;
place = "{0, 64}";
type = Stem;
},
{
horizontal = 1;
place = "{454, 64}";
type = Stem;
},
{
place = "{37, 70}";
type = Stem;
},
{
place = "{483, 70}";
type = Stem;
}
);
layerId = "1041D826-7B5A-4F1A-81FD-3B5FB25AF0FC";
paths = (
{
closed = 1;
nodes = (
"553 402 OFFCURVE",
"437 518 OFFCURVE",
"295 518 CURVE SMOOTH",
"154 518 OFFCURVE",
"37 402 OFFCURVE",
"37 259 CURVE SMOOTH",
"37 116 OFFCURVE",
"153 0 OFFCURVE",
"295 0 CURVE SMOOTH",
"438 0 OFFCURVE",
"553 117 OFFCURVE",
"553 259 CURVE SMOOTH"
);
},
{
closed = 1;
nodes = (
"483 151 OFFCURVE",
"397 64 OFFCURVE",
"295 64 CURVE SMOOTH",
"193 64 OFFCURVE",
"107 150 OFFCURVE",
"107 259 CURVE SMOOTH",
"107 368 OFFCURVE",
"194 454 OFFCURVE",
"295 454 CURVE SMOOTH",
"397 454 OFFCURVE",
"483 368 OFFCURVE",
"483 259 CURVE SMOOTH"
);
}
);
width = 591;
}
);
leftKerningGroup = c;
note = o;
rightKerningGroup = b;
unicode = 006F;
},
{
glyphname = p;
layers = (
{
hints = (
{
horizontal = 1;
place = "{-6, 64}";
type = Stem;
},
{
horizontal = 1;
place = "{454, 64}";
type = Stem;
},
{
place = "{75, 70}";
type = Stem;
},
{
place = "{486, 70}";
type = Stem;
}
);
layerId = "1041D826-7B5A-4F1A-81FD-3B5FB25AF0FC";
paths = (
{
closed = 1;
nodes = (
"145 500 LINE",
"75 500 LINE",
"75 -200 LINE",
"145 -200 LINE",
"145 58 LINE",
"184 18 OFFCURVE",
"239 -6 OFFCURVE",
"307 -6 CURVE SMOOTH",
"448 -6 OFFCURVE",
"556 108 OFFCURVE",
"556 254 CURVE SMOOTH",
"556 399 OFFCURVE",
"442 518 OFFCURVE",
"301 518 CURVE SMOOTH",
"231 518 OFFCURVE",
"180 490 OFFCURVE",
"145 454 CURVE"
);
},
{
closed = 1;
nodes = (
"145 358 LINE",
"163 405 OFFCURVE",
"214 454 OFFCURVE",
"301 454 CURVE SMOOTH",
"401 454 OFFCURVE",
"486 366 OFFCURVE",
"486 254 CURVE SMOOTH",
"486 141 OFFCURVE",
"406 58 OFFCURVE",
"307 58 CURVE SMOOTH",
"223 58 OFFCURVE",
"166 106 OFFCURVE",
"145 157 CURVE"
);
}
);
width = 596;
}
);
leftKerningGroup = b;
note = p;
rightKerningGroup = b;
unicode = 0070;
},
{
glyphname = q;
layers = (
{
hints = (
{
horizontal = 1;
place = "{-6, 64}";
type = Stem;
},
{
horizontal = 1;
place = "{454, 64}";
type = Stem;
},
{
place = "{38, 70}";
type = Stem;
},
{
place = "{449, 70}";
type = Stem;
}
);
layerId = "1041D826-7B5A-4F1A-81FD-3B5FB25AF0FC";
paths = (
{
closed = 1;
nodes = (
"519 -200 LINE",
"519 500 LINE",
"449 500 LINE",
"449 454 LINE",
"414 490 OFFCURVE",
"363 518 OFFCURVE",
"293 518 CURVE SMOOTH",
"152 518 OFFCURVE",
"38 399 OFFCURVE",
"38 254 CURVE SMOOTH",
"38 108 OFFCURVE",
"146 -6 OFFCURVE",
"287 -6 CURVE SMOOTH",
"355 -6 OFFCURVE",
"410 18 OFFCURVE",
"449 58 CURVE",
"449 -200 LINE"
);
},
{
closed = 1;
nodes = (
"449 157 LINE",
"428 106 OFFCURVE",
"371 58 OFFCURVE",
"287 58 CURVE SMOOTH",
"188 58 OFFCURVE",
"108 141 OFFCURVE",
"108 254 CURVE SMOOTH",
"108 366 OFFCURVE",
"193 454 OFFCURVE",
"293 454 CURVE SMOOTH",
"380 454 OFFCURVE",
"431 405 OFFCURVE",
"449 358 CURVE"
);
}
);
width = 596;
}
);
leftKerningGroup = c;
note = q;
rightKerningGroup = a;
unicode = 0071;
},
{
glyphname = r;
layers = (
{
hints = (
{
horizontal = 1;
place = "{449, 64}";
type = Stem;
},
{
place = "{76, 70}";
type = Stem;
}
);
layerId = "1041D826-7B5A-4F1A-81FD-3B5FB25AF0FC";
paths = (
{
closed = 1;
nodes = (
"146 509 LINE",
"76 509 LINE",
"76 0 LINE",
"146 0 LINE",
"146 306 LINE",
"151 401 OFFCURVE",
"210 449 OFFCURVE",
"266 449 CURVE SMOOTH",
"281 449 OFFCURVE",
"297 443 OFFCURVE",
"307 435 CURVE",
"343 497 LINE",
"320 506 OFFCURVE",
"294 513 OFFCURVE",
"266 513 CURVE SMOOTH",
"221 513 OFFCURVE",
"174 498 OFFCURVE",
"146 449 CURVE"
);
}
);
width = 355;
}
);
leftKerningGroup = b;
note = r;
rightKerningGroup = r;
unicode = 0072;
},
{
glyphname = s;
layers = (
{
hints = (
{
horizontal = 1;
place = "{-5, 64}";
type = Stem;
},
{
horizontal = 1;
place = "{445, 63}";
type = Stem;
},
{
place = "{61, 70}";
type = Stem;
},
{
place = "{323, 70}";
type = Stem;
}
);
layerId = "1041D826-7B5A-4F1A-81FD-3B5FB25AF0FC";
paths = (
{
closed = 1;
nodes = (
"362 436 LINE",
"320 481 OFFCURVE",
"277 505 OFFCURVE",
"216 508 CURVE SMOOTH",
"128 513 OFFCURVE",
"57 450 OFFCURVE",
"61 373 CURVE SMOOTH",
"65 287 OFFCURVE",
"145 265 OFFCURVE",
"229 235 CURVE SMOOTH",
"272 221 OFFCURVE",
"323 201 OFFCURVE",
"323 141 CURVE SMOOTH",
"323 87 OFFCURVE",
"280 59 OFFCURVE",
"218 59 CURVE SMOOTH",
"151 59 OFFCURVE",
"118 87 OFFCURVE",
"81 126 CURVE",
"30 82 LINE",
"74 36 OFFCURVE",
"125 -5 OFFCURVE",
"218 -5 CURVE SMOOTH",
"302 -5 OFFCURVE",
"393 41 OFFCURVE",
"393 141 CURVE SMOOTH",
"393 262 OFFCURVE",
"273 288 OFFCURVE",
"230 303 CURVE SMOOTH",
"165 326 OFFCURVE",
"133 338 OFFCURVE",
"131 376 CURVE SMOOTH",
"129 417 OFFCURVE",
"162 447 OFFCURVE",
"212 445 CURVE SMOOTH",
"257 442 OFFCURVE",
"285 424 OFFCURVE",
"313 394 CURVE"
);
}
);
width = 421;
}
);
note = s;
rightKerningGroup = s;
unicode = 0073;
},
{
glyphname = t;
layers = (
{
hints = (
{
horizontal = 1;
place = "{-2, 61.64}";
type = Stem;
},
{
horizontal = 1;
place = "{443, 64}";
type = Stem;
},
{
place = "{86, 70}";
type = Stem;
}
);
layerId = "1041D826-7B5A-4F1A-81FD-3B5FB25AF0FC";
paths = (
{
closed = 1;
nodes = (
"295 84 LINE",
"280 73 OFFCURVE",
"261 65 OFFCURVE",
"244 62 CURVE SMOOTH",
"165 48 OFFCURVE",
"156 98 OFFCURVE",
"156 155 CURVE SMOOTH",
"156 443 LINE",
"313 443 LINE",
"313 507 LINE",
"156 507 LINE",
"156 700 LINE",
"86 700 LINE",
"86 507 LINE",
"6 507 LINE",
"6 443 LINE",
"86 443 LINE",
"86 155 LINE SMOOTH",
"86 77 OFFCURVE",
"100 -18 OFFCURVE",
"244 -2 CURVE SMOOTH",
"271 1 OFFCURVE",
"307 13 OFFCURVE",
"327 27 CURVE"
);
}
);
width = 338;
}
);
note = t;
rightKerningGroup = t;
unicode = 0074;
},
{
glyphname = u;
layers = (
{
hints = (
{
horizontal = 1;
place = "{-6, 64}";
type = Stem;
},
{
place = "{66, 70}";
type = Stem;
},
{
place = "{422, 70}";
type = Stem;
}
);
layerId = "1041D826-7B5A-4F1A-81FD-3B5FB25AF0FC";
paths = (
{
closed = 1;
nodes = (
"422 0 LINE",
"492 0 LINE",
"492 507 LINE",
"422 507 LINE",
"422 182 LINE",
"412 124 OFFCURVE",
"361 58 OFFCURVE",
"281 58 CURVE SMOOTH",
"194 58 OFFCURVE",
"136 114 OFFCURVE",
"136 224 CURVE SMOOTH",
"136 507 LINE",
"66 507 LINE",
"66 224 LINE SMOOTH",
"66 82 OFFCURVE",
"155 -6 OFFCURVE",
"281 -6 CURVE SMOOTH",
"337 -6 OFFCURVE",
"386 20 OFFCURVE",
"422 63 CURVE"
);
}
);
width = 568;
}
);
leftKerningGroup = u;
note = u;
rightKerningGroup = a;
unicode = 0075;
},
{
glyphname = v;
layers = (
{
hints = (
{
horizontal = 1;
place = "{0, 500}";
type = Stem;
},
{
place = "{10, 449}";
type = Stem;
}
);
layerId = "1041D826-7B5A-4F1A-81FD-3B5FB25AF0FC";
paths = (
{
closed = 1;
nodes = (
"10 500 LINE",
"219 0 LINE",
"249 0 LINE",
"459 500 LINE",
"384 500 LINE",
"234 143 LINE",
"85 500 LINE"
);
}
);
width = 469;
}
);
leftKerningGroup = v;
note = v;
rightKerningGroup = v;
unicode = 0076;
},
{
glyphname = w;
layers = (
{
hints = (
{
horizontal = 1;
place = "{0, 500}";
type = Stem;
},
{
place = "{15, 650}";
type = Stem;
}
);
layerId = "1041D826-7B5A-4F1A-81FD-3B5FB25AF0FC";
paths = (
{
closed = 1;
nodes = (
"15 500 LINE",
"187 0 LINE",
"217 0 LINE",
"341 360 LINE",
"463 0 LINE",
"493 0 LINE",
"665 500 LINE",
"592 500 LINE",
"478 170 LINE",
"364 500 LINE",
"316 500 LINE",
"202 170 LINE",
"88 500 LINE"
);
}
);
width = 680;
}
);
leftKerningGroup = w;
note = w;
rightKerningGroup = w;
unicode = 0077;
},
{
glyphname = x;
layers = (
{
hints = (
{
horizontal = 1;
place = "{0, 500}";
type = Stem;
},
{
place = "{15, 518}";
type = Stem;
}
);
layerId = "1041D826-7B5A-4F1A-81FD-3B5FB25AF0FC";
paths = (
{
closed = 1;
nodes = (
"110 500 LINE",
"21 500 LINE",
"230 254 LINE",
"15 0 LINE",
"103 0 LINE",
"274 201 LINE",
"445 0 LINE",
"533 0 LINE",
"318 254 LINE",
"527 500 LINE",
"439 500 LINE",
"274 306 LINE"
);
}
);
width = 548;
}
);
note = x;
rightKerningGroup = x;
unicode = 0078;
},
{
glyphname = y;
layers = (
{
hints = (
{
horizontal = 1;
place = "{-200, 700}";
type = Stem;
},
{
place = "{9, 579}";
type = Stem;
}
);
layerId = "1041D826-7B5A-4F1A-81FD-3B5FB25AF0FC";
paths = (
{
closed = 1;
nodes = (
"260 75 LINE",
"99 -200 LINE",
"179 -200 LINE",
"588 500 LINE",
"509 500 LINE",
"300 143 LINE",
"90 500 LINE",
"9 500 LINE"
);
}
);
width = 593;
}
);
leftKerningGroup = yacute;
note = y;
rightKerningGroup = yacute;
unicode = 0079;
},
{
glyphname = z;
layers = (
{
hints = (
{
horizontal = 1;
place = "{0, 64}";
type = Stem;
},
{
horizontal = 1;
place = "{436, 64}";
type = Stem;
},
{
place = "{62, 419}";
type = Stem;
}
);
layerId = "1041D826-7B5A-4F1A-81FD-3B5FB25AF0FC";
paths = (
{
closed = 1;
nodes = (
"481 0 LINE",
"481 64 LINE",
"159 64 LINE",
"481 454 LINE",
"481 500 LINE",
"67 500 LINE",
"67 436 LINE",
"386 436 LINE",
"62 52 LINE",
"62 0 LINE"
);
}
);
width = 539;
}
);
note = z;
rightKerningGroup = zcaron;
unicode = 007A;
},
{
glyphname = Adieresis;
layers = (
{
hints = (
{
horizontal = 1;
place = "{223, 64}";
type = Stem;
},
{
place = "{11, 630}";
type = Stem;
}
);
layerId = "1041D826-7B5A-4F1A-81FD-3B5FB25AF0FC";
paths = (
{
closed = 1;
nodes = (
"141 834 OFFCURVE",
"162 855 OFFCURVE",
"187 855 CURVE SMOOTH",
"212 855 OFFCURVE",
"234 834 OFFCURVE",
"234 809 CURVE SMOOTH",
"234 784 OFFCURVE",
"212 762 OFFCURVE",
"187 762 CURVE SMOOTH",
"162 762 OFFCURVE",
"141 784 OFFCURVE",
"141 809 CURVE SMOOTH"
);
},
{
closed = 1;
nodes = (
"420 834 OFFCURVE",
"442 855 OFFCURVE",
"467 855 CURVE SMOOTH",
"492 855 OFFCURVE",
"513 834 OFFCURVE",
"513 809 CURVE SMOOTH",
"513 784 OFFCURVE",
"492 762 OFFCURVE",
"467 762 CURVE SMOOTH",
"442 762 OFFCURVE",
"420 784 OFFCURVE",
"420 809 CURVE SMOOTH"
);
},
{
closed = 1;
nodes = (
"11 0 LINE",
"85 0 LINE",
"173 223 LINE",
"479 223 LINE",
"566 0 LINE",
"641 0 LINE",
"366 700 LINE",
"285 700 LINE"
);
},
{
closed = 1;
nodes = (
"454 287 LINE",
"198 287 LINE",
"326 614 LINE"
);
}
);
width = 653;
}
);
note = Adieresis;
rightKerningGroup = A;
unicode = 00C4;
},
{
glyphname = Aring;
layers = (
{
hints = (
{
horizontal = 1;
place = "{223, 64}";
type = Stem;
},
{
horizontal = 1;
place = "{908, 54}";
type = Stem;
},
{
place = "{182, 54}";
type = Stem;
},
{
place = "{416, 54}";
type = Stem;
}
);
layerId = "1041D826-7B5A-4F1A-81FD-3B5FB25AF0FC";
paths = (
{
closed = 1;
nodes = (
"479 223 LINE",
"566 0 LINE",
"641 0 LINE",
"374 681 LINE",
"430 701 OFFCURVE",
"470 754 OFFCURVE",
"470 817 CURVE SMOOTH",
"470 898 OFFCURVE",
"406 962 OFFCURVE",
"326 962 CURVE SMOOTH",
"246 962 OFFCURVE",
"182 898 OFFCURVE",
"182 817 CURVE SMOOTH",
"182 754 OFFCURVE",
"222 701 OFFCURVE",
"278 681 CURVE",
"11 0 LINE",
"85 0 LINE",
"173 223 LINE"
);
},
{
closed = 1;
nodes = (
"236 867 OFFCURVE",
"276 908 OFFCURVE",
"326 908 CURVE SMOOTH",
"376 908 OFFCURVE",
"416 867 OFFCURVE",
"416 817 CURVE SMOOTH",
"416 768 OFFCURVE",
"376 727 OFFCURVE",
"326 727 CURVE SMOOTH",
"276 727 OFFCURVE",
"236 768 OFFCURVE",
"236 817 CURVE SMOOTH"
);
},
{
closed = 1;
nodes = (
"198 287 LINE",
"326 614 LINE",
"454 287 LINE"
);
}
);
width = 653;
}
);
note = Aring;
rightKerningGroup = A;
unicode = 00C5;
},
{
glyphname = Ccedilla;
layers = (
{
hints = (
{
horizontal = 1;
place = "{-2, 64}";
type = Stem;
},
{
horizontal = 1;
place = "{637, 64}";
type = Stem;
},
{
place = "{36, 70}";
type = Stem;
}
);
layerId = "1041D826-7B5A-4F1A-81FD-3B5FB25AF0FC";
paths = (
{
closed = 1;
nodes = (
"577 175 LINE",
"525 103 OFFCURVE",
"453 62 OFFCURVE",
"369 62 CURVE SMOOTH",
"227 62 OFFCURVE",
"106 189 OFFCURVE",
"106 350 CURVE SMOOTH",
"106 497 OFFCURVE",
"214 637 OFFCURVE",
"369 637 CURVE SMOOTH",
"447 637 OFFCURVE",
"515 602 OFFCURVE",
"567 538 CURVE",
"621 578 LINE",
"560 654 OFFCURVE",
"470 701 OFFCURVE",
"369 701 CURVE SMOOTH",
"167 701 OFFCURVE",
"36 527 OFFCURVE",
"36 350 CURVE SMOOTH",
"36 156 OFFCURVE",
"185 -2 OFFCURVE",
"369 -2 CURVE SMOOTH",
"477 -2 OFFCURVE",
"573 53 OFFCURVE",
"634 138 CURVE"
);
},
{
closed = 1;
nodes = (
"403 -61 LINE",
"350 -25 LINE",
"260 -157 LINE",
"313 -193 LINE"
);
}
);
width = 656;
}
);
leftKerningGroup = C;
note = Ccedilla;
rightKerningGroup = C;
unicode = 00C7;
},
{
glyphname = Eacute;
layers = (
{
hints = (
{
horizontal = 1;
place = "{0, 64}";
type = Stem;
},
{
horizontal = 1;
place = "{322, 64}";
type = Stem;
},
{
horizontal = 1;
place = "{636, 64}";
type = Stem;
},
{
place = "{86, 70}";
type = Stem;
}
);
layerId = "1041D826-7B5A-4F1A-81FD-3B5FB25AF0FC";
paths = (
{
closed = 1;
nodes = (
"434 834 LINE",
"412 908 LINE",
"215 814 LINE",
"231 754 LINE"
);
},
{
closed = 1;
nodes = (
"86 700 LINE",
"86 0 LINE",
"539 0 LINE",
"539 64 LINE",
"156 64 LINE",
"156 322 LINE",
"464 322 LINE",
"464 386 LINE",
"156 386 LINE",
"156 636 LINE",
"538 636 LINE",
"538 700 LINE"
);
}
);
width = 570;
}
);
leftKerningGroup = B;
note = Eacute;
rightKerningGroup = E;
unicode = 00C9;
},
{
glyphname = Ntilde;
layers = (
{
hints = (
{
horizontal = 1;
place = "{767, 63}";
type = Stem;
},
{
place = "{86, 70}";
type = Stem;
},
{
place = "{467.87, 62.23}";
type = Stem;
},
{
place = "{568, 71}";
type = Stem;
},
{
horizontal = 1;
place = "{827, 58}";
type = Stem;
}
);
layerId = "1041D826-7B5A-4F1A-81FD-3B5FB25AF0FC";
paths = (
{
closed = 1;
nodes = (
"464 873 LINE",
"469 853 OFFCURVE",
"474 830 OFFCURVE",
"450 830 CURVE SMOOTH",
"407 830 OFFCURVE",
"352 890 OFFCURVE",
"289 885 CURVE SMOOTH",
"245 881 OFFCURVE",
"210 845 OFFCURVE",
"196 798 CURVE",
"249 775 LINE",
"258 803 OFFCURVE",
"268 825 OFFCURVE",
"292 827 CURVE SMOOTH",
"341 831 OFFCURVE",
"394 767 OFFCURVE",
"455 767 CURVE SMOOTH",
"499 767 OFFCURVE",
"540 793 OFFCURVE",
"528 873 CURVE"
);
},
{
closed = 1;
nodes = (
"156 591 LINE",
"562 0 LINE",
"639 0 LINE",
"639 700 LINE",
"568 700 LINE",
"568 111 LINE",
"164 700 LINE",
"86 700 LINE",
"86 0 LINE",
"156 0 LINE"
);
}
);
width = 725;
}
);
leftKerningGroup = B;
note = Ntilde;
rightKerningGroup = scaron;
unicode = 00D1;
},
{
glyphname = Odieresis;
layers = (
{
hints = (
{
horizontal = 1;
place = "{0, 64}";
type = Stem;
},
{
horizontal = 1;
place = "{638, 64}";
type = Stem;
},
{
place = "{36, 70}";
type = Stem;
},
{
place = "{669, 70}";
type = Stem;
}
);
layerId = "1041D826-7B5A-4F1A-81FD-3B5FB25AF0FC";
paths = (
{
closed = 1;
nodes = (
"72 812 OFFCURVE",
"94 833 OFFCURVE",
"119 833 CURVE SMOOTH",
"144 833 OFFCURVE",
"165 812 OFFCURVE",
"165 786 CURVE SMOOTH",
"165 761 OFFCURVE",
"144 740 OFFCURVE",
"119 740 CURVE SMOOTH",
"94 740 OFFCURVE",
"72 761 OFFCURVE",
"72 786 CURVE SMOOTH"
);
},
{
closed = 1;
nodes = (
"626 812 OFFCURVE",
"648 833 OFFCURVE",
"673 833 CURVE SMOOTH",
"698 833 OFFCURVE",
"719 812 OFFCURVE",
"719 786 CURVE SMOOTH",
"719 761 OFFCURVE",
"698 740 OFFCURVE",
"673 740 CURVE SMOOTH",
"648 740 OFFCURVE",
"626 761 OFFCURVE",
"626 786 CURVE SMOOTH"
);
},
{
closed = 1;
nodes = (
"190 702 OFFCURVE",
"36 542 OFFCURVE",
"36 351 CURVE SMOOTH",
"36 157 OFFCURVE",
"193 0 OFFCURVE",
"387 0 CURVE SMOOTH",
"557 0 OFFCURVE",
"739 130 OFFCURVE",
"739 351 CURVE SMOOTH",
"739 545 OFFCURVE",
"581 702 OFFCURVE",
"387 702 CURVE SMOOTH"
);
},
{
closed = 1;
nodes = (
"541 638 OFFCURVE",
"669 511 OFFCURVE",
"669 351 CURVE SMOOTH",
"669 171 OFFCURVE",
"523 64 OFFCURVE",
"387 64 CURVE SMOOTH",
"234 64 OFFCURVE",
"106 192 OFFCURVE",
"106 351 CURVE SMOOTH",
"106 509 OFFCURVE",
"231 638 OFFCURVE",
"387 638 CURVE SMOOTH"
);
}
);
width = 774;
}
);
leftKerningGroup = C;
note = Odieresis;
rightKerningGroup = O;
unicode = 00D6;
},
{
glyphname = Udieresis;
layers = (
{
hints = (
{
horizontal = 1;
place = "{-9, 64}";
type = Stem;
},
{
place = "{69, 70}";
type = Stem;
},
{
place = "{527, 70}";
type = Stem;
}
);
layerId = "1041D826-7B5A-4F1A-81FD-3B5FB25AF0FC";
paths = (
{
closed = 1;
nodes = (
"146 834 OFFCURVE",
"167 855 OFFCURVE",
"192 855 CURVE SMOOTH",
"217 855 OFFCURVE",
"239 834 OFFCURVE",
"239 809 CURVE SMOOTH",
"239 784 OFFCURVE",
"217 762 OFFCURVE",
"192 762 CURVE SMOOTH",
"167 762 OFFCURVE",
"146 784 OFFCURVE",
"146 809 CURVE SMOOTH"
);
},
{
closed = 1;
nodes = (
"425 834 OFFCURVE",
"447 855 OFFCURVE",
"472 855 CURVE SMOOTH",
"497 855 OFFCURVE",
"518 834 OFFCURVE",
"518 809 CURVE SMOOTH",
"518 784 OFFCURVE",
"497 762 OFFCURVE",
"472 762 CURVE SMOOTH",
"447 762 OFFCURVE",
"425 784 OFFCURVE",
"425 809 CURVE SMOOTH"
);
},
{
closed = 1;
nodes = (
"139 700 LINE",
"69 700 LINE",
"69 270 LINE",
"69 270 OFFCURVE",
"59 0 OFFCURVE",
"323 -9 CURVE SMOOTH",
"343 -9 LINE SMOOTH",
"607 0 OFFCURVE",
"597 270 OFFCURVE",
"597 270 CURVE",
"597 700 LINE",
"527 700 LINE",
"527 260 LINE SMOOTH",
"526 219 OFFCURVE",
"510 61 OFFCURVE",
"342 55 CURVE",
"324 55 LINE",
"147 62 OFFCURVE",
"139 236 OFFCURVE",
"139 265 CURVE SMOOTH"
);
}
);
width = 661;
}
);
leftKerningGroup = U;
note = Udieresis;
rightKerningGroup = U;
unicode = 00DC;
},
{
glyphname = aacute;
layers = (
{
hints = (
{
horizontal = 1;
place = "{-6, 64}";
type = Stem;
},
{
horizontal = 1;
place = "{246, 57}";
type = Stem;
},
{
horizontal = 1;
place = "{445, 64}";
type = Stem;
},
{
place = "{47, 70}";
type = Stem;
},
{
place = "{371, 70}";
type = Stem;
}
);
layerId = "1041D826-7B5A-4F1A-81FD-3B5FB25AF0FC";
paths = (
{
closed = 1;
nodes = (
"382 634 LINE",
"360 708 LINE",
"163 614 LINE",
"179 554 LINE"
);
},
{
closed = 1;
nodes = (
"133 394 LINE",
"159 417 OFFCURVE",
"201 445 OFFCURVE",
"254 445 CURVE SMOOTH",
"322 445 OFFCURVE",
"371 403 OFFCURVE",
"371 329 CURVE SMOOTH",
"371 292 LINE",
"340 299 OFFCURVE",
"303 303 OFFCURVE",
"270 303 CURVE SMOOTH",
"154 303 OFFCURVE",
"47 267 OFFCURVE",
"47 137 CURVE SMOOTH",
"47 71 OFFCURVE",
"97 -6 OFFCURVE",
"208 -6 CURVE SMOOTH",
"274 -6 OFFCURVE",
"330 23 OFFCURVE",
"371 68 CURVE",
"371 0 LINE",
"441 0 LINE",
"441 329 LINE SMOOTH",
"441 439 OFFCURVE",
"357 509 OFFCURVE",
"254 509 CURVE SMOOTH",
"165 509 OFFCURVE",
"109 464 OFFCURVE",
"84 436 CURVE"
);
},
{
closed = 1;
nodes = (
"317 246 OFFCURVE",
"348 242 OFFCURVE",
"371 237 CURVE",
"371 123 OFFCURVE",
"314 58 OFFCURVE",
"208 58 CURVE SMOOTH",
"145 58 OFFCURVE",
"117 96 OFFCURVE",
"117 137 CURVE SMOOTH",
"117 220 OFFCURVE",
"180 246 OFFCURVE",
"284 246 CURVE SMOOTH"
);
}
);
width = 516;
}
);
note = aacute;
rightKerningGroup = a;
unicode = 00E1;
},
{
glyphname = agrave;
layers = (
{
hints = (
{
horizontal = 1;
place = "{-6, 64}";
type = Stem;
},
{
horizontal = 1;
place = "{246, 57}";
type = Stem;
},
{
horizontal = 1;
place = "{445, 64}";
type = Stem;
},
{
place = "{47, 70}";
type = Stem;
},
{
place = "{371, 70}";
type = Stem;
}
);
layerId = "1041D826-7B5A-4F1A-81FD-3B5FB25AF0FC";
paths = (
{
closed = 1;
nodes = (
"378 614 LINE",
"182 708 LINE",
"160 634 LINE",
"363 554 LINE"
);
},
{
closed = 1;
nodes = (
"133 394 LINE",
"159 417 OFFCURVE",
"201 445 OFFCURVE",
"254 445 CURVE SMOOTH",
"322 445 OFFCURVE",
"371 403 OFFCURVE",
"371 329 CURVE SMOOTH",
"371 292 LINE",
"340 299 OFFCURVE",
"303 303 OFFCURVE",
"270 303 CURVE SMOOTH",
"154 303 OFFCURVE",
"47 267 OFFCURVE",
"47 137 CURVE SMOOTH",
"47 71 OFFCURVE",
"97 -6 OFFCURVE",
"208 -6 CURVE SMOOTH",
"274 -6 OFFCURVE",
"330 23 OFFCURVE",
"371 68 CURVE",
"371 0 LINE",
"441 0 LINE",
"441 329 LINE SMOOTH",
"441 439 OFFCURVE",
"357 509 OFFCURVE",
"254 509 CURVE SMOOTH",
"165 509 OFFCURVE",
"109 464 OFFCURVE",
"84 436 CURVE"
);
},
{
closed = 1;
nodes = (
"317 246 OFFCURVE",
"348 242 OFFCURVE",
"371 237 CURVE",
"371 123 OFFCURVE",
"314 58 OFFCURVE",
"208 58 CURVE SMOOTH",
"145 58 OFFCURVE",
"117 96 OFFCURVE",
"117 137 CURVE SMOOTH",
"117 220 OFFCURVE",
"180 246 OFFCURVE",
"284 246 CURVE SMOOTH"
);
}
);
width = 516;
}
);
note = agrave;
rightKerningGroup = a;
unicode = 00E0;
},
{
glyphname = acircumflex;
layers = (
{
hints = (
{
horizontal = 1;
place = "{-6, 64}";
type = Stem;
},
{
horizontal = 1;
place = "{246, 57}";
type = Stem;
},
{
horizontal = 1;
place = "{445, 64}";
type = Stem;
},
{
place = "{47, 70}";
type = Stem;
},
{
place = "{371, 70}";
type = Stem;
}
);
layerId = "1041D826-7B5A-4F1A-81FD-3B5FB25AF0FC";
paths = (
{
closed = 1;
nodes = (
"66 614 LINE",
"82 554 LINE",
"263 625 LINE",
"444 554 LINE",
"460 614 LINE",
"263 708 LINE"
);
},
{
closed = 1;
nodes = (
"133 394 LINE",
"159 417 OFFCURVE",
"201 445 OFFCURVE",
"254 445 CURVE SMOOTH",
"322 445 OFFCURVE",
"371 403 OFFCURVE",
"371 329 CURVE SMOOTH",
"371 292 LINE",
"340 299 OFFCURVE",
"303 303 OFFCURVE",
"270 303 CURVE SMOOTH",
"154 303 OFFCURVE",
"47 267 OFFCURVE",
"47 137 CURVE SMOOTH",
"47 71 OFFCURVE",
"97 -6 OFFCURVE",
"208 -6 CURVE SMOOTH",
"274 -6 OFFCURVE",
"330 23 OFFCURVE",
"371 68 CURVE",
"371 0 LINE",
"441 0 LINE",
"441 329 LINE SMOOTH",
"441 439 OFFCURVE",
"357 509 OFFCURVE",
"254 509 CURVE SMOOTH",
"165 509 OFFCURVE",
"109 464 OFFCURVE",
"84 436 CURVE"
);
},
{
closed = 1;
nodes = (
"317 246 OFFCURVE",
"348 242 OFFCURVE",
"371 237 CURVE",
"371 123 OFFCURVE",
"314 58 OFFCURVE",
"208 58 CURVE SMOOTH",
"145 58 OFFCURVE",
"117 96 OFFCURVE",
"117 137 CURVE SMOOTH",
"117 220 OFFCURVE",
"180 246 OFFCURVE",
"284 246 CURVE SMOOTH"
);
}
);
width = 516;
}
);
note = acircumflex;
rightKerningGroup = a;
unicode = 00E2;
},
{
glyphname = adieresis;
layers = (
{
hints = (
{
horizontal = 1;
place = "{-6, 64}";
type = Stem;
},
{
horizontal = 1;
place = "{246, 57}";
type = Stem;
},
{
horizontal = 1;
place = "{445, 64}";
type = Stem;
},
{
place = "{47, 70}";
type = Stem;
},
{
place = "{371, 70}";
type = Stem;
}
);
layerId = "1041D826-7B5A-4F1A-81FD-3B5FB25AF0FC";
paths = (
{
closed = 1;
nodes = (
"78 634 OFFCURVE",
"99 655 OFFCURVE",
"124 655 CURVE SMOOTH",
"149 655 OFFCURVE",
"171 634 OFFCURVE",
"171 609 CURVE SMOOTH",
"171 584 OFFCURVE",
"149 562 OFFCURVE",
"124 562 CURVE SMOOTH",
"99 562 OFFCURVE",
"78 584 OFFCURVE",
"78 609 CURVE SMOOTH"
);
},
{
closed = 1;
nodes = (
"357 634 OFFCURVE",
"379 655 OFFCURVE",
"404 655 CURVE SMOOTH",
"429 655 OFFCURVE",
"450 634 OFFCURVE",
"450 609 CURVE SMOOTH",
"450 584 OFFCURVE",
"429 562 OFFCURVE",
"404 562 CURVE SMOOTH",
"379 562 OFFCURVE",
"357 584 OFFCURVE",
"357 609 CURVE SMOOTH"
);
},
{
closed = 1;
nodes = (
"133 394 LINE",
"159 417 OFFCURVE",
"201 445 OFFCURVE",
"254 445 CURVE SMOOTH",
"322 445 OFFCURVE",
"371 403 OFFCURVE",
"371 329 CURVE SMOOTH",
"371 292 LINE",
"340 299 OFFCURVE",
"303 303 OFFCURVE",
"270 303 CURVE SMOOTH",
"154 303 OFFCURVE",
"47 267 OFFCURVE",
"47 137 CURVE SMOOTH",
"47 71 OFFCURVE",
"97 -6 OFFCURVE",
"208 -6 CURVE SMOOTH",
"274 -6 OFFCURVE",
"330 23 OFFCURVE",
"371 68 CURVE",
"371 0 LINE",
"441 0 LINE",
"441 329 LINE SMOOTH",
"441 439 OFFCURVE",
"357 509 OFFCURVE",
"254 509 CURVE SMOOTH",
"165 509 OFFCURVE",
"109 464 OFFCURVE",
"84 436 CURVE"
);
},
{
closed = 1;
nodes = (
"317 246 OFFCURVE",
"348 242 OFFCURVE",
"371 237 CURVE",
"371 123 OFFCURVE",
"314 58 OFFCURVE",
"208 58 CURVE SMOOTH",
"145 58 OFFCURVE",
"117 96 OFFCURVE",
"117 137 CURVE SMOOTH",
"117 220 OFFCURVE",
"180 246 OFFCURVE",
"284 246 CURVE SMOOTH"
);
}
);
width = 516;
}
);
note = adieresis;
rightKerningGroup = a;
unicode = 00E4;
},
{
glyphname = atilde;
layers = (
{
hints = (
{
horizontal = 1;
place = "{-6, 64}";
type = Stem;
},
{
horizontal = 1;
place = "{246, 57}";
type = Stem;
},
{
horizontal = 1;
place = "{445, 64}";
type = Stem;
},
{
horizontal = 1;
place = "{567, 63}";
type = Stem;
},
{
place = "{47, 70}";
type = Stem;
},
{
place = "{368.87, 62.23}";
type = Stem;
},
{
horizontal = 1;
place = "{627, 58}";
type = Stem;
},
{
place = "{371, 70}";
type = Stem;
}
);
layerId = "1041D826-7B5A-4F1A-81FD-3B5FB25AF0FC";
paths = (
{
closed = 1;
nodes = (
"365 673 LINE",
"370 653 OFFCURVE",
"375 630 OFFCURVE",
"351 630 CURVE SMOOTH",
"308 630 OFFCURVE",
"253 690 OFFCURVE",
"190 685 CURVE SMOOTH",
"146 681 OFFCURVE",
"111 645 OFFCURVE",
"97 598 CURVE",
"150 575 LINE",
"159 603 OFFCURVE",
"169 625 OFFCURVE",
"193 627 CURVE SMOOTH",
"242 631 OFFCURVE",
"295 567 OFFCURVE",
"356 567 CURVE SMOOTH",
"400 567 OFFCURVE",
"441 593 OFFCURVE",
"429 673 CURVE"
);
},
{
closed = 1;
nodes = (
"133 394 LINE",
"159 417 OFFCURVE",
"201 445 OFFCURVE",
"254 445 CURVE SMOOTH",
"322 445 OFFCURVE",
"371 403 OFFCURVE",
"371 329 CURVE SMOOTH",
"371 292 LINE",
"340 299 OFFCURVE",
"303 303 OFFCURVE",
"270 303 CURVE SMOOTH",
"154 303 OFFCURVE",
"47 267 OFFCURVE",
"47 137 CURVE SMOOTH",
"47 71 OFFCURVE",
"97 -6 OFFCURVE",
"208 -6 CURVE SMOOTH",
"274 -6 OFFCURVE",
"330 23 OFFCURVE",
"371 68 CURVE",
"371 0 LINE",
"441 0 LINE",
"441 329 LINE SMOOTH",
"441 439 OFFCURVE",
"357 509 OFFCURVE",
"254 509 CURVE SMOOTH",
"165 509 OFFCURVE",
"109 464 OFFCURVE",
"84 436 CURVE"
);
},
{
closed = 1;
nodes = (
"317 246 OFFCURVE",
"348 242 OFFCURVE",
"371 237 CURVE",
"371 123 OFFCURVE",
"314 58 OFFCURVE",
"208 58 CURVE SMOOTH",
"145 58 OFFCURVE",
"117 96 OFFCURVE",
"117 137 CURVE SMOOTH",
"117 220 OFFCURVE",
"180 246 OFFCURVE",
"284 246 CURVE SMOOTH"
);
}
);
width = 516;
}
);
note = atilde;
rightKerningGroup = a;
unicode = 00E3;
},
{
glyphname = aring;
layers = (
{
hints = (
{
horizontal = 1;
place = "{-6, 64}";
type = Stem;
},
{
horizontal = 1;
place = "{246, 57}";
type = Stem;
},
{
horizontal = 1;
place = "{445, 82}";
type = Stem;
},
{
horizontal = 1;
place = "{708, 54}";
type = Stem;
},
{
place = "{47, 70}";
type = Stem;
},
{
place = "{371, 70}";
type = Stem;
},
{
place = "{119, 54}";
type = Stem;
},
{
place = "{353, 54}";
type = Stem;
}
);
layerId = "1041D826-7B5A-4F1A-81FD-3B5FB25AF0FC";
paths = (
{
closed = 1;
nodes = (
"133 394 LINE",
"159 417 OFFCURVE",
"201 445 OFFCURVE",
"254 445 CURVE SMOOTH",
"322 445 OFFCURVE",
"371 403 OFFCURVE",
"371 329 CURVE SMOOTH",
"371 292 LINE",
"340 299 OFFCURVE",
"303 303 OFFCURVE",
"270 303 CURVE SMOOTH",
"154 303 OFFCURVE",
"47 267 OFFCURVE",
"47 137 CURVE SMOOTH",
"47 71 OFFCURVE",
"97 -6 OFFCURVE",
"208 -6 CURVE SMOOTH",
"274 -6 OFFCURVE",
"330 23 OFFCURVE",
"371 68 CURVE",
"371 0 LINE",
"441 0 LINE",
"441 329 LINE SMOOTH",
"441 407 OFFCURVE",
"398 466 OFFCURVE",
"336 492 CURVE",
"379 517 OFFCURVE",
"407 564 OFFCURVE",
"407 617 CURVE SMOOTH",
"407 698 OFFCURVE",
"343 762 OFFCURVE",
"263 762 CURVE SMOOTH",
"183 762 OFFCURVE",
"119 698 OFFCURVE",
"119 617 CURVE SMOOTH",
"119 568 OFFCURVE",
"143 524 OFFCURVE",
"181 498 CURVE",
"134 483 OFFCURVE",
"101 455 OFFCURVE",
"84 436 CURVE"
);
},
{
closed = 1;
nodes = (
"313 708 OFFCURVE",
"353 667 OFFCURVE",
"353 617 CURVE SMOOTH",
"353 568 OFFCURVE",
"313 527 OFFCURVE",
"263 527 CURVE SMOOTH",
"213 527 OFFCURVE",
"173 568 OFFCURVE",
"173 617 CURVE SMOOTH",
"173 667 OFFCURVE",
"213 708 OFFCURVE",
"263 708 CURVE SMOOTH"
);
},
{
closed = 1;
nodes = (
"145 58 OFFCURVE",
"117 96 OFFCURVE",
"117 137 CURVE SMOOTH",
"117 220 OFFCURVE",
"180 246 OFFCURVE",
"284 246 CURVE SMOOTH",
"317 246 OFFCURVE",
"348 242 OFFCURVE",
"371 237 CURVE",
"371 123 OFFCURVE",
"314 58 OFFCURVE",
"208 58 CURVE SMOOTH"
);
}
);
width = 516;
}
);
note = aring;
rightKerningGroup = a;
unicode = 00E5;
},
{
glyphname = ccedilla;
layers = (
{
hints = (
{
horizontal = 1;
place = "{-11, 64}";
type = Stem;
},
{
horizontal = 1;
place = "{452, 64}";
type = Stem;
},
{
place = "{37, 70}";
type = Stem;
}
);
layerId = "1041D826-7B5A-4F1A-81FD-3B5FB25AF0FC";
paths = (
{
closed = 1;
nodes = (
"444 119 LINE",
"405 76 OFFCURVE",
"356 53 OFFCURVE",
"300 53 CURVE SMOOTH",
"195 53 OFFCURVE",
"107 141 OFFCURVE",
"107 253 CURVE SMOOTH",
"107 359 OFFCURVE",
"193 452 OFFCURVE",
"300 452 CURVE SMOOTH",
"351 452 OFFCURVE",
"396 433 OFFCURVE",
"434 396 CURVE",
"482 442 LINE",
"435 488 OFFCURVE",
"371 516 OFFCURVE",
"300 516 CURVE SMOOTH",
"151 516 OFFCURVE",
"37 392 OFFCURVE",
"37 253 CURVE SMOOTH",
"37 107 OFFCURVE",
"155 -11 OFFCURVE",
"300 -11 CURVE SMOOTH",
"378 -11 OFFCURVE",
"448 23 OFFCURVE",
"496 76 CURVE"
);
},
{
closed = 1;
nodes = (
"326 -56 LINE",
"273 -20 LINE",
"183 -152 LINE",
"236 -188 LINE"
);
}
);
width = 515;
}
);
note = ccedilla;
rightKerningGroup = scaron;
unicode = 00E7;
},
{
glyphname = eacute;
layers = (
{
hints = (
{
horizontal = 1;
place = "{-10, 64}";
type = Stem;
},
{
horizontal = 1;
place = "{247, 61}";
type = Stem;
},
{
horizontal = 1;
place = "{454, 64}";
type = Stem;
},
{
place = "{38, 70}";
type = Stem;
},
{
place = "{439, 68.04}";
type = Stem;
}
);
layerId = "1041D826-7B5A-4F1A-81FD-3B5FB25AF0FC";
paths = (
{
closed = 1;
nodes = (
"396 634 LINE",
"374 708 LINE",
"177 614 LINE",
"193 554 LINE"
);
},
{
closed = 1;
nodes = (
"448 154 LINE",
"417 92 OFFCURVE",
"363 54 OFFCURVE",
"291 54 CURVE SMOOTH",
"173 54 OFFCURVE",
"111 143 OFFCURVE",
"108 247 CURVE",
"502 247 LINE",
"516 348 OFFCURVE",
"500 402 OFFCURVE",
"465 444 CURVE SMOOTH",
"425 491 OFFCURVE",
"366 518 OFFCURVE",
"290 518 CURVE SMOOTH",
"123 518 OFFCURVE",
"38 386 OFFCURVE",
"38 254 CURVE SMOOTH",
"38 122 OFFCURVE",
"122 -10 OFFCURVE",
"291 -10 CURVE SMOOTH",
"392 -10 OFFCURVE",
"466 42 OFFCURVE",
"506 107 CURVE"
);
},
{
closed = 1;
nodes = (
"114 308 LINE",
"132 390 OFFCURVE",
"192 454 OFFCURVE",
"290 454 CURVE SMOOTH",
"384 454 OFFCURVE",
"449 395 OFFCURVE",
"439 308 CURVE"
);
}
);
width = 553;
}
);
note = eacute;
rightKerningGroup = e;
unicode = 00E9;
},
{
glyphname = egrave;
layers = (
{
hints = (
{
horizontal = 1;
place = "{-10, 64}";
type = Stem;
},
{
horizontal = 1;
place = "{247, 61}";
type = Stem;
},
{
horizontal = 1;
place = "{454, 64}";
type = Stem;
},
{
place = "{38, 70}";
type = Stem;
},
{
place = "{439, 68.04}";
type = Stem;
}
);
layerId = "1041D826-7B5A-4F1A-81FD-3B5FB25AF0FC";
paths = (
{
closed = 1;
nodes = (
"392 614 LINE",
"196 708 LINE",
"174 634 LINE",
"377 554 LINE"
);
},
{
closed = 1;
nodes = (
"448 154 LINE",
"417 92 OFFCURVE",
"363 54 OFFCURVE",
"291 54 CURVE SMOOTH",
"173 54 OFFCURVE",
"111 143 OFFCURVE",
"108 247 CURVE",
"502 247 LINE",
"516 348 OFFCURVE",
"500 402 OFFCURVE",
"465 444 CURVE SMOOTH",
"425 491 OFFCURVE",
"366 518 OFFCURVE",
"290 518 CURVE SMOOTH",
"123 518 OFFCURVE",
"38 386 OFFCURVE",
"38 254 CURVE SMOOTH",
"38 122 OFFCURVE",
"122 -10 OFFCURVE",
"291 -10 CURVE SMOOTH",
"392 -10 OFFCURVE",
"466 42 OFFCURVE",
"506 107 CURVE"
);
},
{
closed = 1;
nodes = (
"114 308 LINE",
"132 390 OFFCURVE",
"192 454 OFFCURVE",
"290 454 CURVE SMOOTH",
"384 454 OFFCURVE",
"449 395 OFFCURVE",
"439 308 CURVE"
);
}
);
width = 553;
}
);
note = egrave;
rightKerningGroup = e;
unicode = 00E8;
},
{
glyphname = ecircumflex;
layers = (
{
hints = (
{
horizontal = 1;
place = "{-10, 64}";
type = Stem;
},
{
horizontal = 1;
place = "{247, 61}";
type = Stem;
},
{
horizontal = 1;
place = "{454, 64}";
type = Stem;
},
{
place = "{38, 70}";
type = Stem;
},
{
place = "{439, 68.04}";
type = Stem;
}
);
layerId = "1041D826-7B5A-4F1A-81FD-3B5FB25AF0FC";
paths = (
{
closed = 1;
nodes = (
"80 614 LINE",
"96 554 LINE",
"277 625 LINE",
"458 554 LINE",
"474 614 LINE",
"277 708 LINE"
);
},
{
closed = 1;
nodes = (
"448 154 LINE",
"417 92 OFFCURVE",
"363 54 OFFCURVE",
"291 54 CURVE SMOOTH",
"173 54 OFFCURVE",
"111 143 OFFCURVE",
"108 247 CURVE",
"502 247 LINE",
"516 348 OFFCURVE",
"500 402 OFFCURVE",
"465 444 CURVE SMOOTH",
"425 491 OFFCURVE",
"366 518 OFFCURVE",
"290 518 CURVE SMOOTH",
"123 518 OFFCURVE",
"38 386 OFFCURVE",
"38 254 CURVE SMOOTH",
"38 122 OFFCURVE",
"122 -10 OFFCURVE",
"291 -10 CURVE SMOOTH",
"392 -10 OFFCURVE",
"466 42 OFFCURVE",
"506 107 CURVE"
);
},
{
closed = 1;
nodes = (
"114 308 LINE",
"132 390 OFFCURVE",
"192 454 OFFCURVE",
"290 454 CURVE SMOOTH",
"384 454 OFFCURVE",
"449 395 OFFCURVE",
"439 308 CURVE"
);
}
);
width = 553;
}
);
note = ecircumflex;
rightKerningGroup = e;
unicode = 00EA;
},
{
glyphname = edieresis;
layers = (
{
hints = (
{
horizontal = 1;
place = "{-10, 64}";
type = Stem;
},
{
horizontal = 1;
place = "{247, 61}";
type = Stem;
},
{
horizontal = 1;
place = "{454, 64}";
type = Stem;
},
{
place = "{38, 70}";
type = Stem;
},
{
place = "{439, 68.04}";
type = Stem;
}
);
layerId = "1041D826-7B5A-4F1A-81FD-3B5FB25AF0FC";
paths = (
{
closed = 1;
nodes = (
"92 634 OFFCURVE",
"113 655 OFFCURVE",
"138 655 CURVE SMOOTH",
"163 655 OFFCURVE",
"185 634 OFFCURVE",
"185 609 CURVE SMOOTH",
"185 584 OFFCURVE",
"163 562 OFFCURVE",
"138 562 CURVE SMOOTH",
"113 562 OFFCURVE",
"92 584 OFFCURVE",
"92 609 CURVE SMOOTH"
);
},
{
closed = 1;
nodes = (
"371 634 OFFCURVE",
"393 655 OFFCURVE",
"418 655 CURVE SMOOTH",
"443 655 OFFCURVE",
"464 634 OFFCURVE",
"464 609 CURVE SMOOTH",
"464 584 OFFCURVE",
"443 562 OFFCURVE",
"418 562 CURVE SMOOTH",
"393 562 OFFCURVE",
"371 584 OFFCURVE",
"371 609 CURVE SMOOTH"
);
},
{
closed = 1;
nodes = (
"448 154 LINE",
"417 92 OFFCURVE",
"363 54 OFFCURVE",
"291 54 CURVE SMOOTH",
"173 54 OFFCURVE",
"111 143 OFFCURVE",
"108 247 CURVE",
"502 247 LINE",
"516 348 OFFCURVE",
"500 402 OFFCURVE",
"465 444 CURVE SMOOTH",
"425 491 OFFCURVE",
"366 518 OFFCURVE",
"290 518 CURVE SMOOTH",
"123 518 OFFCURVE",
"38 386 OFFCURVE",
"38 254 CURVE SMOOTH",
"38 122 OFFCURVE",
"122 -10 OFFCURVE",
"291 -10 CURVE SMOOTH",
"392 -10 OFFCURVE",
"466 42 OFFCURVE",
"506 107 CURVE"
);
},
{
closed = 1;
nodes = (
"114 308 LINE",
"132 390 OFFCURVE",
"192 454 OFFCURVE",
"290 454 CURVE SMOOTH",
"384 454 OFFCURVE",
"449 395 OFFCURVE",
"439 308 CURVE"
);
}
);
width = 553;
}
);
note = edieresis;
rightKerningGroup = e;
unicode = 00EB;
},
{
glyphname = iacute;
layers = (
{
hints = (
{
horizontal = 1;
place = "{0, 708}";
type = Stem;
},
{
place = "{56, 64}";
type = Stem;
}
);
layerId = "1041D826-7B5A-4F1A-81FD-3B5FB25AF0FC";
paths = (
{
closed = 1;
nodes = (
"207 634 LINE",
"185 708 LINE",
"-12 614 LINE",
"4 554 LINE"
);
},
{
closed = 1;
nodes = (
"56 502 LINE",
"56 0 LINE",
"120 0 LINE",
"120 502 LINE"
);
}
);
width = 176;
}
);
leftKerningGroup = i;
note = iacute;
rightKerningGroup = i;
unicode = 00ED;
},
{
glyphname = igrave;
layers = (
{
hints = (
{
horizontal = 1;
place = "{0, 708}";
type = Stem;
},
{
place = "{56, 64}";
type = Stem;
}
);
layerId = "1041D826-7B5A-4F1A-81FD-3B5FB25AF0FC";
paths = (
{
closed = 1;
nodes = (
"203 614 LINE",
"6 708 LINE",
"-16 634 LINE",
"187 554 LINE"
);
},
{
closed = 1;
nodes = (
"56 502 LINE",
"56 0 LINE",
"120 0 LINE",
"120 502 LINE"
);
}
);
width = 176;
}
);
leftKerningGroup = i;
note = igrave;
rightKerningGroup = i;
unicode = 00EC;
},
{
glyphname = icircumflex;
layers = (
{
hints = (
{
horizontal = 1;
place = "{0, 708}";
type = Stem;
},
{
place = "{56, 64}";
type = Stem;
}
);
layerId = "1041D826-7B5A-4F1A-81FD-3B5FB25AF0FC";
paths = (
{
closed = 1;
nodes = (
"-109 614 LINE",
"-93 554 LINE",
"88 625 LINE",
"269 554 LINE",
"284 614 LINE",
"88 708 LINE"
);
},
{
closed = 1;
nodes = (
"56 502 LINE",
"56 0 LINE",
"120 0 LINE",
"120 502 LINE"
);
}
);
width = 176;
}
);
leftKerningGroup = i;
note = icircumflex;
rightKerningGroup = i;
unicode = 00EE;
},
{
glyphname = idieresis;
layers = (
{
hints = (
{
horizontal = 1;
place = "{0, 650}";
type = Stem;
},
{
place = "{56, 64}";
type = Stem;
}
);
layerId = "1041D826-7B5A-4F1A-81FD-3B5FB25AF0FC";
paths = (
{
closed = 1;
nodes = (
"-36 629 OFFCURVE",
"-14 650 OFFCURVE",
"11 650 CURVE SMOOTH",
"36 650 OFFCURVE",
"57 629 OFFCURVE",
"57 604 CURVE SMOOTH",
"57 579 OFFCURVE",
"36 557 OFFCURVE",
"11 557 CURVE SMOOTH",
"-14 557 OFFCURVE",
"-36 579 OFFCURVE",
"-36 604 CURVE SMOOTH"
);
},
{
closed = 1;
nodes = (
"119 627 OFFCURVE",
"140 649 OFFCURVE",
"165 649 CURVE SMOOTH",
"190 649 OFFCURVE",
"212 627 OFFCURVE",
"212 602 CURVE SMOOTH",
"212 577 OFFCURVE",
"190 556 OFFCURVE",
"165 556 CURVE SMOOTH",
"140 556 OFFCURVE",
"119 577 OFFCURVE",
"119 602 CURVE SMOOTH"
);
},
{
closed = 1;
nodes = (
"56 502 LINE",
"56 0 LINE",
"120 0 LINE",
"120 502 LINE"
);
}
);
width = 176;
}
);
leftKerningGroup = i;
note = idieresis;
rightKerningGroup = i;
unicode = 00EF;
},
{
glyphname = ntilde;
layers = (
{
hints = (
{
horizontal = 1;
place = "{450, 63}";
type = Stem;
},
{
horizontal = 1;
place = "{567, 63}";
type = Stem;
},
{
place = "{76, 70}";
type = Stem;
},
{
place = "{385.87, 62.23}";
type = Stem;
},
{
horizontal = 1;
place = "{627, 58}";
type = Stem;
},
{
place = "{432, 70}";
type = Stem;
}
);
layerId = "1041D826-7B5A-4F1A-81FD-3B5FB25AF0FC";
paths = (
{
closed = 1;
nodes = (
"382 673 LINE",
"387 653 OFFCURVE",
"392 630 OFFCURVE",
"368 630 CURVE SMOOTH",
"325 630 OFFCURVE",
"270 690 OFFCURVE",
"207 685 CURVE SMOOTH",
"163 681 OFFCURVE",
"128 645 OFFCURVE",
"114 598 CURVE",
"167 575 LINE",
"176 603 OFFCURVE",
"186 625 OFFCURVE",
"210 627 CURVE SMOOTH",
"259 631 OFFCURVE",
"312 567 OFFCURVE",
"373 567 CURVE SMOOTH",
"417 567 OFFCURVE",
"458 593 OFFCURVE",
"446 673 CURVE"
);
},
{
closed = 1;
nodes = (
"146 507 LINE",
"76 507 LINE",
"76 0 LINE",
"146 0 LINE",
"146 325 LINE",
"156 383 OFFCURVE",
"207 450 OFFCURVE",
"287 450 CURVE SMOOTH",
"374 450 OFFCURVE",
"432 391 OFFCURVE",
"432 281 CURVE SMOOTH",
"432 0 LINE",
"502 0 LINE",
"502 281 LINE SMOOTH",
"502 424 OFFCURVE",
"413 513 OFFCURVE",
"287 513 CURVE SMOOTH",
"231 513 OFFCURVE",
"182 487 OFFCURVE",
"146 444 CURVE"
);
}
);
width = 561;
}
);
leftKerningGroup = b;
note = ntilde;
rightKerningGroup = h;
unicode = 00F1;
},
{
glyphname = oacute;
layers = (
{
hints = (
{
horizontal = 1;
place = "{0, 64}";
type = Stem;
},
{
horizontal = 1;
place = "{454, 64}";
type = Stem;
},
{
place = "{37, 70}";
type = Stem;
},
{
place = "{483, 70}";
type = Stem;
}
);
layerId = "1041D826-7B5A-4F1A-81FD-3B5FB25AF0FC";
paths = (
{
closed = 1;
nodes = (
"416 632 LINE",
"393 707 LINE",
"197 613 LINE",
"212 553 LINE"
);
},
{
closed = 1;
nodes = (
"553 402 OFFCURVE",
"437 518 OFFCURVE",
"295 518 CURVE SMOOTH",
"154 518 OFFCURVE",
"37 402 OFFCURVE",
"37 259 CURVE SMOOTH",
"37 116 OFFCURVE",
"153 0 OFFCURVE",
"295 0 CURVE SMOOTH",
"438 0 OFFCURVE",
"553 117 OFFCURVE",
"553 259 CURVE SMOOTH"
);
},
{
closed = 1;
nodes = (
"483 151 OFFCURVE",
"397 64 OFFCURVE",
"295 64 CURVE SMOOTH",
"193 64 OFFCURVE",
"107 150 OFFCURVE",
"107 259 CURVE SMOOTH",
"107 368 OFFCURVE",
"194 454 OFFCURVE",
"295 454 CURVE SMOOTH",
"397 454 OFFCURVE",
"483 368 OFFCURVE",
"483 259 CURVE SMOOTH"
);
}
);
width = 591;
}
);
leftKerningGroup = c;
note = oacute;
rightKerningGroup = b;
unicode = 00F3;
},
{
glyphname = ograve;
layers = (
{
hints = (
{
horizontal = 1;
place = "{0, 64}";
type = Stem;
},
{
horizontal = 1;
place = "{454, 64}";
type = Stem;
},
{
place = "{37, 70}";
type = Stem;
},
{
place = "{483, 70}";
type = Stem;
}
);
layerId = "1041D826-7B5A-4F1A-81FD-3B5FB25AF0FC";
paths = (
{
closed = 1;
nodes = (
"412 613 LINE",
"215 707 LINE",
"193 632 LINE",
"396 553 LINE"
);
},
{
closed = 1;
nodes = (
"553 402 OFFCURVE",
"437 518 OFFCURVE",
"295 518 CURVE SMOOTH",
"154 518 OFFCURVE",
"37 402 OFFCURVE",
"37 259 CURVE SMOOTH",
"37 116 OFFCURVE",
"153 0 OFFCURVE",
"295 0 CURVE SMOOTH",
"438 0 OFFCURVE",
"553 117 OFFCURVE",
"553 259 CURVE SMOOTH"
);
},
{
closed = 1;
nodes = (
"483 151 OFFCURVE",
"397 64 OFFCURVE",
"295 64 CURVE SMOOTH",
"193 64 OFFCURVE",
"107 150 OFFCURVE",
"107 259 CURVE SMOOTH",
"107 368 OFFCURVE",
"194 454 OFFCURVE",
"295 454 CURVE SMOOTH",
"397 454 OFFCURVE",
"483 368 OFFCURVE",
"483 259 CURVE SMOOTH"
);
}
);
width = 591;
}
);
leftKerningGroup = c;
note = ograve;
rightKerningGroup = b;
unicode = 00F2;
},
{
glyphname = ocircumflex;
layers = (
{
hints = (
{
horizontal = 1;
place = "{0, 64}";
type = Stem;
},
{
horizontal = 1;
place = "{454, 64}";
type = Stem;
},
{
place = "{37, 70}";
type = Stem;
},
{
place = "{483, 70}";
type = Stem;
}
);
layerId = "1041D826-7B5A-4F1A-81FD-3B5FB25AF0FC";
paths = (
{
closed = 1;
nodes = (
"100 613 LINE",
"115 553 LINE",
"296 623 LINE",
"477 553 LINE",
"493 613 LINE",
"296 707 LINE"
);
},
{
closed = 1;
nodes = (
"553 402 OFFCURVE",
"437 518 OFFCURVE",
"295 518 CURVE SMOOTH",
"154 518 OFFCURVE",
"37 402 OFFCURVE",
"37 259 CURVE SMOOTH",
"37 116 OFFCURVE",
"153 0 OFFCURVE",
"295 0 CURVE SMOOTH",
"438 0 OFFCURVE",
"553 117 OFFCURVE",
"553 259 CURVE SMOOTH"
);
},
{
closed = 1;
nodes = (
"483 151 OFFCURVE",
"397 64 OFFCURVE",
"295 64 CURVE SMOOTH",
"193 64 OFFCURVE",
"107 150 OFFCURVE",
"107 259 CURVE SMOOTH",
"107 368 OFFCURVE",
"194 454 OFFCURVE",
"295 454 CURVE SMOOTH",
"397 454 OFFCURVE",
"483 368 OFFCURVE",
"483 259 CURVE SMOOTH"
);
}
);
width = 591;
}
);
leftKerningGroup = c;
note = ocircumflex;
rightKerningGroup = b;
unicode = 00F4;
},
{
glyphname = odieresis;
layers = (
{
hints = (
{
horizontal = 1;
place = "{0, 64}";
type = Stem;
},
{
horizontal = 1;
place = "{454, 64}";
type = Stem;
},
{
place = "{37, 70}";
type = Stem;
},
{
place = "{483, 70}";
type = Stem;
}
);
layerId = "1041D826-7B5A-4F1A-81FD-3B5FB25AF0FC";
paths = (
{
closed = 1;
nodes = (
"111 632 OFFCURVE",
"133 654 OFFCURVE",
"158 654 CURVE SMOOTH",
"183 654 OFFCURVE",
"204 632 OFFCURVE",
"204 607 CURVE SMOOTH",
"204 582 OFFCURVE",
"183 561 OFFCURVE",
"158 561 CURVE SMOOTH",
"133 561 OFFCURVE",
"111 582 OFFCURVE",
"111 607 CURVE SMOOTH"
);
},
{
closed = 1;
nodes = (
"391 632 OFFCURVE",
"412 654 OFFCURVE",
"437 654 CURVE SMOOTH",
"462 654 OFFCURVE",
"484 632 OFFCURVE",
"484 607 CURVE SMOOTH",
"484 582 OFFCURVE",
"462 561 OFFCURVE",
"437 561 CURVE SMOOTH",
"412 561 OFFCURVE",
"391 582 OFFCURVE",
"391 607 CURVE SMOOTH"
);
},
{
closed = 1;
nodes = (
"553 402 OFFCURVE",
"437 518 OFFCURVE",
"295 518 CURVE SMOOTH",
"154 518 OFFCURVE",
"37 402 OFFCURVE",
"37 259 CURVE SMOOTH",
"37 116 OFFCURVE",
"153 0 OFFCURVE",
"295 0 CURVE SMOOTH",
"438 0 OFFCURVE",
"553 117 OFFCURVE",
"553 259 CURVE SMOOTH"
);
},
{
closed = 1;
nodes = (
"483 151 OFFCURVE",
"397 64 OFFCURVE",
"295 64 CURVE SMOOTH",
"193 64 OFFCURVE",
"107 150 OFFCURVE",
"107 259 CURVE SMOOTH",
"107 368 OFFCURVE",
"194 454 OFFCURVE",
"295 454 CURVE SMOOTH",
"397 454 OFFCURVE",
"483 368 OFFCURVE",
"483 259 CURVE SMOOTH"
);
}
);
width = 591;
}
);
leftKerningGroup = c;
note = odieresis;
rightKerningGroup = b;
unicode = 00F6;
},
{
glyphname = otilde;
layers = (
{
hints = (
{
horizontal = 1;
place = "{0, 64}";
type = Stem;
},
{
horizontal = 1;
place = "{454, 64}";
type = Stem;
},
{
horizontal = 1;
place = "{565, 64}";
type = Stem;
},
{
place = "{37, 70}";
type = Stem;
},
{
place = "{402.37, 62.69}";
type = Stem;
},
{
place = "{483, 70}";
type = Stem;
},
{
horizontal = 1;
place = "{625, 58}";
type = Stem;
}
);
layerId = "1041D826-7B5A-4F1A-81FD-3B5FB25AF0FC";
paths = (
{
closed = 1;
nodes = (
"398 672 LINE",
"404 652 OFFCURVE",
"408 629 OFFCURVE",
"385 629 CURVE SMOOTH",
"342 629 OFFCURVE",
"287 689 OFFCURVE",
"223 683 CURVE SMOOTH",
"179 679 OFFCURVE",
"145 643 OFFCURVE",
"131 597 CURVE",
"184 574 LINE",
"192 601 OFFCURVE",
"203 623 OFFCURVE",
"227 625 CURVE SMOOTH",
"276 630 OFFCURVE",
"329 565 OFFCURVE",
"390 565 CURVE SMOOTH",
"433 565 OFFCURVE",
"475 591 OFFCURVE",
"463 672 CURVE"
);
},
{
closed = 1;
nodes = (
"553 402 OFFCURVE",
"437 518 OFFCURVE",
"295 518 CURVE SMOOTH",
"154 518 OFFCURVE",
"37 402 OFFCURVE",
"37 259 CURVE SMOOTH",
"37 116 OFFCURVE",
"153 0 OFFCURVE",
"295 0 CURVE SMOOTH",
"438 0 OFFCURVE",
"553 117 OFFCURVE",
"553 259 CURVE SMOOTH"
);
},
{
closed = 1;
nodes = (
"483 151 OFFCURVE",
"397 64 OFFCURVE",
"295 64 CURVE SMOOTH",
"193 64 OFFCURVE",
"107 150 OFFCURVE",
"107 259 CURVE SMOOTH",
"107 368 OFFCURVE",
"194 454 OFFCURVE",
"295 454 CURVE SMOOTH",
"397 454 OFFCURVE",
"483 368 OFFCURVE",
"483 259 CURVE SMOOTH"
);
}
);
width = 591;
}
);
leftKerningGroup = c;
note = otilde;
rightKerningGroup = b;
unicode = 00F5;
},
{
glyphname = uacute;
layers = (
{
hints = (
{
horizontal = 1;
place = "{-6, 64}";
type = Stem;
},
{
place = "{66, 70}";
type = Stem;
},
{
place = "{422, 70}";
type = Stem;
}
);
layerId = "1041D826-7B5A-4F1A-81FD-3B5FB25AF0FC";
paths = (
{
closed = 1;
nodes = (
"381 708 LINE",
"184 614 LINE",
"200 554 LINE",
"403 634 LINE"
);
},
{
closed = 1;
nodes = (
"422 0 LINE",
"492 0 LINE",
"492 507 LINE",
"422 507 LINE",
"422 182 LINE",
"412 124 OFFCURVE",
"361 58 OFFCURVE",
"281 58 CURVE SMOOTH",
"194 58 OFFCURVE",
"136 114 OFFCURVE",
"136 224 CURVE SMOOTH",
"136 507 LINE",
"66 507 LINE",
"66 224 LINE SMOOTH",
"66 82 OFFCURVE",
"155 -6 OFFCURVE",
"281 -6 CURVE SMOOTH",
"337 -6 OFFCURVE",
"386 20 OFFCURVE",
"422 63 CURVE"
);
}
);
width = 568;
}
);
leftKerningGroup = u;
note = uacute;
rightKerningGroup = a;
unicode = 00FA;
},
{
glyphname = ugrave;
layers = (
{
hints = (
{
horizontal = 1;
place = "{-6, 64}";
type = Stem;
},
{
place = "{66, 70}";
type = Stem;
},
{
place = "{422, 70}";
type = Stem;
}
);
layerId = "1041D826-7B5A-4F1A-81FD-3B5FB25AF0FC";
paths = (
{
closed = 1;
nodes = (
"203 708 LINE",
"181 634 LINE",
"384 554 LINE",
"399 614 LINE"
);
},
{
closed = 1;
nodes = (
"422 0 LINE",
"492 0 LINE",
"492 507 LINE",
"422 507 LINE",
"422 182 LINE",
"412 124 OFFCURVE",
"361 58 OFFCURVE",
"281 58 CURVE SMOOTH",
"194 58 OFFCURVE",
"136 114 OFFCURVE",
"136 224 CURVE SMOOTH",
"136 507 LINE",
"66 507 LINE",
"66 224 LINE SMOOTH",
"66 82 OFFCURVE",
"155 -6 OFFCURVE",
"281 -6 CURVE SMOOTH",
"337 -6 OFFCURVE",
"386 20 OFFCURVE",
"422 63 CURVE"
);
}
);
width = 568;
}
);
leftKerningGroup = u;
note = ugrave;
rightKerningGroup = a;
unicode = 00F9;
},
{
glyphname = ucircumflex;
layers = (
{
hints = (
{
horizontal = 1;
place = "{-6, 64}";
type = Stem;
},
{
place = "{66, 70}";
type = Stem;
},
{
place = "{422, 70}";
type = Stem;
}
);
layerId = "1041D826-7B5A-4F1A-81FD-3B5FB25AF0FC";
paths = (
{
closed = 1;
nodes = (
"284 708 LINE",
"87 614 LINE",
"103 554 LINE",
"284 625 LINE",
"465 554 LINE",
"481 614 LINE"
);
},
{
closed = 1;
nodes = (
"422 0 LINE",
"492 0 LINE",
"492 507 LINE",
"422 507 LINE",
"422 182 LINE",
"412 124 OFFCURVE",
"361 58 OFFCURVE",
"281 58 CURVE SMOOTH",
"194 58 OFFCURVE",
"136 114 OFFCURVE",
"136 224 CURVE SMOOTH",
"136 507 LINE",
"66 507 LINE",
"66 224 LINE SMOOTH",
"66 82 OFFCURVE",
"155 -6 OFFCURVE",
"281 -6 CURVE SMOOTH",
"337 -6 OFFCURVE",
"386 20 OFFCURVE",
"422 63 CURVE"
);
}
);
width = 568;
}
);
leftKerningGroup = u;
note = ucircumflex;
rightKerningGroup = a;
unicode = 00FB;
},
{
glyphname = udieresis;
layers = (
{
hints = (
{
horizontal = 1;
place = "{-6, 64}";
type = Stem;
},
{
horizontal = 1;
place = "{562, 93}";
type = Stem;
},
{
place = "{99, 93}";
type = Stem;
},
{
place = "{422, 70}";
type = Stem;
},
{
place = "{66, 70}";
type = Stem;
},
{
place = "{378, 93}";
type = Stem;
}
);
layerId = "1041D826-7B5A-4F1A-81FD-3B5FB25AF0FC";
paths = (
{
closed = 1;
nodes = (
"170 562 OFFCURVE",
"192 584 OFFCURVE",
"192 609 CURVE SMOOTH",
"192 634 OFFCURVE",
"170 655 OFFCURVE",
"145 655 CURVE SMOOTH",
"120 655 OFFCURVE",
"99 634 OFFCURVE",
"99 609 CURVE SMOOTH",
"99 584 OFFCURVE",
"120 562 OFFCURVE",
"145 562 CURVE SMOOTH"
);
},
{
closed = 1;
nodes = (
"450 562 OFFCURVE",
"471 584 OFFCURVE",
"471 609 CURVE SMOOTH",
"471 634 OFFCURVE",
"450 655 OFFCURVE",
"425 655 CURVE SMOOTH",
"400 655 OFFCURVE",
"378 634 OFFCURVE",
"378 609 CURVE SMOOTH",
"378 584 OFFCURVE",
"400 562 OFFCURVE",
"425 562 CURVE SMOOTH"
);
},
{
closed = 1;
nodes = (
"422 0 LINE",
"492 0 LINE",
"492 507 LINE",
"422 507 LINE",
"422 182 LINE",
"412 124 OFFCURVE",
"361 58 OFFCURVE",
"281 58 CURVE SMOOTH",
"194 58 OFFCURVE",
"136 114 OFFCURVE",
"136 224 CURVE SMOOTH",
"136 507 LINE",
"66 507 LINE",
"66 224 LINE SMOOTH",
"66 82 OFFCURVE",
"155 -6 OFFCURVE",
"281 -6 CURVE SMOOTH",
"337 -6 OFFCURVE",
"386 20 OFFCURVE",
"422 63 CURVE"
);
}
);
width = 568;
}
);
leftKerningGroup = u;
note = udieresis;
rightKerningGroup = a;
unicode = 00FC;
},
{
glyphname = Agrave;
layers = (
{
hints = (
{
horizontal = 1;
place = "{223, 64}";
type = Stem;
},
{
place = "{11, 630}";
type = Stem;
}
);
layerId = "1041D826-7B5A-4F1A-81FD-3B5FB25AF0FC";
paths = (
{
closed = 1;
nodes = (
"441 814 LINE",
"245 908 LINE",
"223 834 LINE",
"426 754 LINE"
);
},
{
closed = 1;
nodes = (
"11 0 LINE",
"85 0 LINE",
"173 223 LINE",
"479 223 LINE",
"566 0 LINE",
"641 0 LINE",
"366 700 LINE",
"285 700 LINE"
);
},
{
closed = 1;
nodes = (
"454 287 LINE",
"198 287 LINE",
"326 614 LINE"
);
}
);
width = 653;
}
);
note = Agrave;
rightKerningGroup = A;
unicode = 00C0;
},
{
glyphname = Atilde;
layers = (
{
hints = (
{
horizontal = 1;
place = "{223, 64}";
type = Stem;
},
{
horizontal = 1;
place = "{767, 63}";
type = Stem;
},
{
place = "{431.87, 62.23}";
type = Stem;
},
{
horizontal = 1;
place = "{827, 58}";
type = Stem;
}
);
layerId = "1041D826-7B5A-4F1A-81FD-3B5FB25AF0FC";
paths = (
{
closed = 1;
nodes = (
"428 873 LINE",
"433 853 OFFCURVE",
"438 830 OFFCURVE",
"414 830 CURVE SMOOTH",
"371 830 OFFCURVE",
"316 890 OFFCURVE",
"253 885 CURVE SMOOTH",
"209 881 OFFCURVE",
"174 845 OFFCURVE",
"160 798 CURVE",
"213 775 LINE",
"222 803 OFFCURVE",
"232 825 OFFCURVE",
"256 827 CURVE SMOOTH",
"305 831 OFFCURVE",
"358 767 OFFCURVE",
"419 767 CURVE SMOOTH",
"463 767 OFFCURVE",
"504 793 OFFCURVE",
"492 873 CURVE"
);
},
{
closed = 1;
nodes = (
"11 0 LINE",
"85 0 LINE",
"173 223 LINE",
"479 223 LINE",
"566 0 LINE",
"641 0 LINE",
"366 700 LINE",
"285 700 LINE"
);
},
{
closed = 1;
nodes = (
"454 287 LINE",
"198 287 LINE",
"326 614 LINE"
);
}
);
width = 653;
}
);
note = Atilde;
rightKerningGroup = A;
unicode = 00C3;
},
{
glyphname = Otilde;
layers = (
{
hints = (
{
horizontal = 1;
place = "{0, 64}";
type = Stem;
},
{
horizontal = 1;
place = "{638, 64}";
type = Stem;
},
{
horizontal = 1;
place = "{767, 63}";
type = Stem;
},
{
place = "{36, 70}";
type = Stem;
},
{
place = "{492.87, 62.23}";
type = Stem;
},
{
place = "{669, 70}";
type = Stem;
},
{
horizontal = 1;
place = "{827, 58}";
type = Stem;
}
);
layerId = "1041D826-7B5A-4F1A-81FD-3B5FB25AF0FC";
paths = (
{
closed = 1;
nodes = (
"489 873 LINE",
"494 853 OFFCURVE",
"499 830 OFFCURVE",
"475 830 CURVE SMOOTH",
"432 830 OFFCURVE",
"377 890 OFFCURVE",
"314 885 CURVE SMOOTH",
"270 881 OFFCURVE",
"235 845 OFFCURVE",
"221 798 CURVE",
"274 775 LINE",
"283 803 OFFCURVE",
"293 825 OFFCURVE",
"317 827 CURVE SMOOTH",
"366 831 OFFCURVE",
"419 767 OFFCURVE",
"480 767 CURVE SMOOTH",
"524 767 OFFCURVE",
"565 793 OFFCURVE",
"553 873 CURVE"
);
},
{
closed = 1;
nodes = (
"190 702 OFFCURVE",
"36 542 OFFCURVE",
"36 351 CURVE SMOOTH",
"36 157 OFFCURVE",
"193 0 OFFCURVE",
"387 0 CURVE SMOOTH",
"557 0 OFFCURVE",
"739 130 OFFCURVE",
"739 351 CURVE SMOOTH",
"739 545 OFFCURVE",
"581 702 OFFCURVE",
"387 702 CURVE SMOOTH"
);
},
{
closed = 1;
nodes = (
"541 638 OFFCURVE",
"669 511 OFFCURVE",
"669 351 CURVE SMOOTH",
"669 171 OFFCURVE",
"523 64 OFFCURVE",
"387 64 CURVE SMOOTH",
"234 64 OFFCURVE",
"106 192 OFFCURVE",
"106 351 CURVE SMOOTH",
"106 509 OFFCURVE",
"231 638 OFFCURVE",
"387 638 CURVE SMOOTH"
);
}
);
width = 775;
}
);
leftKerningGroup = C;
note = Otilde;
rightKerningGroup = O;
unicode = 00D5;
},
{
glyphname = ydieresis;
layers = (
{
hints = (
{
horizontal = 1;
place = "{-200, 855}";
type = Stem;
},
{
place = "{9, 579}";
type = Stem;
}
);
layerId = "1041D826-7B5A-4F1A-81FD-3B5FB25AF0FC";
paths = (
{
closed = 1;
nodes = (
"112 634 OFFCURVE",
"133 655 OFFCURVE",
"158 655 CURVE SMOOTH",
"183 655 OFFCURVE",
"205 634 OFFCURVE",
"205 609 CURVE SMOOTH",
"205 584 OFFCURVE",
"183 562 OFFCURVE",
"158 562 CURVE SMOOTH",
"133 562 OFFCURVE",
"112 584 OFFCURVE",
"112 609 CURVE SMOOTH"
);
},
{
closed = 1;
nodes = (
"391 634 OFFCURVE",
"413 655 OFFCURVE",
"438 655 CURVE SMOOTH",
"463 655 OFFCURVE",
"484 634 OFFCURVE",
"484 609 CURVE SMOOTH",
"484 584 OFFCURVE",
"463 562 OFFCURVE",
"438 562 CURVE SMOOTH",
"413 562 OFFCURVE",
"391 584 OFFCURVE",
"391 609 CURVE SMOOTH"
);
},
{
closed = 1;
nodes = (
"9 500 LINE",
"260 75 LINE",
"99 -200 LINE",
"179 -200 LINE",
"588 500 LINE",
"509 500 LINE",
"300 143 LINE",
"90 500 LINE"
);
}
);
width = 593;
}
);
leftKerningGroup = yacute;
note = ydieresis;
rightKerningGroup = yacute;
unicode = 00FF;
},
{
glyphname = Ydieresis;
layers = (
{
hints = (
{
horizontal = 1;
place = "{0, 855}";
type = Stem;
},
{
place = "{284, 70}";
type = Stem;
}
);
layerId = "1041D826-7B5A-4F1A-81FD-3B5FB25AF0FC";
paths = (
{
closed = 1;
nodes = (
"134 834 OFFCURVE",
"155 855 OFFCURVE",
"180 855 CURVE SMOOTH",
"205 855 OFFCURVE",
"227 834 OFFCURVE",
"227 809 CURVE SMOOTH",
"227 784 OFFCURVE",
"205 762 OFFCURVE",
"180 762 CURVE SMOOTH",
"155 762 OFFCURVE",
"134 784 OFFCURVE",
"134 809 CURVE SMOOTH"
);
},
{
closed = 1;
nodes = (
"413 834 OFFCURVE",
"435 855 OFFCURVE",
"460 855 CURVE SMOOTH",
"485 855 OFFCURVE",
"506 834 OFFCURVE",
"506 809 CURVE SMOOTH",
"506 784 OFFCURVE",
"485 762 OFFCURVE",
"460 762 CURVE SMOOTH",
"435 762 OFFCURVE",
"413 784 OFFCURVE",
"413 809 CURVE SMOOTH"
);
},
{
closed = 1;
nodes = (
"634 700 LINE",
"548 700 LINE",
"319 405 LINE",
"90 700 LINE",
"4 700 LINE",
"284 339 LINE",
"284 0 LINE",
"354 0 LINE",
"354 339 LINE"
);
}
);
width = 638;
}
);
leftKerningGroup = Yacute;
note = Ydieresis;
rightKerningGroup = Yacute;
unicode = 0178;
},
{
glyphname = Acircumflex;
layers = (
{
hints = (
{
horizontal = 1;
place = "{223, 64}";
type = Stem;
},
{
place = "{11, 630}";
type = Stem;
}
);
layerId = "1041D826-7B5A-4F1A-81FD-3B5FB25AF0FC";
paths = (
{
closed = 1;
nodes = (
"129 814 LINE",
"145 754 LINE",
"326 825 LINE",
"507 754 LINE",
"523 814 LINE",
"326 908 LINE"
);
},
{
closed = 1;
nodes = (
"11 0 LINE",
"85 0 LINE",
"173 223 LINE",
"479 223 LINE",
"566 0 LINE",
"641 0 LINE",
"366 700 LINE",
"285 700 LINE"
);
},
{
closed = 1;
nodes = (
"454 287 LINE",
"198 287 LINE",
"326 614 LINE"
);
}
);
width = 653;
}
);
note = Acircumflex;
rightKerningGroup = A;
unicode = 00C2;
},
{
glyphname = Ecircumflex;
layers = (
{
hints = (
{
horizontal = 1;
place = "{0, 64}";
type = Stem;
},
{
horizontal = 1;
place = "{322, 64}";
type = Stem;
},
{
horizontal = 1;
place = "{636, 64}";
type = Stem;
},
{
place = "{86, 70}";
type = Stem;
}
);
layerId = "1041D826-7B5A-4F1A-81FD-3B5FB25AF0FC";
paths = (
{
closed = 1;
nodes = (
"118 814 LINE",
"134 754 LINE",
"315 825 LINE",
"496 754 LINE",
"512 814 LINE",
"315 908 LINE"
);
},
{
closed = 1;
nodes = (
"86 700 LINE",
"86 0 LINE",
"539 0 LINE",
"539 64 LINE",
"156 64 LINE",
"156 322 LINE",
"464 322 LINE",
"464 386 LINE",
"156 386 LINE",
"156 636 LINE",
"538 636 LINE",
"538 700 LINE"
);
}
);
width = 570;
}
);
leftKerningGroup = B;
note = Ecircumflex;
rightKerningGroup = E;
unicode = 00CA;
},
{
glyphname = Aacute;
layers = (
{
hints = (
{
horizontal = 1;
place = "{223, 64}";
type = Stem;
},
{
place = "{11, 630}";
type = Stem;
}
);
layerId = "1041D826-7B5A-4F1A-81FD-3B5FB25AF0FC";
paths = (
{
closed = 1;
nodes = (
"445 834 LINE",
"423 908 LINE",
"226 814 LINE",
"242 754 LINE"
);
},
{
closed = 1;
nodes = (
"11 0 LINE",
"85 0 LINE",
"173 223 LINE",
"479 223 LINE",
"566 0 LINE",
"641 0 LINE",
"366 700 LINE",
"285 700 LINE"
);
},
{
closed = 1;
nodes = (
"454 287 LINE",
"198 287 LINE",
"326 614 LINE"
);
}
);
width = 653;
}
);
note = Aacute;
rightKerningGroup = A;
unicode = 00C1;
},
{
glyphname = Edieresis;
layers = (
{
hints = (
{
horizontal = 1;
place = "{0, 64}";
type = Stem;
},
{
horizontal = 1;
place = "{322, 64}";
type = Stem;
},
{
horizontal = 1;
place = "{636, 64}";
type = Stem;
},
{
horizontal = 1;
place = "{762, 93}";
type = Stem;
},
{
place = "{130, 93}";
type = Stem;
},
{
place = "{409, 93}";
type = Stem;
},
{
place = "{86, 70}";
type = Stem;
}
);
layerId = "1041D826-7B5A-4F1A-81FD-3B5FB25AF0FC";
paths = (
{
closed = 1;
nodes = (
"202 762 OFFCURVE",
"223 784 OFFCURVE",
"223 809 CURVE SMOOTH",
"223 834 OFFCURVE",
"202 855 OFFCURVE",
"177 855 CURVE SMOOTH",
"152 855 OFFCURVE",
"130 834 OFFCURVE",
"130 809 CURVE SMOOTH",
"130 784 OFFCURVE",
"152 762 OFFCURVE",
"177 762 CURVE SMOOTH"
);
},
{
closed = 1;
nodes = (
"481 762 OFFCURVE",
"502 784 OFFCURVE",
"502 809 CURVE SMOOTH",
"502 834 OFFCURVE",
"481 855 OFFCURVE",
"456 855 CURVE SMOOTH",
"431 855 OFFCURVE",
"409 834 OFFCURVE",
"409 809 CURVE SMOOTH",
"409 784 OFFCURVE",
"431 762 OFFCURVE",
"456 762 CURVE SMOOTH"
);
},
{
closed = 1;
nodes = (
"86 0 LINE",
"539 0 LINE",
"539 64 LINE",
"156 64 LINE",
"156 322 LINE",
"464 322 LINE",
"464 386 LINE",
"156 386 LINE",
"156 636 LINE",
"538 636 LINE",
"538 700 LINE",
"86 700 LINE"
);
}
);
width = 570;
}
);
leftKerningGroup = B;
note = Edieresis;
rightKerningGroup = E;
unicode = 00CB;
},
{
glyphname = Egrave;
layers = (
{
hints = (
{
horizontal = 1;
place = "{0, 64}";
type = Stem;
},
{
horizontal = 1;
place = "{322, 64}";
type = Stem;
},
{
horizontal = 1;
place = "{636, 64}";
type = Stem;
},
{
place = "{86, 70}";
type = Stem;
}
);
layerId = "1041D826-7B5A-4F1A-81FD-3B5FB25AF0FC";
paths = (
{
closed = 1;
nodes = (
"234 908 LINE",
"212 834 LINE",
"415 754 LINE",
"431 814 LINE"
);
},
{
closed = 1;
nodes = (
"86 0 LINE",
"539 0 LINE",
"539 64 LINE",
"156 64 LINE",
"156 322 LINE",
"464 322 LINE",
"464 386 LINE",
"156 386 LINE",
"156 636 LINE",
"538 636 LINE",
"538 700 LINE",
"86 700 LINE"
);
}
);
width = 570;
}
);
leftKerningGroup = B;
note = Egrave;
rightKerningGroup = E;
unicode = 00C8;
},
{
glyphname = Iacute;
layers = (
{
hints = (
{
horizontal = 1;
place = "{0, 908}";
type = Stem;
},
{
place = "{86, 70}";
type = Stem;
}
);
layerId = "1041D826-7B5A-4F1A-81FD-3B5FB25AF0FC";
paths = (
{
closed = 1;
nodes = (
"240 834 LINE",
"218 908 LINE",
"21 814 LINE",
"37 754 LINE"
);
},
{
closed = 1;
nodes = (
"86 700 LINE",
"86 0 LINE",
"156 0 LINE",
"156 700 LINE"
);
}
);
width = 242;
}
);
leftKerningGroup = I;
note = Iacute;
rightKerningGroup = I;
unicode = 00CD;
},
{
glyphname = Icircumflex;
layers = (
{
hints = (
{
horizontal = 1;
place = "{0, 908}";
type = Stem;
},
{
place = "{86, 70}";
type = Stem;
}
);
layerId = "1041D826-7B5A-4F1A-81FD-3B5FB25AF0FC";
paths = (
{
closed = 1;
nodes = (
"-76 814 LINE",
"-60 754 LINE",
"121 825 LINE",
"302 754 LINE",
"318 814 LINE",
"121 908 LINE"
);
},
{
closed = 1;
nodes = (
"86 700 LINE",
"86 0 LINE",
"156 0 LINE",
"156 700 LINE"
);
}
);
width = 242;
}
);
leftKerningGroup = I;
note = Icircumflex;
rightKerningGroup = I;
unicode = 00CE;
},
{
glyphname = Idieresis;
layers = (
{
hints = (
{
horizontal = 1;
place = "{0, 855}";
type = Stem;
},
{
place = "{86, 70}";
type = Stem;
}
);
layerId = "1041D826-7B5A-4F1A-81FD-3B5FB25AF0FC";
paths = (
{
closed = 1;
nodes = (
"-64 834 OFFCURVE",
"-43 855 OFFCURVE",
"-18 855 CURVE SMOOTH",
"7 855 OFFCURVE",
"29 834 OFFCURVE",
"29 809 CURVE SMOOTH",
"29 784 OFFCURVE",
"7 762 OFFCURVE",
"-18 762 CURVE SMOOTH",
"-43 762 OFFCURVE",
"-64 784 OFFCURVE",
"-64 809 CURVE SMOOTH"
);
},
{
closed = 1;
nodes = (
"215 834 OFFCURVE",
"237 855 OFFCURVE",
"262 855 CURVE SMOOTH",
"287 855 OFFCURVE",
"308 834 OFFCURVE",
"308 809 CURVE SMOOTH",
"308 784 OFFCURVE",
"287 762 OFFCURVE",
"262 762 CURVE SMOOTH",
"237 762 OFFCURVE",
"215 784 OFFCURVE",
"215 809 CURVE SMOOTH"
);
},
{
closed = 1;
nodes = (
"86 700 LINE",
"86 0 LINE",
"156 0 LINE",
"156 700 LINE"
);
}
);
width = 242;
}
);
leftKerningGroup = I;
note = Idieresis;
rightKerningGroup = I;
unicode = 00CF;
},
{
glyphname = Igrave;
layers = (
{
hints = (
{
horizontal = 1;
place = "{0, 908}";
type = Stem;
},
{
place = "{86, 70}";
type = Stem;
}
);
layerId = "1041D826-7B5A-4F1A-81FD-3B5FB25AF0FC";
paths = (
{
closed = 1;
nodes = (
"236 814 LINE",
"40 908 LINE",
"18 834 LINE",
"221 754 LINE"
);
},
{
closed = 1;
nodes = (
"86 700 LINE",
"86 0 LINE",
"156 0 LINE",
"156 700 LINE"
);
}
);
width = 242;
}
);
leftKerningGroup = I;
note = Igrave;
rightKerningGroup = I;
unicode = 00CC;
},
{
glyphname = Oacute;
layers = (
{
hints = (
{
horizontal = 1;
place = "{0, 64}";
type = Stem;
},
{
horizontal = 1;
place = "{638, 64}";
type = Stem;
},
{
place = "{36, 70}";
type = Stem;
},
{
place = "{669, 70}";
type = Stem;
}
);
layerId = "1041D826-7B5A-4F1A-81FD-3B5FB25AF0FC";
paths = (
{
closed = 1;
nodes = (
"506 834 LINE",
"484 908 LINE",
"287 814 LINE",
"303 754 LINE"
);
},
{
closed = 1;
nodes = (
"190 702 OFFCURVE",
"36 542 OFFCURVE",
"36 351 CURVE SMOOTH",
"36 157 OFFCURVE",
"193 0 OFFCURVE",
"387 0 CURVE SMOOTH",
"557 0 OFFCURVE",
"739 130 OFFCURVE",
"739 351 CURVE SMOOTH",
"739 545 OFFCURVE",
"581 702 OFFCURVE",
"387 702 CURVE SMOOTH"
);
},
{
closed = 1;
nodes = (
"541 638 OFFCURVE",
"669 511 OFFCURVE",
"669 351 CURVE SMOOTH",
"669 171 OFFCURVE",
"523 64 OFFCURVE",
"387 64 CURVE SMOOTH",
"234 64 OFFCURVE",
"106 192 OFFCURVE",
"106 351 CURVE SMOOTH",
"106 509 OFFCURVE",
"231 638 OFFCURVE",
"387 638 CURVE SMOOTH"
);
}
);
width = 774;
}
);
leftKerningGroup = C;
note = Oacute;
rightKerningGroup = O;
unicode = 00D3;
},
{
glyphname = Ocircumflex;
layers = (
{
hints = (
{
horizontal = 1;
place = "{0, 64}";
type = Stem;
},
{
horizontal = 1;
place = "{638, 64}";
type = Stem;
},
{
place = "{36, 70}";
type = Stem;
},
{
place = "{669, 70}";
type = Stem;
}
);
layerId = "1041D826-7B5A-4F1A-81FD-3B5FB25AF0FC";
paths = (
{
closed = 1;
nodes = (
"190 814 LINE",
"206 754 LINE",
"387 825 LINE",
"568 754 LINE",
"584 814 LINE",
"387 908 LINE"
);
},
{
closed = 1;
nodes = (
"190 702 OFFCURVE",
"36 542 OFFCURVE",
"36 351 CURVE SMOOTH",
"36 157 OFFCURVE",
"193 0 OFFCURVE",
"387 0 CURVE SMOOTH",
"557 0 OFFCURVE",
"739 130 OFFCURVE",
"739 351 CURVE SMOOTH",
"739 545 OFFCURVE",
"581 702 OFFCURVE",
"387 702 CURVE SMOOTH"
);
},
{
closed = 1;
nodes = (
"541 638 OFFCURVE",
"669 511 OFFCURVE",
"669 351 CURVE SMOOTH",
"669 171 OFFCURVE",
"523 64 OFFCURVE",
"387 64 CURVE SMOOTH",
"234 64 OFFCURVE",
"106 192 OFFCURVE",
"106 351 CURVE SMOOTH",
"106 509 OFFCURVE",
"231 638 OFFCURVE",
"387 638 CURVE SMOOTH"
);
}
);
width = 774;
}
);
leftKerningGroup = C;
note = Ocircumflex;
rightKerningGroup = O;
unicode = 00D4;
},
{
glyphname = Ograve;
layers = (
{
hints = (
{
horizontal = 1;
place = "{0, 64}";
type = Stem;
},
{
horizontal = 1;
place = "{638, 64}";
type = Stem;
},
{
place = "{36, 70}";
type = Stem;
},
{
place = "{669, 70}";
type = Stem;
}
);
layerId = "1041D826-7B5A-4F1A-81FD-3B5FB25AF0FC";
paths = (
{
closed = 1;
nodes = (
"502 814 LINE",
"306 908 LINE",
"284 834 LINE",
"487 754 LINE"
);
},
{
closed = 1;
nodes = (
"190 702 OFFCURVE",
"36 542 OFFCURVE",
"36 351 CURVE SMOOTH",
"36 157 OFFCURVE",
"193 0 OFFCURVE",
"387 0 CURVE SMOOTH",
"557 0 OFFCURVE",
"739 130 OFFCURVE",
"739 351 CURVE SMOOTH",
"739 545 OFFCURVE",
"581 702 OFFCURVE",
"387 702 CURVE SMOOTH"
);
},
{
closed = 1;
nodes = (
"541 638 OFFCURVE",
"669 511 OFFCURVE",
"669 351 CURVE SMOOTH",
"669 171 OFFCURVE",
"523 64 OFFCURVE",
"387 64 CURVE SMOOTH",
"234 64 OFFCURVE",
"106 192 OFFCURVE",
"106 351 CURVE SMOOTH",
"106 509 OFFCURVE",
"231 638 OFFCURVE",
"387 638 CURVE SMOOTH"
);
}
);
width = 774;
}
);
leftKerningGroup = C;
note = Ograve;
rightKerningGroup = O;
unicode = 00D2;
},
{
glyphname = Uacute;
layers = (
{
hints = (
{
horizontal = 1;
place = "{-9, 64}";
type = Stem;
},
{
place = "{69, 70}";
type = Stem;
},
{
place = "{527, 70}";
type = Stem;
}
);
layerId = "1041D826-7B5A-4F1A-81FD-3B5FB25AF0FC";
paths = (
{
closed = 1;
nodes = (
"450 834 LINE",
"428 908 LINE",
"231 814 LINE",
"247 754 LINE"
);
},
{
closed = 1;
nodes = (
"139 700 LINE",
"69 700 LINE",
"69 270 LINE",
"69 270 OFFCURVE",
"59 0 OFFCURVE",
"323 -9 CURVE SMOOTH",
"343 -9 LINE SMOOTH",
"607 0 OFFCURVE",
"597 270 OFFCURVE",
"597 270 CURVE",
"597 700 LINE",
"527 700 LINE",
"527 260 LINE SMOOTH",
"526 219 OFFCURVE",
"510 61 OFFCURVE",
"342 55 CURVE",
"324 55 LINE",
"147 62 OFFCURVE",
"139 236 OFFCURVE",
"139 265 CURVE SMOOTH"
);
}
);
width = 661;
}
);
leftKerningGroup = U;
note = Uacute;
rightKerningGroup = U;
unicode = 00DA;
},
{
glyphname = Ucircumflex;
layers = (
{
hints = (
{
horizontal = 1;
place = "{-9, 64}";
type = Stem;
},
{
place = "{69, 70}";
type = Stem;
},
{
place = "{527, 70}";
type = Stem;
}
);
layerId = "1041D826-7B5A-4F1A-81FD-3B5FB25AF0FC";
paths = (
{
closed = 1;
nodes = (
"134 814 LINE",
"150 754 LINE",
"331 825 LINE",
"512 754 LINE",
"528 814 LINE",
"331 908 LINE"
);
},
{
closed = 1;
nodes = (
"139 700 LINE",
"69 700 LINE",
"69 270 LINE",
"69 270 OFFCURVE",
"59 0 OFFCURVE",
"323 -9 CURVE SMOOTH",
"343 -9 LINE SMOOTH",
"607 0 OFFCURVE",
"597 270 OFFCURVE",
"597 270 CURVE",
"597 700 LINE",
"527 700 LINE",
"527 260 LINE SMOOTH",
"526 219 OFFCURVE",
"510 61 OFFCURVE",
"342 55 CURVE",
"324 55 LINE",
"147 62 OFFCURVE",
"139 236 OFFCURVE",
"139 265 CURVE SMOOTH"
);
}
);
width = 661;
}
);
leftKerningGroup = U;
note = Ucircumflex;
rightKerningGroup = U;
unicode = 00DB;
},
{
glyphname = Ugrave;
layers = (
{
hints = (
{
horizontal = 1;
place = "{-9, 64}";
type = Stem;
},
{
place = "{69, 70}";
type = Stem;
},
{
place = "{527, 70}";
type = Stem;
}
);
layerId = "1041D826-7B5A-4F1A-81FD-3B5FB25AF0FC";
paths = (
{
closed = 1;
nodes = (
"446 814 LINE",
"250 908 LINE",
"228 834 LINE",
"431 754 LINE"
);
},
{
closed = 1;
nodes = (
"139 700 LINE",
"69 700 LINE",
"69 270 LINE",
"69 270 OFFCURVE",
"59 0 OFFCURVE",
"323 -9 CURVE SMOOTH",
"343 -9 LINE SMOOTH",
"607 0 OFFCURVE",
"597 270 OFFCURVE",
"597 270 CURVE",
"597 700 LINE",
"527 700 LINE",
"527 260 LINE SMOOTH",
"526 219 OFFCURVE",
"510 61 OFFCURVE",
"342 55 CURVE",
"324 55 LINE",
"147 62 OFFCURVE",
"139 236 OFFCURVE",
"139 265 CURVE SMOOTH"
);
}
);
width = 661;
}
);
leftKerningGroup = U;
note = Ugrave;
rightKerningGroup = U;
unicode = 00D9;
},
{
glyphname = AE;
layers = (
{
hints = (
{
horizontal = 1;
place = "{0, 64}";
type = Stem;
},
{
horizontal = 1;
place = "{223, 64}";
type = Stem;
},
{
horizontal = 1;
place = "{322, 64}";
type = Stem;
},
{
horizontal = 1;
place = "{636, 64}";
type = Stem;
},
{
place = "{574, 70}";
type = Stem;
}
);
layerId = "1041D826-7B5A-4F1A-81FD-3B5FB25AF0FC";
paths = (
{
closed = 1;
nodes = (
"574 223 LINE",
"574 0 LINE",
"1027 0 LINE",
"1027 64 LINE",
"644 64 LINE",
"644 322 LINE",
"952 322 LINE",
"952 386 LINE",
"644 386 LINE",
"644 636 LINE",
"1027 636 LINE",
"1027 700 LINE",
"574 700 LINE",
"28 0 LINE",
"118 0 LINE",
"291 223 LINE"
);
},
{
closed = 1;
nodes = (
"574 287 LINE",
"341 287 LINE",
"574 586 LINE"
);
}
);
width = 1102;
}
);
note = AE;
rightKerningGroup = scaron;
unicode = 00C6;
},
{
glyphname = Eth;
layers = (
{
hints = (
{
horizontal = 1;
place = "{0, 64}";
type = Stem;
},
{
horizontal = 1;
place = "{295, 62}";
type = Stem;
},
{
horizontal = 1;
place = "{636, 64}";
type = Stem;
},
{
place = "{176, 70}";
type = Stem;
},
{
place = "{599, 70}";
type = Stem;
}
);
layerId = "1041D826-7B5A-4F1A-81FD-3B5FB25AF0FC";
paths = (
{
closed = 1;
nodes = (
"176 700 LINE",
"176 357 LINE",
"20 357 LINE",
"20 295 LINE",
"176 295 LINE",
"176 0 LINE",
"318 0 LINE SMOOTH",
"555 0 OFFCURVE",
"669 149 OFFCURVE",
"669 350 CURVE SMOOTH",
"669 553 OFFCURVE",
"562 700 OFFCURVE",
"313 700 CURVE SMOOTH"
);
},
{
closed = 1;
nodes = (
"246 64 LINE",
"246 295 LINE",
"386 295 LINE",
"386 357 LINE",
"246 357 LINE",
"246 636 LINE",
"313 636 LINE SMOOTH",
"517 636 OFFCURVE",
"599 526 OFFCURVE",
"599 350 CURVE SMOOTH",
"599 177 OFFCURVE",
"511 64 OFFCURVE",
"318 64 CURVE SMOOTH"
);
}
);
width = 721;
}
);
note = Eth;
rightKerningGroup = D;
unicode = 00D0;
},
{
glyphname = Oslash;
layers = (
{
hints = (
{
horizontal = 1;
place = "{0, 64}";
type = Stem;
},
{
horizontal = 1;
place = "{638, 64}";
type = Stem;
},
{
place = "{36, 70}";
type = Stem;
},
{
place = "{669, 70}";
type = Stem;
}
);
layerId = "1041D826-7B5A-4F1A-81FD-3B5FB25AF0FC";
paths = (
{
closed = 1;
nodes = (
"546 766 LINE",
"485 785 LINE",
"458 695 LINE",
"435 700 OFFCURVE",
"411 702 OFFCURVE",
"387 702 CURVE SMOOTH",
"190 702 OFFCURVE",
"36 542 OFFCURVE",
"36 351 CURVE SMOOTH",
"36 204 OFFCURVE",
"127 77 OFFCURVE",
"256 25 CURVE",
"230 -59 LINE",
"292 -77 LINE",
"317 7 LINE",
"340 2 OFFCURVE",
"363 0 OFFCURVE",
"387 0 CURVE SMOOTH",
"557 0 OFFCURVE",
"739 130 OFFCURVE",
"739 351 CURVE SMOOTH",
"739 499 OFFCURVE",
"648 625 OFFCURVE",
"519 677 CURVE"
);
},
{
closed = 1;
nodes = (
"275 88 LINE",
"176 132 OFFCURVE",
"106 233 OFFCURVE",
"106 351 CURVE SMOOTH",
"106 509 OFFCURVE",
"231 638 OFFCURVE",
"387 638 CURVE SMOOTH",
"405 638 OFFCURVE",
"422 637 OFFCURVE",
"439 634 CURVE"
);
},
{
closed = 1;
nodes = (
"500 614 LINE",
"599 570 OFFCURVE",
"669 469 OFFCURVE",
"669 351 CURVE SMOOTH",
"669 171 OFFCURVE",
"523 64 OFFCURVE",
"387 64 CURVE SMOOTH",
"370 64 OFFCURVE",
"352 66 OFFCURVE",
"336 69 CURVE"
);
}
);
width = 774;
}
);
leftKerningGroup = C;
note = Oslash;
rightKerningGroup = O;
unicode = 00D8;
},
{
glyphname = OE;
layers = (
{
hints = (
{
horizontal = 1;
place = "{0, 64}";
type = Stem;
},
{
horizontal = 1;
place = "{322, 64}";
type = Stem;
},
{
horizontal = 1;
place = "{636, 64}";
type = Stem;
},
{
place = "{36, 70}";
type = Stem;
},
{
place = "{581, 70}";
type = Stem;
}
);
layerId = "1041D826-7B5A-4F1A-81FD-3B5FB25AF0FC";
paths = (
{
closed = 1;
nodes = (
"581 0 LINE",
"1034 0 LINE",
"1034 64 LINE",
"651 64 LINE",
"651 322 LINE",
"959 322 LINE",
"959 386 LINE",
"651 386 LINE",
"651 636 LINE",
"1033 636 LINE",
"1033 700 LINE",
"581 700 LINE",
"581 644 LINE",
"525 681 OFFCURVE",
"459 702 OFFCURVE",
"387 702 CURVE SMOOTH",
"190 702 OFFCURVE",
"36 542 OFFCURVE",
"36 351 CURVE SMOOTH",
"36 157 OFFCURVE",
"193 0 OFFCURVE",
"387 0 CURVE SMOOTH",
"454 0 OFFCURVE",
"522 20 OFFCURVE",
"581 58 CURVE"
);
},
{
closed = 1;
nodes = (
"581 142 LINE",
"527 91 OFFCURVE",
"456 64 OFFCURVE",
"387 64 CURVE SMOOTH",
"234 64 OFFCURVE",
"106 192 OFFCURVE",
"106 351 CURVE SMOOTH",
"106 509 OFFCURVE",
"231 638 OFFCURVE",
"387 638 CURVE SMOOTH",
"462 638 OFFCURVE",
"530 608 OFFCURVE",
"581 559 CURVE"
);
}
);
width = 1065;
}
);
leftKerningGroup = C;
note = OE;
rightKerningGroup = E;
unicode = 0152;
},
{
glyphname = Thorn;
layers = (
{
hints = (
{
horizontal = 1;
place = "{164, 64}";
type = Stem;
},
{
horizontal = 1;
place = "{533, 64}";
type = Stem;
},
{
place = "{73, 70}";
type = Stem;
},
{
place = "{479, 70}";
type = Stem;
}
);
layerId = "1041D826-7B5A-4F1A-81FD-3B5FB25AF0FC";
paths = (
{
closed = 1;
nodes = (
"143 597 LINE",
"143 694 LINE",
"73 694 LINE",
"73 0 LINE",
"143 0 LINE",
"143 164 LINE",
"330 164 LINE SMOOTH",
"451 164 OFFCURVE",
"549 262 OFFCURVE",
"549 381 CURVE SMOOTH",
"549 438 OFFCURVE",
"524 495 OFFCURVE",
"485 534 CURVE SMOOTH",
"448 570 OFFCURVE",
"389 597 OFFCURVE",
"330 597 CURVE SMOOTH"
);
},
{
closed = 1;
nodes = (
"143 228 LINE",
"143 533 LINE",
"330 533 LINE SMOOTH",
"371 533 OFFCURVE",
"407 517 OFFCURVE",
"435 488 CURVE",
"462 462 OFFCURVE",
"479 423 OFFCURVE",
"479 381 CURVE SMOOTH",
"479 295 OFFCURVE",
"412 228 OFFCURVE",
"330 228 CURVE SMOOTH"
);
}
);
width = 600;
}
);
note = Thorn;
rightKerningGroup = scaron;
unicode = 00DE;
},
{
glyphname = ae;
layers = (
{
hints = (
{
horizontal = 1;
place = "{-10, 64}";
type = Stem;
},
{
horizontal = 1;
place = "{247, 61}";
type = Stem;
},
{
horizontal = 1;
place = "{454, 64}";
type = Stem;
},
{
place = "{47, 70}";
type = Stem;
},
{
place = "{371, 74}";
type = Stem;
},
{
place = "{776, 67.88}";
type = Stem;
},
{
horizontal = 1;
place = "{-6, 64}";
type = Stem;
},
{
horizontal = 1;
place = "{246, 57}";
type = Stem;
},
{
horizontal = 1;
place = "{445, 64}";
type = Stem;
}
);
layerId = "1041D826-7B5A-4F1A-81FD-3B5FB25AF0FC";
paths = (
{
closed = 1;
nodes = (
"839 247 LINE",
"853 348 OFFCURVE",
"836 402 OFFCURVE",
"801 444 CURVE SMOOTH",
"762 491 OFFCURVE",
"702 518 OFFCURVE",
"626 518 CURVE SMOOTH",
"531 518 OFFCURVE",
"463 475 OFFCURVE",
"421 413 CURVE",
"391 473 OFFCURVE",
"327 509 OFFCURVE",
"254 509 CURVE SMOOTH",
"165 509 OFFCURVE",
"109 464 OFFCURVE",
"84 436 CURVE",
"133 394 LINE",
"159 417 OFFCURVE",
"201 445 OFFCURVE",
"254 445 CURVE SMOOTH",
"322 445 OFFCURVE",
"371 403 OFFCURVE",
"371 329 CURVE SMOOTH",
"371 292 LINE",
"340 299 OFFCURVE",
"303 303 OFFCURVE",
"270 303 CURVE SMOOTH",
"154 303 OFFCURVE",
"47 267 OFFCURVE",
"47 137 CURVE SMOOTH",
"47 71 OFFCURVE",
"97 -6 OFFCURVE",
"208 -6 CURVE SMOOTH",
"274 -6 OFFCURVE",
"337 14 OFFCURVE",
"380 62 CURVE SMOOTH",
"394 78 OFFCURVE",
"404 93 OFFCURVE",
"412 109 CURVE",
"452 40 OFFCURVE",
"524 -10 OFFCURVE",
"628 -10 CURVE SMOOTH",
"728 -10 OFFCURVE",
"802 42 OFFCURVE",
"842 107 CURVE",
"785 154 LINE",
"754 92 OFFCURVE",
"699 54 OFFCURVE",
"628 54 CURVE SMOOTH",
"509 54 OFFCURVE",
"447 143 OFFCURVE",
"445 247 CURVE"
);
},
{
closed = 1;
nodes = (
"450 308 LINE",
"468 390 OFFCURVE",
"528 454 OFFCURVE",
"626 454 CURVE SMOOTH",
"720 454 OFFCURVE",
"786 395 OFFCURVE",
"776 308 CURVE"
);
},
{
closed = 1;
nodes = (
"145 58 OFFCURVE",
"117 96 OFFCURVE",
"117 137 CURVE SMOOTH",
"117 220 OFFCURVE",
"180 246 OFFCURVE",
"284 246 CURVE SMOOTH",
"317 246 OFFCURVE",
"348 242 OFFCURVE",
"371 237 CURVE",
"371 123 OFFCURVE",
"314 58 OFFCURVE",
"208 58 CURVE SMOOTH"
);
}
);
width = 890;
}
);
note = ae;
rightKerningGroup = e;
unicode = 00E6;
},
{
glyphname = eth;
layers = (
{
hints = (
{
horizontal = 1;
place = "{-9, 64}";
type = Stem;
},
{
horizontal = 1;
place = "{403, 64}";
type = Stem;
},
{
horizontal = 1;
place = "{674, 64}";
type = Stem;
},
{
place = "{93, 70}";
type = Stem;
},
{
place = "{425, 70}";
type = Stem;
}
);
layerId = "1041D826-7B5A-4F1A-81FD-3B5FB25AF0FC";
paths = (
{
closed = 1;
nodes = (
"395 744 LINE",
"342 786 LINE",
"264 696 LINE",
"213 723 OFFCURVE",
"155 738 OFFCURVE",
"90 738 CURVE",
"90 674 LINE",
"137 674 OFFCURVE",
"180 664 OFFCURVE",
"219 644 CURVE",
"179 598 LINE",
"232 556 LINE",
"276 607 LINE",
"326 566 OFFCURVE",
"364 508 OFFCURVE",
"390 439 CURVE",
"361 457 OFFCURVE",
"329 467 OFFCURVE",
"294 467 CURVE SMOOTH",
"239 467 OFFCURVE",
"190 442 OFFCURVE",
"154 401 CURVE SMOOTH",
"116 357 OFFCURVE",
"93 296 OFFCURVE",
"93 229 CURVE SMOOTH",
"93 98 OFFCURVE",
"183 -9 OFFCURVE",
"294 -9 CURVE SMOOTH",
"350 -9 OFFCURVE",
"402 19 OFFCURVE",
"438 63 CURVE SMOOTH",
"473 106 OFFCURVE",
"495 165 OFFCURVE",
"495 229 CURVE SMOOTH",
"495 407 OFFCURVE",
"432 567 OFFCURVE",
"320 658 CURVE"
);
},
{
closed = 1;
nodes = (
"357 70 OFFCURVE",
"327 55 OFFCURVE",
"294 55 CURVE SMOOTH",
"227 55 OFFCURVE",
"163 129 OFFCURVE",
"163 229 CURVE SMOOTH",
"163 282 OFFCURVE",
"181 329 OFFCURVE",
"207 358 CURVE SMOOTH",
"234 389 OFFCURVE",
"262 403 OFFCURVE",
"294 403 CURVE SMOOTH",
"361 403 OFFCURVE",
"425 329 OFFCURVE",
"425 229 CURVE SMOOTH",
"425 177 OFFCURVE",
"409 135 OFFCURVE",
"384 104 CURVE SMOOTH"
);
}
);
width = 600;
}
);
note = eth;
rightKerningGroup = scaron;
unicode = 00F0;
},
{
glyphname = dotlessi;
layers = (
{
hints = (
{
horizontal = 1;
place = "{0, 502}";
type = Stem;
},
{
place = "{56, 64}";
type = Stem;
}
);
layerId = "1041D826-7B5A-4F1A-81FD-3B5FB25AF0FC";
paths = (
{
closed = 1;
nodes = (
"56 0 LINE",
"120 0 LINE",
"120 502 LINE",
"56 502 LINE"
);
}
);
width = 176;
}
);
leftKerningGroup = i;
note = dotlessi;
rightKerningGroup = i;
unicode = 0131;
},
{
glyphname = oslash;
layers = (
{
hints = (
{
horizontal = 1;
place = "{0, 64}";
type = Stem;
},
{
horizontal = 1;
place = "{454, 64}";
type = Stem;
},
{
place = "{37, 70}";
type = Stem;
},
{
place = "{483, 70}";
type = Stem;
}
);
layerId = "1041D826-7B5A-4F1A-81FD-3B5FB25AF0FC";
paths = (
{
closed = 1;
nodes = (
"454 624 LINE",
"394 640 LINE",
"352 512 LINE",
"334 516 OFFCURVE",
"315 518 OFFCURVE",
"295 518 CURVE SMOOTH",
"154 518 OFFCURVE",
"37 402 OFFCURVE",
"37 259 CURVE SMOOTH",
"37 153 OFFCURVE",
"100 62 OFFCURVE",
"191 22 CURVE",
"147 -109 LINE",
"207 -125 LINE",
"249 4 LINE",
"264 1 OFFCURVE",
"279 0 OFFCURVE",
"295 0 CURVE SMOOTH",
"438 0 OFFCURVE",
"553 117 OFFCURVE",
"553 259 CURVE SMOOTH",
"553 361 OFFCURVE",
"495 448 OFFCURVE",
"410 491 CURVE"
);
},
{
closed = 1;
nodes = (
"211 85 LINE",
"150 117 OFFCURVE",
"107 182 OFFCURVE",
"107 259 CURVE SMOOTH",
"107 368 OFFCURVE",
"194 454 OFFCURVE",
"295 454 CURVE SMOOTH",
"307 454 OFFCURVE",
"320 453 OFFCURVE",
"332 450 CURVE"
);
},
{
closed = 1;
nodes = (
"389 427 LINE",
"445 394 OFFCURVE",
"483 331 OFFCURVE",
"483 259 CURVE SMOOTH",
"483 151 OFFCURVE",
"397 64 OFFCURVE",
"295 64 CURVE SMOOTH",
"286 64 OFFCURVE",
"278 65 OFFCURVE",
"270 66 CURVE"
);
}
);
width = 591;
}
);
leftKerningGroup = c;
note = oslash;
rightKerningGroup = b;
unicode = 00F8;
},
{
glyphname = oe;
layers = (
{
hints = (
{
horizontal = 1;
place = "{0, 64}";
type = Stem;
},
{
horizontal = 1;
place = "{247, 61}";
type = Stem;
},
{
horizontal = 1;
place = "{454, 64}";
type = Stem;
},
{
place = "{37, 70}";
type = Stem;
},
{
place = "{483, 73}";
type = Stem;
},
{
place = "{887, 68.04}";
type = Stem;
},
{
horizontal = 1;
place = "{-10, 64}";
type = Stem;
}
);
layerId = "1041D826-7B5A-4F1A-81FD-3B5FB25AF0FC";
paths = (
{
closed = 1;
nodes = (
"950 247 LINE",
"964 348 OFFCURVE",
"948 402 OFFCURVE",
"913 444 CURVE SMOOTH",
"873 491 OFFCURVE",
"813 518 OFFCURVE",
"738 518 CURVE SMOOTH",
"630 518 OFFCURVE",
"557 463 OFFCURVE",
"518 389 CURVE",
"474 466 OFFCURVE",
"390 518 OFFCURVE",
"295 518 CURVE SMOOTH",
"154 518 OFFCURVE",
"37 402 OFFCURVE",
"37 259 CURVE SMOOTH",
"37 116 OFFCURVE",
"153 0 OFFCURVE",
"295 0 CURVE SMOOTH",
"389 0 OFFCURVE",
"470 50 OFFCURVE",
"515 124 CURVE",
"553 47 OFFCURVE",
"628 -10 OFFCURVE",
"739 -10 CURVE SMOOTH",
"840 -10 OFFCURVE",
"914 42 OFFCURVE",
"954 107 CURVE",
"896 154 LINE",
"865 92 OFFCURVE",
"811 54 OFFCURVE",
"739 54 CURVE SMOOTH",
"621 54 OFFCURVE",
"559 143 OFFCURVE",
"556 247 CURVE"
);
},
{
closed = 1;
nodes = (
"193 64 OFFCURVE",
"107 150 OFFCURVE",
"107 259 CURVE SMOOTH",
"107 368 OFFCURVE",
"194 454 OFFCURVE",
"295 454 CURVE SMOOTH",
"397 454 OFFCURVE",
"483 368 OFFCURVE",
"483 259 CURVE SMOOTH",
"483 151 OFFCURVE",
"397 64 OFFCURVE",
"295 64 CURVE SMOOTH"
);
},
{
closed = 1;
nodes = (
"562 308 LINE",
"580 390 OFFCURVE",
"640 454 OFFCURVE",
"738 454 CURVE SMOOTH",
"832 454 OFFCURVE",
"897 395 OFFCURVE",
"887 308 CURVE"
);
}
);
width = 1001;
}
);
leftKerningGroup = c;
note = oe;
rightKerningGroup = e;
unicode = 0153;
},
{
glyphname = thorn;
layers = (
{
hints = (
{
horizontal = 1;
place = "{-8, 70}";
type = Stem;
},
{
horizontal = 1;
place = "{434, 70}";
type = Stem;
},
{
place = "{88, 70}";
type = Stem;
},
{
place = "{460, 70}";
type = Stem;
}
);
layerId = "1041D826-7B5A-4F1A-81FD-3B5FB25AF0FC";
paths = (
{
closed = 1;
nodes = (
"158 740 LINE",
"88 740 LINE",
"88 -263 LINE",
"158 -263 LINE",
"158 25 LINE",
"190 6 OFFCURVE",
"232 -8 OFFCURVE",
"281 -8 CURVE SMOOTH",
"424 -8 OFFCURVE",
"530 109 OFFCURVE",
"530 247 CURVE SMOOTH",
"530 386 OFFCURVE",
"424 504 OFFCURVE",
"281 504 CURVE SMOOTH",
"235 504 OFFCURVE",
"193 490 OFFCURVE",
"158 467 CURVE"
);
},
{
closed = 1;
nodes = (
"158 373 LINE",
"187 411 OFFCURVE",
"231 434 OFFCURVE",
"281 434 CURVE SMOOTH",
"383 434 OFFCURVE",
"460 350 OFFCURVE",
"460 247 CURVE SMOOTH",
"460 145 OFFCURVE",
"383 62 OFFCURVE",
"281 62 CURVE SMOOTH",
"225 62 OFFCURVE",
"178 91 OFFCURVE",
"158 111 CURVE"
);
}
);
width = 600;
}
);
note = thorn;
rightKerningGroup = scaron;
unicode = 00FE;
},
{
glyphname = germandbls;
layers = (
{
hints = (
{
horizontal = 1;
place = "{0, 70}";
type = Stem;
},
{
horizontal = 1;
place = "{341, 70}";
type = Stem;
},
{
horizontal = 1;
place = "{657, 70}";
type = Stem;
},
{
place = "{55, 70}";
type = Stem;
},
{
place = "{448, 70}";
type = Stem;
},
{
place = "{404, 70}";
type = Stem;
}
);
layerId = "1041D826-7B5A-4F1A-81FD-3B5FB25AF0FC";
paths = (
{
closed = 1;
nodes = (
"55 0 LINE",
"125 0 LINE",
"125 510 LINE SMOOTH",
"125 559 OFFCURVE",
"132 657 OFFCURVE",
"262 657 CURVE SMOOTH",
"387 657 OFFCURVE",
"404 580 OFFCURVE",
"404 532 CURVE SMOOTH",
"404 485 OFFCURVE",
"383 415 OFFCURVE",
"308 412 CURVE",
"302 411 LINE",
"273 411 LINE",
"273 341 LINE",
"302 341 LINE SMOOTH",
"403 341 OFFCURVE",
"448 281 OFFCURVE",
"448 206 CURVE SMOOTH",
"448 131 OFFCURVE",
"387 70 OFFCURVE",
"312 70 CURVE SMOOTH",
"285 70 OFFCURVE",
"263 77 OFFCURVE",
"241 90 CURVE",
"205 30 LINE",
"236 11 OFFCURVE",
"273 0 OFFCURVE",
"312 0 CURVE SMOOTH",
"426 0 OFFCURVE",
"518 92 OFFCURVE",
"518 206 CURVE SMOOTH",
"518 282 OFFCURVE",
"476 349 OFFCURVE",
"414 384 CURVE",
"459 428 OFFCURVE",
"474 494 OFFCURVE",
"474 532 CURVE SMOOTH",
"474 589 OFFCURVE",
"447 727 OFFCURVE",
"262 727 CURVE SMOOTH",
"67 727 OFFCURVE",
"55 562 OFFCURVE",
"55 510 CURVE SMOOTH"
);
}
);
width = 600;
}
);
note = germandbls;
rightKerningGroup = scaron;
unicode = 00DF;
},
{
glyphname = fi;
layers = (
{
hints = (
{
horizontal = 1;
place = "{443, 64}";
type = Stem;
},
{
horizontal = 1;
place = "{651, 64}";
type = Stem;
},
{
place = "{103, 70}";
type = Stem;
},
{
place = "{399, 70}";
type = Stem;
},
{
horizontal = 1;
place = "{589, 82}";
type = Stem;
},
{
place = "{393, 83}";
type = Stem;
}
);
layerId = "1041D826-7B5A-4F1A-81FD-3B5FB25AF0FC";
paths = (
{
closed = 1;
nodes = (
"103 507 LINE",
"9 507 LINE",
"9 443 LINE",
"103 443 LINE",
"103 0 LINE",
"173 0 LINE",
"173 443 LINE",
"399 443 LINE",
"399 0 LINE",
"469 0 LINE",
"469 507 LINE",
"173 507 LINE",
"173 561 LINE SMOOTH",
"173 612 OFFCURVE",
"185 651 OFFCURVE",
"236 651 CURVE SMOOTH",
"255 651 OFFCURVE",
"272 649 OFFCURVE",
"308 628 CURVE",
"342 684 LINE",
"295 711 OFFCURVE",
"259 715 OFFCURVE",
"236 715 CURVE SMOOTH",
"125 715 OFFCURVE",
"103 623 OFFCURVE",
"103 561 CURVE SMOOTH"
);
},
{
closed = 1;
nodes = (
"412 671 OFFCURVE",
"393 653 OFFCURVE",
"393 630 CURVE SMOOTH",
"393 607 OFFCURVE",
"412 589 OFFCURVE",
"434 589 CURVE SMOOTH",
"457 589 OFFCURVE",
"476 607 OFFCURVE",
"476 630 CURVE SMOOTH",
"476 653 OFFCURVE",
"457 671 OFFCURVE",
"434 671 CURVE SMOOTH"
);
}
);
width = 535;
}
);
leftKerningGroup = fi;
note = fi;
rightKerningGroup = fi;
unicode = FB01;
},
{
glyphname = fl;
layers = (
{
hints = (
{
horizontal = 1;
place = "{443, 64}";
type = Stem;
},
{
horizontal = 1;
place = "{653, 62}";
type = Stem;
},
{
place = "{103, 70}";
type = Stem;
},
{
place = "{419, 70}";
type = Stem;
}
);
layerId = "1041D826-7B5A-4F1A-81FD-3B5FB25AF0FC";
paths = (
{
closed = 1;
nodes = (
"342 684 LINE",
"295 711 OFFCURVE",
"259 715 OFFCURVE",
"236 715 CURVE SMOOTH",
"125 715 OFFCURVE",
"103 623 OFFCURVE",
"103 561 CURVE SMOOTH",
"103 507 LINE",
"9 507 LINE",
"9 443 LINE",
"103 443 LINE",
"103 0 LINE",
"173 0 LINE",
"173 443 LINE",
"316 443 LINE",
"316 507 LINE",
"173 507 LINE",
"173 561 LINE SMOOTH",
"173 612 OFFCURVE",
"185 653 OFFCURVE",
"236 653 CURVE SMOOTH",
"255 653 OFFCURVE",
"272 649 OFFCURVE",
"308 628 CURVE"
);
},
{
closed = 1;
nodes = (
"419 0 LINE",
"489 0 LINE",
"489 700 LINE",
"419 700 LINE"
);
}
);
width = 567;
}
);
leftKerningGroup = fl;
note = fl;
unicode = FB02;
},
{
glyphname = Delta;
layers = (
{
hints = (
{
horizontal = 1;
place = "{0, 64}";
type = Stem;
},
{
place = "{35, 573}";
type = Stem;
}
);
layerId = "1041D826-7B5A-4F1A-81FD-3B5FB25AF0FC";
paths = (
{
closed = 1;
nodes = (
"322 691 LINE",
"35 0 LINE",
"608 0 LINE"
);
},
{
closed = 1;
nodes = (
"322 511 LINE",
"507 64 LINE",
"136 64 LINE"
);
}
);
width = 600;
}
);
note = Delta;
unicode = 0394;
},
{
glyphname = Omega;
layers = (
{
hints = (
{
horizontal = 1;
place = "{0, 64}";
type = Stem;
},
{
horizontal = 1;
place = "{633, 64}";
type = Stem;
},
{
place = "{72, 70}";
type = Stem;
},
{
place = "{693, 70}";
type = Stem;
}
);
layerId = "1041D826-7B5A-4F1A-81FD-3B5FB25AF0FC";
paths = (
{
closed = 1;
nodes = (
"580 0 LINE",
"805 0 LINE",
"805 64 LINE",
"662 64 LINE",
"722 129 OFFCURVE",
"763 225 OFFCURVE",
"763 320 CURVE SMOOTH",
"763 528 OFFCURVE",
"608 697 OFFCURVE",
"418 697 CURVE SMOOTH",
"227 697 OFFCURVE",
"72 528 OFFCURVE",
"72 320 CURVE SMOOTH",
"72 225 OFFCURVE",
"114 129 OFFCURVE",
"173 64 CURVE",
"30 64 LINE",
"30 0 LINE",
"255 0 LINE",
"287 57 LINE",
"211 95 OFFCURVE",
"142 208 OFFCURVE",
"142 320 CURVE SMOOTH",
"142 495 OFFCURVE",
"269 633 OFFCURVE",
"418 633 CURVE SMOOTH",
"566 633 OFFCURVE",
"693 495 OFFCURVE",
"693 320 CURVE SMOOTH",
"693 208 OFFCURVE",
"624 94 OFFCURVE",
"549 57 CURVE"
);
}
);
width = 835;
}
);
note = Omega;
unicode = 03A9;
},
{
glyphname = mu;
layers = (
{
hints = (
{
horizontal = 1;
place = "{-2, 64}";
type = Stem;
},
{
place = "{96, 70}";
type = Stem;
},
{
place = "{399, 70}";
type = Stem;
},
{
horizontal = 1;
place = "{1, 64}";
type = Stem;
}
);
layerId = "1041D826-7B5A-4F1A-81FD-3B5FB25AF0FC";
paths = (
{
closed = 1;
nodes = (
"469 475 LINE",
"399 475 LINE",
"399 178 LINE SMOOTH",
"399 112 OFFCURVE",
"365 62 OFFCURVE",
"292 62 CURVE SMOOTH",
"185 62 OFFCURVE",
"166 140 OFFCURVE",
"166 221 CURVE SMOOTH",
"166 475 LINE",
"96 475 LINE",
"96 -238 LINE",
"166 -238 LINE",
"166 36 LINE",
"195 13 OFFCURVE",
"235 -2 OFFCURVE",
"292 -2 CURVE SMOOTH",
"355 -2 OFFCURVE",
"400 22 OFFCURVE",
"428 57 CURVE",
"450 26 OFFCURVE",
"486 1 OFFCURVE",
"546 1 CURVE",
"546 65 LINE",
"480 65 OFFCURVE",
"469 126 OFFCURVE",
"469 157 CURVE SMOOTH"
);
}
);
width = 600;
}
);
note = mu;
unicode = 03BC;
},
{
glyphname = pi;
layers = (
{
hints = (
{
horizontal = 1;
place = "{0, 64}";
type = Stem;
},
{
horizontal = 1;
place = "{408, 64}";
type = Stem;
},
{
place = "{108, 70}";
type = Stem;
},
{
place = "{401, 70}";
type = Stem;
}
);
layerId = "1041D826-7B5A-4F1A-81FD-3B5FB25AF0FC";
paths = (
{
closed = 1;
nodes = (
"471 408 LINE",
"584 408 LINE",
"584 472 LINE",
"16 472 LINE",
"16 408 LINE",
"108 408 LINE",
"108 0 LINE",
"178 0 LINE",
"178 408 LINE",
"401 408 LINE",
"401 157 LINE SMOOTH",
"401 117 OFFCURVE",
"419 0 OFFCURVE",
"549 0 CURVE",
"549 64 LINE",
"482 64 OFFCURVE",
"471 126 OFFCURVE",
"471 157 CURVE SMOOTH"
);
}
);
width = 600;
}
);
note = pi;
unicode = 03C0;
},
{
glyphname = ordfeminine;
layers = (
{
hints = (
{
horizontal = 1;
place = "{441, 54}";
type = Stem;
},
{
horizontal = 1;
place = "{601, 50}";
type = Stem;
},
{
horizontal = 1;
place = "{727, 55}";
type = Stem;
},
{
place = "{37, 64}";
type = Stem;
},
{
place = "{243, 64}";
type = Stem;
}
);
layerId = "1041D826-7B5A-4F1A-81FD-3B5FB25AF0FC";
paths = (
{
closed = 1;
nodes = (
"102 691 LINE",
"120 708 OFFCURVE",
"145 727 OFFCURVE",
"178 727 CURVE SMOOTH",
"215 727 OFFCURVE",
"243 703 OFFCURVE",
"243 661 CURVE SMOOTH",
"243 646 LINE",
"225 649 OFFCURVE",
"206 651 OFFCURVE",
"189 651 CURVE SMOOTH",
"113 651 OFFCURVE",
"37 625 OFFCURVE",
"37 538 CURVE SMOOTH",
"37 496 OFFCURVE",
"73 441 OFFCURVE",
"149 441 CURVE SMOOTH",
"185 441 OFFCURVE",
"218 454 OFFCURVE",
"243 474 CURVE",
"243 445 LINE",
"307 445 LINE",
"307 661 LINE SMOOTH",
"307 733 OFFCURVE",
"248 782 OFFCURVE",
"178 782 CURVE SMOOTH",
"110 782 OFFCURVE",
"69 742 OFFCURVE",
"58 728 CURVE"
);
},
{
closed = 1;
nodes = (
"241 531 OFFCURVE",
"208 495 OFFCURVE",
"149 495 CURVE SMOOTH",
"115 495 OFFCURVE",
"101 514 OFFCURVE",
"101 538 CURVE SMOOTH",
"101 588 OFFCURVE",
"134 601 OFFCURVE",
"198 601 CURVE SMOOTH",
"214 601 OFFCURVE",
"229 599 OFFCURVE",
"243 597 CURVE"
);
}
);
width = 373;
}
);
note = ordfeminine;
unicode = 00AA;
},
{
glyphname = ordmasculine;
layers = (
{
hints = (
{
horizontal = 1;
place = "{439, 54}";
type = Stem;
},
{
horizontal = 1;
place = "{727, 55}";
type = Stem;
},
{
place = "{27, 64}";
type = Stem;
},
{
place = "{310, 65}";
type = Stem;
}
);
layerId = "1041D826-7B5A-4F1A-81FD-3B5FB25AF0FC";
paths = (
{
closed = 1;
nodes = (
"375 703 OFFCURVE",
"297 782 OFFCURVE",
"201 782 CURVE SMOOTH",
"106 782 OFFCURVE",
"27 703 OFFCURVE",
"27 610 CURVE SMOOTH",
"27 517 OFFCURVE",
"105 439 OFFCURVE",
"201 439 CURVE SMOOTH",
"297 439 OFFCURVE",
"375 518 OFFCURVE",
"375 610 CURVE SMOOTH"
);
},
{
closed = 1;
nodes = (
"310 546 OFFCURVE",
"259 493 OFFCURVE",
"201 493 CURVE SMOOTH",
"143 493 OFFCURVE",
"91 545 OFFCURVE",
"91 610 CURVE SMOOTH",
"91 675 OFFCURVE",
"144 727 OFFCURVE",
"201 727 CURVE SMOOTH",
"259 727 OFFCURVE",
"310 675 OFFCURVE",
"310 610 CURVE SMOOTH"
);
}
);
width = 403;
}
);
note = ordmasculine;
unicode = 00BA;
},
{
glyphname = zero;
layers = (
{
hints = (
{
horizontal = 1;
place = "{-6, 64}";
type = Stem;
},
{
horizontal = 1;
place = "{641, 64}";
type = Stem;
},
{
place = "{60, 70}";
type = Stem;
},
{
place = "{479, 70}";
type = Stem;
}
);
layerId = "1041D826-7B5A-4F1A-81FD-3B5FB25AF0FC";
paths = (
{
closed = 1;
nodes = (
"440 -6 OFFCURVE",
"549 114 OFFCURVE",
"549 352 CURVE SMOOTH",
"549 591 OFFCURVE",
"440 705 OFFCURVE",
"305 705 CURVE SMOOTH",
"170 705 OFFCURVE",
"60 591 OFFCURVE",
"60 352 CURVE SMOOTH",
"60 114 OFFCURVE",
"170 -6 OFFCURVE",
"305 -6 CURVE SMOOTH"
);
},
{
closed = 1;
nodes = (
"214 58 OFFCURVE",
"130 149 OFFCURVE",
"130 352 CURVE SMOOTH",
"130 555 OFFCURVE",
"213 641 OFFCURVE",
"305 641 CURVE SMOOTH",
"397 641 OFFCURVE",
"479 555 OFFCURVE",
"479 352 CURVE SMOOTH",
"479 149 OFFCURVE",
"395 58 OFFCURVE",
"305 58 CURVE SMOOTH"
);
}
);
width = 609;
}
);
note = zero;
unicode = 0030;
},
{
glyphname = one;
layers = (
{
hints = (
{
horizontal = 1;
place = "{0, 64}";
type = Stem;
},
{
place = "{184, 70}";
type = Stem;
}
);
layerId = "1041D826-7B5A-4F1A-81FD-3B5FB25AF0FC";
paths = (
{
closed = 1;
nodes = (
"24 0 LINE",
"417 0 LINE",
"417 64 LINE",
"254 64 LINE",
"254 700 LINE",
"191 700 LINE",
"32 634 LINE",
"32 551 LINE",
"184 629 LINE",
"184 64 LINE",
"24 64 LINE"
);
}
);
width = 441;
}
);
note = one;
unicode = 0031;
},
{
glyphname = two;
layers = (
{
hints = (
{
horizontal = 1;
place = "{0, 70}";
type = Stem;
},
{
horizontal = 1;
place = "{636, 70}";
type = Stem;
},
{
place = "{372.92, 70.55}";
type = Stem;
}
);
layerId = "1041D826-7B5A-4F1A-81FD-3B5FB25AF0FC";
paths = (
{
closed = 1;
nodes = (
"18 0 LINE",
"460 0 LINE",
"460 70 LINE",
"115 70 LINE",
"214 171 OFFCURVE",
"346 308 OFFCURVE",
"400 383 CURVE SMOOTH",
"509 535 OFFCURVE",
"401 706 OFFCURVE",
"231 706 CURVE SMOOTH",
"138 706 OFFCURVE",
"59 646 OFFCURVE",
"31 562 CURVE",
"100 540 LINE",
"119 596 OFFCURVE",
"169 636 OFFCURVE",
"231 636 CURVE SMOOTH",
"348 636 OFFCURVE",
"416 526 OFFCURVE",
"343 424 CURVE SMOOTH",
"285 342 OFFCURVE",
"122 177 OFFCURVE",
"18 70 CURVE"
);
}
);
width = 476;
}
);
note = two;
unicode = 0032;
},
{
glyphname = three;
layers = (
{
hints = (
{
horizontal = 1;
place = "{-3, 64}";
type = Stem;
},
{
horizontal = 1;
place = "{355, 64}";
type = Stem;
},
{
horizontal = 1;
place = "{640, 64}";
type = Stem;
},
{
place = "{366, 70}";
type = Stem;
},
{
place = "{325, 70}";
type = Stem;
}
);
layerId = "1041D826-7B5A-4F1A-81FD-3B5FB25AF0FC";
paths = (
{
closed = 1;
nodes = (
"113 557 LINE",
"123 598 OFFCURVE",
"155 640 OFFCURVE",
"217 640 CURVE SMOOTH",
"277 640 OFFCURVE",
"325 592 OFFCURVE",
"325 529 CURVE SMOOTH",
"325 467 OFFCURVE",
"287 419 OFFCURVE",
"197 419 CURVE SMOOTH",
"185 419 LINE",
"185 355 LINE",
"197 355 LINE SMOOTH",
"307 355 OFFCURVE",
"366 290 OFFCURVE",
"366 208 CURVE SMOOTH",
"366 125 OFFCURVE",
"307 61 OFFCURVE",
"217 61 CURVE SMOOTH",
"152 61 OFFCURVE",
"111 98 OFFCURVE",
"94 143 CURVE",
"34 110 LINE",
"58 53 OFFCURVE",
"128 -3 OFFCURVE",
"217 -3 CURVE SMOOTH",
"348 -3 OFFCURVE",
"436 94 OFFCURVE",
"436 208 CURVE SMOOTH",
"436 286 OFFCURVE",
"395 354 OFFCURVE",
"324 390 CURVE",
"370 422 OFFCURVE",
"395 473 OFFCURVE",
"395 529 CURVE SMOOTH",
"395 625 OFFCURVE",
"315 704 OFFCURVE",
"217 704 CURVE SMOOTH",
"127 704 OFFCURVE",
"61 638 OFFCURVE",
"45 571 CURVE"
);
}
);
width = 464;
}
);
note = three;
unicode = 0033;
},
{
glyphname = four;
layers = (
{
hints = (
{
horizontal = 1;
place = "{152, 74}";
type = Stem;
},
{
place = "{392, 70}";
type = Stem;
}
);
layerId = "1041D826-7B5A-4F1A-81FD-3B5FB25AF0FC";
paths = (
{
closed = 1;
nodes = (
"462 0 LINE",
"462 152 LINE",
"530 152 LINE",
"530 226 LINE",
"462 226 LINE",
"462 700 LINE",
"378 700 LINE",
"37 226 LINE",
"37 152 LINE",
"392 152 LINE",
"392 0 LINE"
);
},
{
closed = 1;
nodes = (
"120 226 LINE",
"392 604 LINE",
"392 226 LINE"
);
}
);
width = 586;
}
);
leftKerningGroup = four;
note = four;
unicode = 0034;
},
{
glyphname = five;
layers = (
{
hints = (
{
horizontal = 1;
place = "{-3.44, 64.08}";
type = Stem;
},
{
horizontal = 1;
place = "{380.43, 63.95}";
type = Stem;
},
{
horizontal = 1;
place = "{636, 64}";
type = Stem;
},
{
place = "{21, 427.62}";
type = Stem;
}
);
layerId = "1041D826-7B5A-4F1A-81FD-3B5FB25AF0FC";
paths = (
{
closed = 1;
nodes = (
"184 636 LINE",
"425 636 LINE",
"425 700 LINE",
"129 700 LINE",
"52 400 LINE",
"86 344 LINE",
"160 384 OFFCURVE",
"203 384 OFFCURVE",
"247 377 CURVE SMOOTH",
"328 364 OFFCURVE",
"391 280 OFFCURVE",
"377 193 CURVE SMOOTH",
"362 104 OFFCURVE",
"291 48 OFFCURVE",
"197 63 CURVE SMOOTH",
"141 73 OFFCURVE",
"106 98 OFFCURVE",
"81 139 CURVE",
"21 106 LINE",
"53 53 OFFCURVE",
"107 13 OFFCURVE",
"186 0 CURVE SMOOTH",
"321 -22 OFFCURVE",
"426 61 OFFCURVE",
"446 183 CURVE SMOOTH",
"466 305 OFFCURVE",
"379 420 OFFCURVE",
"258 440 CURVE SMOOTH",
"224 446 OFFCURVE",
"183 448 OFFCURVE",
"133 433 CURVE"
);
}
);
width = 498;
}
);
note = five;
unicode = 0035;
},
{
glyphname = six;
layers = (
{
hints = (
{
horizontal = 1;
place = "{-3.88, 70.37}";
type = Stem;
},
{
horizontal = 1;
place = "{340.03, 70.26}";
type = Stem;
},
{
place = "{28.09, 70.37}";
type = Stem;
},
{
place = "{371.95, 70.37}";
type = Stem;
}
);
layerId = "1041D826-7B5A-4F1A-81FD-3B5FB25AF0FC";
paths = (
{
closed = 1;
nodes = (
"364 700 LINE",
"283 700 LINE",
"56 308 LINE",
"55 306 LINE",
"-1 207 OFFCURVE",
"33 80 OFFCURVE",
"132 23 CURVE SMOOTH",
"231 -33 OFFCURVE",
"358 1 OFFCURVE",
"415 100 CURVE SMOOTH",
"472 200 OFFCURVE",
"437 326 OFFCURVE",
"338 383 CURVE SMOOTH",
"293 409 OFFCURVE",
"241 416 OFFCURVE",
"194 406 CURVE"
);
},
{
closed = 1;
nodes = (
"317 69 OFFCURVE",
"233 47 OFFCURVE",
"167 84 CURVE SMOOTH",
"101 122 OFFCURVE",
"79 206 OFFCURVE",
"116 272 CURVE SMOOTH",
"154 337 OFFCURVE",
"237 360 OFFCURVE",
"303 322 CURVE SMOOTH",
"369 285 OFFCURVE",
"392 201 OFFCURVE",
"354 135 CURVE SMOOTH"
);
}
);
width = 465;
}
);
note = six;
unicode = 0036;
},
{
glyphname = seven;
layers = (
{
hints = (
{
horizontal = 1;
place = "{630, 70}";
type = Stem;
},
{
place = "{35, 494}";
type = Stem;
}
);
layerId = "1041D826-7B5A-4F1A-81FD-3B5FB25AF0FC";
paths = (
{
closed = 1;
nodes = (
"407 630 LINE",
"35 0 LINE",
"116 0 LINE",
"529 700 LINE",
"74 700 LINE",
"74 630 LINE"
);
}
);
width = 539;
}
);
note = seven;
unicode = 0037;
},
{
glyphname = eight;
layers = (
{
hints = (
{
horizontal = 1;
place = "{-3.24, 64.29}";
type = Stem;
},
{
horizontal = 1;
place = "{639.83, 64.48}";
type = Stem;
},
{
place = "{30.19, 69.85}";
type = Stem;
},
{
place = "{396.89, 69.98}";
type = Stem;
},
{
place = "{58.76, 70.18}";
type = Stem;
},
{
place = "{368.55, 70.41}";
type = Stem;
},
{
horizontal = 1;
place = "{331, 64}";
type = Stem;
}
);
layerId = "1041D826-7B5A-4F1A-81FD-3B5FB25AF0FC";
paths = (
{
closed = 1;
nodes = (
"381 382 OFFCURVE",
"400 402 OFFCURVE",
"413 425 CURVE SMOOTH",
"466 516 OFFCURVE",
"436 627 OFFCURVE",
"343 680 CURVE SMOOTH",
"254 731 OFFCURVE",
"135 699 OFFCURVE",
"84 610 CURVE SMOOTH",
"35 525 OFFCURVE",
"59 422 OFFCURVE",
"139 366 CURVE",
"106 350 OFFCURVE",
"79 326 OFFCURVE",
"60 296 CURVE SMOOTH",
"-1 198 OFFCURVE",
"34 78 OFFCURVE",
"141 22 CURVE SMOOTH",
"244 -31 OFFCURVE",
"378 2 OFFCURVE",
"437 96 CURVE SMOOTH",
"498 192 OFFCURVE",
"463 311 OFFCURVE",
"359 367 CURVE"
);
},
{
closed = 1;
nodes = (
"179 638 OFFCURVE",
"250 657 OFFCURVE",
"308 624 CURVE SMOOTH",
"366 591 OFFCURVE",
"386 515 OFFCURVE",
"353 457 CURVE SMOOTH",
"330 417 OFFCURVE",
"295 398 OFFCURVE",
"251 395 CURVE",
"225 397 OFFCURVE",
"209 400 OFFCURVE",
"189 411 CURVE SMOOTH",
"132 444 OFFCURVE",
"111 520 OFFCURVE",
"145 579 CURVE SMOOTH"
);
},
{
closed = 1;
nodes = (
"336 64 OFFCURVE",
"246 41 OFFCURVE",
"173 79 CURVE SMOOTH",
"103 116 OFFCURVE",
"79 198 OFFCURVE",
"119 262 CURVE SMOOTH",
"147 306 OFFCURVE",
"194 328 OFFCURVE",
"250 331 CURVE",
"279 329 OFFCURVE",
"300 325 OFFCURVE",
"323 313 CURVE SMOOTH",
"394 276 OFFCURVE",
"418 194 OFFCURVE",
"378 130 CURVE SMOOTH"
);
}
);
width = 497;
}
);
note = eight;
unicode = 0038;
},
{
glyphname = nine;
layers = (
{
hints = (
{
horizontal = 1;
place = "{307.43, 70.2}";
type = Stem;
},
{
horizontal = 1;
place = "{634.04, 70.55}";
type = Stem;
},
{
place = "{23.08, 70.37}";
type = Stem;
},
{
place = "{349.68, 70.2}";
type = Stem;
}
);
layerId = "1041D826-7B5A-4F1A-81FD-3B5FB25AF0FC";
paths = (
{
closed = 1;
nodes = (
"77 0 LINE",
"158 0 LINE",
"390 400 LINE",
"394 407 LINE SMOOTH",
"448 502 OFFCURVE",
"415 624 OFFCURVE",
"320 678 CURVE SMOOTH",
"225 733 OFFCURVE",
"104 700 OFFCURVE",
"49 605 CURVE SMOOTH",
"-5 509 OFFCURVE",
"28 388 OFFCURVE",
"123 334 CURVE SMOOTH",
"165 310 OFFCURVE",
"212 303 OFFCURVE",
"256 310 CURVE"
);
},
{
closed = 1;
nodes = (
"325 430 LINE",
"287 378 OFFCURVE",
"215 362 OFFCURVE",
"158 394 CURVE SMOOTH",
"96 430 OFFCURVE",
"75 508 OFFCURVE",
"110 570 CURVE SMOOTH",
"145 631 OFFCURVE",
"224 653 OFFCURVE",
"285 617 CURVE SMOOTH",
"343 584 OFFCURVE",
"365 514 OFFCURVE",
"339 455 CURVE"
);
}
);
width = 451;
}
);
note = nine;
unicode = 0039;
},
{
glyphname = fraction;
layers = (
{
hints = (
{
horizontal = 1;
place = "{-18, 896}";
type = Stem;
},
{
place = "{11, 631}";
type = Stem;
}
);
layerId = "1041D826-7B5A-4F1A-81FD-3B5FB25AF0FC";
paths = (
{
closed = 1;
nodes = (
"642 841 LINE",
"585 878 LINE",
"11 18 LINE",
"69 -18 LINE"
);
}
);
width = 650;
}
);
note = fraction;
unicode = 2044;
},
{
glyphname = onehalf;
layers = (
{
hints = (
{
horizontal = 1;
place = "{0, 64}";
type = Stem;
},
{
horizontal = 1;
place = "{343, 64}";
type = Stem;
},
{
place = "{176, 71}";
type = Stem;
},
{
place = "{642.04, 69.61}";
type = Stem;
},
{
place = "{475, 249}";
type = Stem;
}
);
layerId = "1041D826-7B5A-4F1A-81FD-3B5FB25AF0FC";
paths = (
{
closed = 1;
nodes = (
"247 503 LINE",
"247 902 LINE",
"183 902 LINE",
"84 845 LINE",
"84 762 LINE",
"176 831 LINE",
"176 503 LINE"
);
},
{
closed = 1;
nodes = (
"148 -18 LINE",
"722 841 LINE",
"665 878 LINE",
"91 18 LINE"
);
},
{
closed = 1;
nodes = (
"475 0 LINE",
"724 0 LINE",
"724 64 LINE",
"562 64 LINE",
"602 114 OFFCURVE",
"660 190 OFFCURVE",
"688 227 CURVE SMOOTH",
"748 311 OFFCURVE",
"687 407 OFFCURVE",
"591 407 CURVE SMOOTH",
"537 407 OFFCURVE",
"493 373 OFFCURVE",
"478 327 CURVE",
"544 307 LINE",
"551 328 OFFCURVE",
"571 343 OFFCURVE",
"591 343 CURVE SMOOTH",
"633 343 OFFCURVE",
"658 302 OFFCURVE",
"631 265 CURVE SMOOTH",
"587 204 OFFCURVE",
"475 64 OFFCURVE",
"475 64 CURVE"
);
}
);
width = 755;
}
);
note = onehalf;
unicode = 00BD;
},
{
glyphname = onequarter;
layers = (
{
hints = (
{
horizontal = 1;
place = "{85, 59}";
type = Stem;
},
{
place = "{176, 71}";
type = Stem;
},
{
place = "{533, 70}";
type = Stem;
}
);
layerId = "1041D826-7B5A-4F1A-81FD-3B5FB25AF0FC";
paths = (
{
closed = 1;
nodes = (
"247 902 LINE",
"183 902 LINE",
"84 845 LINE",
"84 762 LINE",
"176 831 LINE",
"176 503 LINE",
"247 503 LINE"
);
},
{
closed = 1;
nodes = (
"726 841 LINE",
"669 878 LINE",
"95 18 LINE",
"152 -18 LINE"
);
},
{
closed = 1;
nodes = (
"533 -1 LINE",
"603 -1 LINE",
"603 85 LINE",
"651 85 LINE",
"651 144 LINE",
"603 144 LINE",
"603 398 LINE",
"552 398 LINE",
"386 141 LINE",
"386 85 LINE",
"533 85 LINE"
);
},
{
closed = 1;
nodes = (
"533 144 LINE",
"464 144 LINE",
"533 254 LINE"
);
}
);
width = 745;
}
);
note = onequarter;
unicode = 00BC;
},
{
glyphname = threequarters;
layers = (
{
hints = (
{
horizontal = 1;
place = "{85, 59}";
type = Stem;
},
{
horizontal = 1;
place = "{493, 64}";
type = Stem;
},
{
horizontal = 1;
place = "{687, 59.5}";
type = Stem;
},
{
horizontal = 1;
place = "{837, 64}";
type = Stem;
},
{
place = "{192, 70}";
type = Stem;
},
{
place = "{533, 70}";
type = Stem;
},
{
place = "{214, 70}";
type = Stem;
}
);
layerId = "1041D826-7B5A-4F1A-81FD-3B5FB25AF0FC";
paths = (
{
closed = 1;
nodes = (
"111 804 LINE",
"114 816 OFFCURVE",
"125 837 OFFCURVE",
"151 837 CURVE SMOOTH",
"174 837 OFFCURVE",
"192 818 OFFCURVE",
"192 793 CURVE SMOOTH",
"192 767 OFFCURVE",
"173 754 OFFCURVE",
"151 748 CURVE SMOOTH",
"139 745 OFFCURVE",
"126 744 OFFCURVE",
"114 745 CURVE",
"114 687 LINE",
"126 687 OFFCURVE",
"139 687 OFFCURVE",
"151 684 CURVE SMOOTH",
"186 676 OFFCURVE",
"214 654 OFFCURVE",
"214 621 CURVE SMOOTH",
"214 584 OFFCURVE",
"190 557 OFFCURVE",
"151 557 CURVE SMOOTH",
"123 557 OFFCURVE",
"107 568 OFFCURVE",
"94 588 CURVE",
"34 556 LINE",
"54 522 OFFCURVE",
"99 493 OFFCURVE",
"151 493 CURVE SMOOTH",
"231 493 OFFCURVE",
"284 552 OFFCURVE",
"284 621 CURVE SMOOTH",
"284 661 OFFCURVE",
"264 697 OFFCURVE",
"234 720 CURVE",
"252 740 OFFCURVE",
"262 765 OFFCURVE",
"262 793 CURVE SMOOTH",
"262 851 OFFCURVE",
"213 901 OFFCURVE",
"151 901 CURVE SMOOTH",
"95 901 OFFCURVE",
"53 857 OFFCURVE",
"43 818 CURVE"
);
},
{
closed = 1;
nodes = (
"703 841 LINE",
"646 878 LINE",
"72 18 LINE",
"129 -18 LINE"
);
},
{
closed = 1;
nodes = (
"533 -1 LINE",
"603 -1 LINE",
"603 85 LINE",
"651 85 LINE",
"651 144 LINE",
"603 144 LINE",
"603 398 LINE",
"552 398 LINE",
"386 141 LINE",
"386 85 LINE",
"533 85 LINE"
);
},
{
closed = 1;
nodes = (
"533 144 LINE",
"464 144 LINE",
"533 254 LINE"
);
}
);
width = 745;
}
);
note = threequarters;
unicode = 00BE;
},
{
glyphname = onesuperior;
layers = (
{
hints = (
{
horizontal = 1;
place = "{503, 399}";
type = Stem;
},
{
place = "{176, 71}";
type = Stem;
}
);
layerId = "1041D826-7B5A-4F1A-81FD-3B5FB25AF0FC";
paths = (
{
closed = 1;
nodes = (
"247 902 LINE",
"183 902 LINE",
"84 845 LINE",
"84 762 LINE",
"176 831 LINE",
"176 503 LINE",
"247 503 LINE"
);
}
);
width = 359;
}
);
note = onesuperior;
unicode = 00B9;
},
{
glyphname = twosuperior;
layers = (
{
hints = (
{
horizontal = 1;
place = "{500, 64}";
type = Stem;
},
{
horizontal = 1;
place = "{843, 64}";
type = Stem;
},
{
place = "{18, 249}";
type = Stem;
},
{
place = "{184.2, 69.61}";
type = Stem;
}
);
layerId = "1041D826-7B5A-4F1A-81FD-3B5FB25AF0FC";
paths = (
{
closed = 1;
nodes = (
"18 500 LINE",
"267 500 LINE",
"267 564 LINE",
"104 564 LINE",
"144 615 OFFCURVE",
"203 690 OFFCURVE",
"230 728 CURVE SMOOTH",
"290 811 OFFCURVE",
"230 907 OFFCURVE",
"134 907 CURVE SMOOTH",
"80 907 OFFCURVE",
"36 873 OFFCURVE",
"20 827 CURVE",
"87 807 LINE",
"94 829 OFFCURVE",
"113 843 OFFCURVE",
"134 843 CURVE SMOOTH",
"176 843 OFFCURVE",
"200 803 OFFCURVE",
"173 765 CURVE SMOOTH",
"129 704 OFFCURVE",
"18 564 OFFCURVE",
"18 564 CURVE"
);
}
);
width = 283;
}
);
note = twosuperior;
unicode = 00B2;
},
{
glyphname = threesuperior;
layers = (
{
hints = (
{
horizontal = 1;
place = "{493, 64}";
type = Stem;
},
{
horizontal = 1;
place = "{687, 59.5}";
type = Stem;
},
{
horizontal = 1;
place = "{837, 64}";
type = Stem;
},
{
place = "{192, 70}";
type = Stem;
},
{
place = "{214, 70}";
type = Stem;
}
);
layerId = "1041D826-7B5A-4F1A-81FD-3B5FB25AF0FC";
paths = (
{
closed = 1;
nodes = (
"111 804 LINE",
"114 816 OFFCURVE",
"125 837 OFFCURVE",
"151 837 CURVE SMOOTH",
"174 837 OFFCURVE",
"192 818 OFFCURVE",
"192 793 CURVE SMOOTH",
"192 767 OFFCURVE",
"173 754 OFFCURVE",
"151 748 CURVE SMOOTH",
"139 745 OFFCURVE",
"126 744 OFFCURVE",
"114 745 CURVE",
"114 687 LINE",
"126 687 OFFCURVE",
"139 687 OFFCURVE",
"151 684 CURVE SMOOTH",
"186 676 OFFCURVE",
"214 654 OFFCURVE",
"214 621 CURVE SMOOTH",
"214 584 OFFCURVE",
"190 557 OFFCURVE",
"151 557 CURVE SMOOTH",
"123 557 OFFCURVE",
"107 568 OFFCURVE",
"94 588 CURVE",
"34 556 LINE",
"54 522 OFFCURVE",
"99 493 OFFCURVE",
"151 493 CURVE SMOOTH",
"231 493 OFFCURVE",
"284 552 OFFCURVE",
"284 621 CURVE SMOOTH",
"284 661 OFFCURVE",
"264 697 OFFCURVE",
"234 720 CURVE",
"252 740 OFFCURVE",
"262 765 OFFCURVE",
"262 793 CURVE SMOOTH",
"262 851 OFFCURVE",
"213 901 OFFCURVE",
"151 901 CURVE SMOOTH",
"95 901 OFFCURVE",
"53 857 OFFCURVE",
"43 818 CURVE"
);
}
);
width = 312;
}
);
note = threesuperior;
unicode = 00B3;
},
{
glyphname = foursuperior;
layers = (
{
hints = (
{
horizontal = 1;
place = "{586, 59}";
type = Stem;
},
{
place = "{184, 70}";
type = Stem;
}
);
layerId = "1041D826-7B5A-4F1A-81FD-3B5FB25AF0FC";
paths = (
{
closed = 1;
nodes = (
"184 500 LINE",
"254 500 LINE",
"254 586 LINE",
"302 586 LINE",
"302 645 LINE",
"254 645 LINE",
"254 899 LINE",
"203 899 LINE",
"37 642 LINE",
"37 586 LINE",
"184 586 LINE"
);
},
{
closed = 1;
nodes = (
"184 645 LINE",
"115 645 LINE",
"184 755 LINE"
);
}
);
width = 358;
}
);
note = foursuperior;
unicode = 2074;
},
{
glyphname = asterisk;
layers = (
{
hints = (
{
horizontal = 1;
place = "{416, 381}";
type = Stem;
},
{
place = "{205, 70}";
type = Stem;
}
);
layerId = "1041D826-7B5A-4F1A-81FD-3B5FB25AF0FC";
paths = (
{
closed = 1;
nodes = (
"241 539 LINE",
"329 417 LINE",
"386 454 LINE",
"294 580 LINE",
"441 626 LINE",
"420 688 LINE",
"275 642 LINE",
"275 797 LINE",
"205 797 LINE",
"205 642 LINE",
"61 688 LINE",
"39 627 LINE",
"187 580 LINE",
"96 453 LINE",
"154 416 LINE"
);
}
);
width = 600;
}
);
note = asterisk;
unicode = 002A;
},
{
glyphname = backslash;
layers = (
{
hints = (
{
horizontal = 1;
place = "{-109, 820}";
type = Stem;
},
{
place = "{50, 358}";
type = Stem;
}
);
layerId = "1041D826-7B5A-4F1A-81FD-3B5FB25AF0FC";
paths = (
{
closed = 1;
nodes = (
"115 711 LINE",
"50 689 LINE",
"342 -109 LINE",
"408 -87 LINE"
);
}
);
width = 600;
}
);
note = backslash;
unicode = 005C;
},
{
glyphname = bullet;
layers = (
{
hints = (
{
horizontal = 1;
place = "{163, 261}";
type = Stem;
},
{
place = "{163, 261}";
type = Stem;
}
);
layerId = "1041D826-7B5A-4F1A-81FD-3B5FB25AF0FC";
paths = (
{
closed = 1;
nodes = (
"365 163 OFFCURVE",
"424 221 OFFCURVE",
"424 293 CURVE SMOOTH",
"424 365 OFFCURVE",
"365 424 OFFCURVE",
"293 424 CURVE SMOOTH",
"221 424 OFFCURVE",
"163 365 OFFCURVE",
"163 293 CURVE SMOOTH",
"163 221 OFFCURVE",
"221 163 OFFCURVE",
"293 163 CURVE SMOOTH"
);
}
);
width = 600;
}
);
note = bullet;
unicode = 2022;
},
{
glyphname = colon;
layers = (
{
hints = (
{
horizontal = 1;
place = "{0, 125}";
type = Stem;
},
{
horizontal = 1;
place = "{391, 126}";
type = Stem;
},
{
place = "{124, 125}";
type = Stem;
}
);
layerId = "1041D826-7B5A-4F1A-81FD-3B5FB25AF0FC";
paths = (
{
closed = 1;
nodes = (
"221 391 OFFCURVE",
"249 419 OFFCURVE",
"249 454 CURVE SMOOTH",
"249 489 OFFCURVE",
"221 517 OFFCURVE",
"187 517 CURVE SMOOTH",
"152 517 OFFCURVE",
"124 489 OFFCURVE",
"124 454 CURVE SMOOTH",
"124 419 OFFCURVE",
"152 391 OFFCURVE",
"187 391 CURVE SMOOTH"
);
},
{
closed = 1;
nodes = (
"221 0 OFFCURVE",
"249 28 OFFCURVE",
"249 63 CURVE SMOOTH",
"249 97 OFFCURVE",
"221 125 OFFCURVE",
"187 125 CURVE SMOOTH",
"152 125 OFFCURVE",
"124 97 OFFCURVE",
"124 63 CURVE SMOOTH",
"124 28 OFFCURVE",
"152 0 OFFCURVE",
"187 0 CURVE SMOOTH"
);
}
);
width = 600;
}
);
leftKerningGroup = colon;
note = colon;
unicode = 003A;
},
{
glyphname = ellipsis;
layers = (
{
hints = (
{
horizontal = 1;
place = "{0, 125}";
type = Stem;
},
{
place = "{124, 125}";
type = Stem;
},
{
place = "{401, 125}";
type = Stem;
},
{
place = "{669, 125}";
type = Stem;
}
);
layerId = "1041D826-7B5A-4F1A-81FD-3B5FB25AF0FC";
paths = (
{
closed = 1;
nodes = (
"221 0 OFFCURVE",
"249 28 OFFCURVE",
"249 63 CURVE SMOOTH",
"249 97 OFFCURVE",
"221 125 OFFCURVE",
"187 125 CURVE SMOOTH",
"152 125 OFFCURVE",
"124 97 OFFCURVE",
"124 63 CURVE SMOOTH",
"124 28 OFFCURVE",
"152 0 OFFCURVE",
"187 0 CURVE SMOOTH"
);
},
{
closed = 1;
nodes = (
"498 0 OFFCURVE",
"526 28 OFFCURVE",
"526 63 CURVE SMOOTH",
"526 97 OFFCURVE",
"498 125 OFFCURVE",
"463 125 CURVE SMOOTH",
"429 125 OFFCURVE",
"401 97 OFFCURVE",
"401 63 CURVE SMOOTH",
"401 28 OFFCURVE",
"429 0 OFFCURVE",
"463 0 CURVE SMOOTH"
);
},
{
closed = 1;
nodes = (
"766 0 OFFCURVE",
"794 28 OFFCURVE",
"794 63 CURVE SMOOTH",
"794 97 OFFCURVE",
"766 125 OFFCURVE",
"732 125 CURVE SMOOTH",
"697 125 OFFCURVE",
"669 97 OFFCURVE",
"669 63 CURVE SMOOTH",
"669 28 OFFCURVE",
"697 0 OFFCURVE",
"732 0 CURVE SMOOTH"
);
}
);
width = 939;
}
);
note = ellipsis;
unicode = 2026;
},
{
glyphname = exclam;
layers = (
{
hints = (
{
horizontal = 1;
place = "{0, 125}";
type = Stem;
},
{
place = "{143, 88}";
type = Stem;
},
{
place = "{124, 125}";
type = Stem;
}
);
layerId = "1041D826-7B5A-4F1A-81FD-3B5FB25AF0FC";
paths = (
{
closed = 1;
nodes = (
"240 708 LINE",
"134 708 LINE",
"152 241 LINE",
"222 241 LINE"
);
},
{
closed = 1;
nodes = (
"221 0 OFFCURVE",
"249 28 OFFCURVE",
"249 63 CURVE SMOOTH",
"249 97 OFFCURVE",
"221 125 OFFCURVE",
"187 125 CURVE SMOOTH",
"152 125 OFFCURVE",
"124 97 OFFCURVE",
"124 63 CURVE SMOOTH",
"124 28 OFFCURVE",
"152 0 OFFCURVE",
"187 0 CURVE SMOOTH"
);
}
);
width = 369;
}
);
leftKerningGroup = exclam;
note = exclam;
unicode = 0021;
},
{
glyphname = exclamdown;
layers = (
{
hints = (
{
horizontal = 1;
place = "{550, 115}";
type = Stem;
},
{
place = "{145, 125}";
type = Stem;
}
);
layerId = "1041D826-7B5A-4F1A-81FD-3B5FB25AF0FC";
paths = (
{
closed = 1;
nodes = (
"242 791 OFFCURVE",
"270 763 OFFCURVE",
"270 728 CURVE SMOOTH",
"270 694 OFFCURVE",
"242 665 OFFCURVE",
"207 665 CURVE SMOOTH",
"173 665 OFFCURVE",
"145 694 OFFCURVE",
"145 728 CURVE SMOOTH",
"145 763 OFFCURVE",
"173 791 OFFCURVE",
"207 791 CURVE SMOOTH"
);
},
{
closed = 1;
nodes = (
"242 550 LINE",
"260 83 LINE",
"154 83 LINE",
"172 550 LINE"
);
}
);
width = 600;
}
);
note = exclamdown;
unicode = 00A1;
},
{
glyphname = numbersign;
layers = (
{
hints = (
{
horizontal = 1;
place = "{180, 64}";
type = Stem;
},
{
horizontal = 1;
place = "{480, 64}";
type = Stem;
},
{
place = "{12, 654}";
type = Stem;
}
);
layerId = "1041D826-7B5A-4F1A-81FD-3B5FB25AF0FC";
paths = (
{
closed = 1;
nodes = (
"585 244 LINE",
"473 244 LINE",
"537 480 LINE",
"666 480 LINE",
"666 544 LINE",
"555 544 LINE",
"610 747 LINE",
"538 747 LINE",
"483 544 LINE",
"296 544 LINE",
"349 740 LINE",
"276 740 LINE",
"223 544 LINE",
"93 544 LINE",
"93 480 LINE",
"206 480 LINE",
"142 244 LINE",
"12 244 LINE",
"12 180 LINE",
"125 180 LINE",
"76 0 LINE",
"149 0 LINE",
"197 180 LINE",
"383 180 LINE",
"334 1 LINE",
"406 1 LINE",
"455 180 LINE",
"585 180 LINE"
);
},
{
closed = 1;
nodes = (
"215 244 LINE",
"278 480 LINE",
"465 480 LINE",
"400 244 LINE"
);
}
);
width = 678;
}
);
note = numbersign;
unicode = 0023;
},
{
glyphname = periodcentered;
layers = (
{
hints = (
{
horizontal = 1;
place = "{240, 125}";
type = Stem;
},
{
place = "{124, 125}";
type = Stem;
}
);
layerId = "1041D826-7B5A-4F1A-81FD-3B5FB25AF0FC";
paths = (
{
closed = 1;
nodes = (
"221 240 OFFCURVE",
"249 268 OFFCURVE",
"249 302 CURVE SMOOTH",
"249 337 OFFCURVE",
"221 365 OFFCURVE",
"187 365 CURVE SMOOTH",
"152 365 OFFCURVE",
"124 337 OFFCURVE",
"124 302 CURVE SMOOTH",
"124 268 OFFCURVE",
"152 240 OFFCURVE",
"187 240 CURVE SMOOTH"
);
}
);
width = 600;
}
);
note = periodcentered;
unicode = 00B7;
},
{
glyphname = question;
layers = (
{
hints = (
{
horizontal = 1;
place = "{0, 125}";
type = Stem;
},
{
horizontal = 1;
place = "{644, 64}";
type = Stem;
},
{
place = "{145, 76}";
type = Stem;
},
{
place = "{327, 70}";
type = Stem;
},
{
place = "{131, 125}";
type = Stem;
}
);
layerId = "1041D826-7B5A-4F1A-81FD-3B5FB25AF0FC";
paths = (
{
closed = 1;
nodes = (
"151 241 LINE",
"221 241 LINE",
"221 348 LINE",
"301 378 OFFCURVE",
"388 428 OFFCURVE",
"397 533 CURVE SMOOTH",
"405 635 OFFCURVE",
"324 714 OFFCURVE",
"214 708 CURVE SMOOTH",
"101 702 OFFCURVE",
"67 619 OFFCURVE",
"67 619 CURVE",
"120 581 LINE",
"120 581 OFFCURVE",
"151 640 OFFCURVE",
"218 644 CURVE SMOOTH",
"286 648 OFFCURVE",
"332 602 OFFCURVE",
"327 539 CURVE SMOOTH",
"320 454 OFFCURVE",
"227 420 OFFCURVE",
"139 392 CURVE"
);
},
{
closed = 1;
nodes = (
"228 0 OFFCURVE",
"256 28 OFFCURVE",
"256 63 CURVE SMOOTH",
"256 97 OFFCURVE",
"228 125 OFFCURVE",
"194 125 CURVE SMOOTH",
"159 125 OFFCURVE",
"131 97 OFFCURVE",
"131 63 CURVE SMOOTH",
"131 28 OFFCURVE",
"159 0 OFFCURVE",
"194 0 CURVE SMOOTH"
);
}
);
width = 517;
}
);
leftKerningGroup = question;
note = question;
unicode = 003F;
},
{
glyphname = questiondown;
layers = (
{
hints = (
{
horizontal = 1;
place = "{485, 116}";
type = Stem;
},
{
place = "{102, 330.46}";
type = Stem;
}
);
layerId = "1041D826-7B5A-4F1A-81FD-3B5FB25AF0FC";
paths = (
{
closed = 1;
nodes = (
"263 726 OFFCURVE",
"291 698 OFFCURVE",
"291 663 CURVE SMOOTH",
"291 629 OFFCURVE",
"263 601 OFFCURVE",
"229 601 CURVE SMOOTH",
"194 601 OFFCURVE",
"166 629 OFFCURVE",
"166 663 CURVE SMOOTH",
"166 698 OFFCURVE",
"194 726 OFFCURVE",
"229 726 CURVE SMOOTH"
);
},
{
closed = 1;
nodes = (
"186 485 LINE",
"256 485 LINE",
"256 378 LINE",
"336 348 OFFCURVE",
"423 298 OFFCURVE",
"432 193 CURVE SMOOTH",
"440 91 OFFCURVE",
"359 12 OFFCURVE",
"250 18 CURVE SMOOTH",
"136 24 OFFCURVE",
"102 108 OFFCURVE",
"102 108 CURVE",
"155 145 LINE",
"155 145 OFFCURVE",
"186 86 OFFCURVE",
"253 82 CURVE SMOOTH",
"321 79 OFFCURVE",
"367 124 OFFCURVE",
"362 187 CURVE SMOOTH",
"355 272 OFFCURVE",
"262 306 OFFCURVE",
"174 334 CURVE"
);
}
);
width = 600;
}
);
note = questiondown;
unicode = 00BF;
},
{
glyphname = quotedbl;
layers = (
{
hints = (
{
horizontal = 1;
place = "{548, 218}";
type = Stem;
},
{
place = "{19, 63}";
type = Stem;
},
{
place = "{242, 63}";
type = Stem;
}
);
layerId = "1041D826-7B5A-4F1A-81FD-3B5FB25AF0FC";
paths = (
{
closed = 1;
nodes = (
"87 766 LINE",
"11 766 LINE",
"27 548 LINE",
"77 548 LINE"
);
},
{
closed = 1;
nodes = (
"310 766 LINE",
"234 766 LINE",
"250 548 LINE",
"300 548 LINE"
);
}
);
width = 360;
}
);
note = quotedbl;
unicode = 0022;
},
{
glyphname = semicolon;
layers = (
{
hints = (
{
horizontal = 1;
place = "{391, 126}";
type = Stem;
},
{
place = "{82, 126}";
type = Stem;
},
{
place = "{111, 71}";
type = Stem;
}
);
layerId = "1041D826-7B5A-4F1A-81FD-3B5FB25AF0FC";
paths = (
{
closed = 1;
nodes = (
"180 391 OFFCURVE",
"208 419 OFFCURVE",
"208 454 CURVE SMOOTH",
"208 489 OFFCURVE",
"180 517 OFFCURVE",
"145 517 CURVE SMOOTH",
"110 517 OFFCURVE",
"82 489 OFFCURVE",
"82 454 CURVE SMOOTH",
"82 419 OFFCURVE",
"110 391 OFFCURVE",
"145 391 CURVE SMOOTH"
);
},
{
closed = 1;
nodes = (
"111 91 LINE",
"111 7 LINE",
"59 -98 LINE",
"122 -126 LINE",
"182 -7 LINE",
"182 91 LINE"
);
}
);
width = 664;
}
);
leftKerningGroup = semicolon;
note = semicolon;
unicode = 003B;
},
{
glyphname = slash;
layers = (
{
hints = (
{
horizontal = 1;
place = "{-125, 862}";
type = Stem;
},
{
place = "{147, 316}";
type = Stem;
}
);
layerId = "1041D826-7B5A-4F1A-81FD-3B5FB25AF0FC";
paths = (
{
closed = 1;
nodes = (
"463 718 LINE",
"402 737 LINE",
"147 -107 LINE",
"209 -125 LINE"
);
}
);
width = 600;
}
);
note = slash;
unicode = 002F;
},
{
glyphname = underscore;
layers = (
{
hints = (
{
horizontal = 1;
place = "{-127, 64}";
type = Stem;
},
{
place = "{35, 513}";
type = Stem;
}
);
layerId = "1041D826-7B5A-4F1A-81FD-3B5FB25AF0FC";
paths = (
{
closed = 1;
nodes = (
"548 -127 LINE",
"548 -63 LINE",
"35 -63 LINE",
"35 -127 LINE"
);
}
);
width = 600;
}
);
note = underscore;
unicode = 005F;
},
{
glyphname = braceleft;
layers = (
{
hints = (
{
horizontal = 1;
place = "{-162, 63}";
type = Stem;
},
{
horizontal = 1;
place = "{286, 64}";
type = Stem;
},
{
horizontal = 1;
place = "{734, 63}";
type = Stem;
},
{
place = "{85, 76}";
type = Stem;
}
);
layerId = "1041D826-7B5A-4F1A-81FD-3B5FB25AF0FC";
paths = (
{
closed = 1;
nodes = (
"273 -86 LINE",
"270 -88 OFFCURVE",
"246 -99 OFFCURVE",
"221 -99 CURVE SMOOTH",
"189 -99 OFFCURVE",
"155 -81 OFFCURVE",
"155 -3 CURVE SMOOTH",
"155 48 OFFCURVE",
"161 108 OFFCURVE",
"161 163 CURVE SMOOTH",
"161 226 OFFCURVE",
"153 284 OFFCURVE",
"117 318 CURVE",
"153 353 OFFCURVE",
"161 410 OFFCURVE",
"161 474 CURVE SMOOTH",
"161 529 OFFCURVE",
"155 588 OFFCURVE",
"155 640 CURVE SMOOTH",
"155 716 OFFCURVE",
"189 734 OFFCURVE",
"222 734 CURVE SMOOTH",
"248 734 OFFCURVE",
"273 723 OFFCURVE",
"280 721 CURVE",
"297 783 LINE",
"297 783 OFFCURVE",
"260 797 OFFCURVE",
"218 797 CURVE SMOOTH",
"157 797 OFFCURVE",
"85 770 OFFCURVE",
"85 640 CURVE SMOOTH",
"85 576 OFFCURVE",
"91 516 OFFCURVE",
"91 467 CURVE SMOOTH",
"91 397 OFFCURVE",
"79 350 OFFCURVE",
"20 350 CURVE",
"20 286 LINE",
"79 286 OFFCURVE",
"91 240 OFFCURVE",
"91 169 CURVE SMOOTH",
"91 121 OFFCURVE",
"85 60 OFFCURVE",
"85 -3 CURVE SMOOTH",
"85 -133 OFFCURVE",
"153 -162 OFFCURVE",
"213 -162 CURVE SMOOTH",
"261 -162 OFFCURVE",
"304 -144 OFFCURVE",
"304 -144 CURVE"
);
}
);
width = 309;
}
);
note = braceleft;
rightKerningGroup = braceleft;
unicode = 007B;
},
{
glyphname = braceright;
lastChange = "2019-02-04 10:48:29 +0000";
layers = (
{
hints = (
{
horizontal = 1;
place = "{-162, 959}";
type = Stem;
},
{
place = "{5, 284}";
type = Stem;
}
);
layerId = "1041D826-7B5A-4F1A-81FD-3B5FB25AF0FC";
paths = (
{
closed = 1;
nodes = (
"36 -86 LINE",
"40 -88 OFFCURVE",
"63 -99 OFFCURVE",
"88 -99 CURVE SMOOTH",
"120 -99 OFFCURVE",
"154 -81 OFFCURVE",
"154 -3 CURVE SMOOTH",
"154 48 OFFCURVE",
"148 108 OFFCURVE",
"148 163 CURVE SMOOTH",
"148 226 OFFCURVE",
"156 284 OFFCURVE",
"193 318 CURVE",
"156 353 OFFCURVE",
"148 410 OFFCURVE",
"148 474 CURVE SMOOTH",
"148 529 OFFCURVE",
"154 588 OFFCURVE",
"154 640 CURVE SMOOTH",
"154 716 OFFCURVE",
"120 734 OFFCURVE",
"87 734 CURVE SMOOTH",
"61 734 OFFCURVE",
"36 723 OFFCURVE",
"29 721 CURVE",
"12 783 LINE",
"12 783 OFFCURVE",
"49 797 OFFCURVE",
"92 797 CURVE SMOOTH",
"152 797 OFFCURVE",
"224 770 OFFCURVE",
"224 640 CURVE SMOOTH",
"224 576 OFFCURVE",
"218 516 OFFCURVE",
"218 467 CURVE SMOOTH",
"218 397 OFFCURVE",
"230 350 OFFCURVE",
"289 350 CURVE",
"289 286 LINE",
"230 286 OFFCURVE",
"218 240 OFFCURVE",
"218 169 CURVE SMOOTH",
"218 121 OFFCURVE",
"224 60 OFFCURVE",
"224 -3 CURVE SMOOTH",
"224 -133 OFFCURVE",
"156 -162 OFFCURVE",
"96 -162 CURVE SMOOTH",
"48 -162 OFFCURVE",
"5 -144 OFFCURVE",
"5 -144 CURVE"
);
}
);
width = 309;
}
);
note = braceright;
unicode = 007D;
},
{
glyphname = bracketleft;
layers = (
{
hints = (
{
horizontal = 1;
place = "{-142, 64}";
type = Stem;
},
{
horizontal = 1;
place = "{718, 64}";
type = Stem;
},
{
place = "{40, 70}";
type = Stem;
}
);
layerId = "1041D826-7B5A-4F1A-81FD-3B5FB25AF0FC";
paths = (
{
closed = 1;
nodes = (
"110 -78 LINE",
"110 718 LINE",
"255 718 LINE",
"255 782 LINE",
"40 782 LINE",
"40 -142 LINE",
"255 -142 LINE",
"255 -78 LINE"
);
}
);
width = 330;
}
);
note = bracketleft;
rightKerningGroup = bracketleft;
unicode = 005B;
},
{
glyphname = bracketright;
layers = (
{
hints = (
{
horizontal = 1;
place = "{-142, 924}";
type = Stem;
},
{
place = "{75, 215}";
type = Stem;
}
);
layerId = "1041D826-7B5A-4F1A-81FD-3B5FB25AF0FC";
paths = (
{
closed = 1;
nodes = (
"75 -78 LINE",
"220 -78 LINE",
"220 718 LINE",
"75 718 LINE",
"75 782 LINE",
"290 782 LINE",
"290 -142 LINE",
"75 -142 LINE"
);
}
);
width = 330;
}
);
leftKerningGroup = bracketright;
note = bracketright;
unicode = 005D;
},
{
glyphname = parenleft;
layers = (
{
hints = (
{
horizontal = 1;
place = "{-127, 888}";
type = Stem;
},
{
place = "{50, 70}";
type = Stem;
}
);
layerId = "1041D826-7B5A-4F1A-81FD-3B5FB25AF0FC";
paths = (
{
closed = 1;
nodes = (
"239 -95 LINE",
"239 -95 OFFCURVE",
"120 107 OFFCURVE",
"120 325 CURVE SMOOTH",
"120 541 OFFCURVE",
"238 727 OFFCURVE",
"238 727 CURVE",
"179 761 LINE",
"179 761 OFFCURVE",
"50 559 OFFCURVE",
"50 325 CURVE SMOOTH",
"50 91 OFFCURVE",
"178 -127 OFFCURVE",
"178 -127 CURVE"
);
}
);
width = 264;
}
);
note = parenleft;
rightKerningGroup = parenleft;
unicode = 0028;
},
{
glyphname = parenright;
layers = (
{
hints = (
{
horizontal = 1;
place = "{-127, 888}";
type = Stem;
},
{
place = "{50, 189}";
type = Stem;
}
);
layerId = "1041D826-7B5A-4F1A-81FD-3B5FB25AF0FC";
paths = (
{
closed = 1;
nodes = (
"50 -95 LINE",
"50 -95 OFFCURVE",
"169 107 OFFCURVE",
"169 325 CURVE SMOOTH",
"169 541 OFFCURVE",
"51 727 OFFCURVE",
"51 727 CURVE",
"110 761 LINE",
"110 761 OFFCURVE",
"239 559 OFFCURVE",
"239 325 CURVE SMOOTH",
"239 91 OFFCURVE",
"111 -127 OFFCURVE",
"111 -127 CURVE"
);
}
);
width = 269;
}
);
leftKerningGroup = parenright;
note = parenright;
unicode = 0029;
},
{
glyphname = emdash;
layers = (
{
hints = (
{
horizontal = 1;
place = "{283, 64}";
type = Stem;
},
{
place = "{14, 877}";
type = Stem;
}
);
layerId = "1041D826-7B5A-4F1A-81FD-3B5FB25AF0FC";
paths = (
{
closed = 1;
nodes = (
"14 347 LINE",
"14 283 LINE",
"891 283 LINE",
"891 347 LINE"
);
}
);
width = 906;
}
);
note = emdash;
unicode = 2014;
},
{
glyphname = endash;
layers = (
{
hints = (
{
horizontal = 1;
place = "{283, 64}";
type = Stem;
},
{
place = "{113, 390}";
type = Stem;
}
);
layerId = "1041D826-7B5A-4F1A-81FD-3B5FB25AF0FC";
paths = (
{
closed = 1;
nodes = (
"113 347 LINE",
"113 283 LINE",
"503 283 LINE",
"503 347 LINE"
);
}
);
width = 600;
}
);
note = endash;
unicode = 2013;
},
{
glyphname = softhyphen;
layers = (
{
hints = (
{
horizontal = 1;
place = "{256, 62}";
type = Stem;
},
{
place = "{66, 366}";
type = Stem;
}
);
layerId = "1041D826-7B5A-4F1A-81FD-3B5FB25AF0FC";
paths = (
{
closed = 1;
nodes = (
"432 318 LINE",
"66 318 LINE",
"66 256 LINE",
"432 256 LINE"
);
}
);
width = 600;
}
);
note = softhyphen;
unicode = 00AD;
},
{
glyphname = guillemotleft;
layers = (
{
hints = (
{
horizontal = 1;
place = "{67, 412}";
type = Stem;
},
{
place = "{29, 446}";
type = Stem;
}
);
layerId = "1041D826-7B5A-4F1A-81FD-3B5FB25AF0FC";
paths = (
{
closed = 1;
nodes = (
"237 479 LINE",
"29 273 LINE",
"237 67 LINE",
"289 110 LINE",
"140 273 LINE",
"289 436 LINE"
);
},
{
closed = 1;
nodes = (
"423 479 LINE",
"215 273 LINE",
"423 67 LINE",
"475 110 LINE",
"326 273 LINE",
"475 436 LINE"
);
}
);
width = 600;
}
);
note = guillemotleft;
rightKerningGroup = guillemotleft;
unicode = 00AB;
},
{
glyphname = guillemotright;
layers = (
{
hints = (
{
horizontal = 1;
place = "{67, 412}";
type = Stem;
},
{
place = "{119, 446}";
type = Stem;
}
);
layerId = "1041D826-7B5A-4F1A-81FD-3B5FB25AF0FC";
paths = (
{
closed = 1;
nodes = (
"119 436 LINE",
"171 479 LINE",
"379 273 LINE",
"171 67 LINE",
"119 110 LINE",
"268 273 LINE"
);
},
{
closed = 1;
nodes = (
"305 436 LINE",
"357 479 LINE",
"565 273 LINE",
"357 67 LINE",
"305 110 LINE",
"454 273 LINE"
);
}
);
width = 595;
}
);
note = guillemotright;
unicode = 00BB;
},
{
glyphname = guilsinglleft;
layers = (
{
hints = (
{
horizontal = 1;
place = "{67, 412}";
type = Stem;
},
{
place = "{189, 260}";
type = Stem;
}
);
layerId = "1041D826-7B5A-4F1A-81FD-3B5FB25AF0FC";
paths = (
{
closed = 1;
nodes = (
"397 479 LINE",
"189 273 LINE",
"397 67 LINE",
"449 110 LINE",
"300 273 LINE",
"449 436 LINE"
);
}
);
width = 600;
}
);
note = guilsinglleft;
unicode = 2039;
},
{
glyphname = guilsinglright;
layers = (
{
hints = (
{
horizontal = 1;
place = "{67, 412}";
type = Stem;
},
{
place = "{189, 260}";
type = Stem;
}
);
layerId = "1041D826-7B5A-4F1A-81FD-3B5FB25AF0FC";
paths = (
{
closed = 1;
nodes = (
"189 436 LINE",
"240 479 LINE",
"449 273 LINE",
"240 67 LINE",
"189 110 LINE",
"337 273 LINE"
);
}
);
width = 600;
}
);
note = guilsinglright;
unicode = 203A;
},
{
glyphname = quotedblbase;
layers = (
{
hints = (
{
horizontal = 1;
place = "{-126, 217}";
type = Stem;
},
{
place = "{110, 71}";
type = Stem;
}
);
layerId = "1041D826-7B5A-4F1A-81FD-3B5FB25AF0FC";
paths = (
{
closed = 1;
nodes = (
"110 91 LINE",
"110 7 LINE",
"58 -98 LINE",
"121 -126 LINE",
"181 -7 LINE",
"181 91 LINE"
);
}
);
width = 281;
}
);
note = quotedblbase;
rightKerningGroup = quotedblbase;
unicode = 201E;
},
{
glyphname = quotedblleft;
layers = (
{
hints = (
{
horizontal = 1;
place = "{541, 179}";
type = Stem;
},
{
place = "{60, 64}";
type = Stem;
},
{
place = "{207, 64.5}";
type = Stem;
}
);
layerId = "1041D826-7B5A-4F1A-81FD-3B5FB25AF0FC";
paths = (
{
closed = 1;
nodes = (
"99 541 LINE",
"149 568 LINE",
"122 640 LINE",
"126 720 LINE",
"60 720 LINE",
"60 636 LINE"
);
},
{
closed = 1;
nodes = (
"246 541 LINE",
"296 568 LINE",
"270 640 LINE",
"273 720 LINE",
"207 720 LINE",
"207 636 LINE"
);
}
);
width = 336;
}
);
note = quotedblleft;
unicode = 201C;
},
{
glyphname = quotedblright;
layers = (
{
hints = (
{
horizontal = 1;
place = "{541, 179}";
type = Stem;
},
{
place = "{68, 88}";
type = Stem;
}
);
layerId = "1041D826-7B5A-4F1A-81FD-3B5FB25AF0FC";
paths = (
{
closed = 1;
nodes = (
"28 541 LINE",
"-21 568 LINE",
"5 640 LINE",
"1 720 LINE",
"68 720 LINE",
"68 636 LINE"
);
},
{
closed = 1;
nodes = (
"181 541 LINE",
"131 568 LINE",
"158 640 LINE",
"154 720 LINE",
"220 720 LINE",
"220 636 LINE"
);
}
);
width = 342;
}
);
note = quotedblright;
unicode = 201D;
},
{
glyphname = quoteleft;
layers = (
{
hints = (
{
horizontal = 1;
place = "{541, 179}";
type = Stem;
},
{
place = "{40, 65}";
type = Stem;
}
);
layerId = "1041D826-7B5A-4F1A-81FD-3B5FB25AF0FC";
paths = (
{
closed = 1;
nodes = (
"80 541 LINE",
"129 568 LINE",
"103 640 LINE",
"107 720 LINE",
"40 720 LINE",
"40 636 LINE"
);
}
);
width = 169;
}
);
note = quoteleft;
unicode = 2018;
},
{
glyphname = quoteright;
layers = (
{
hints = (
{
horizontal = 1;
place = "{541, 179}";
type = Stem;
},
{
place = "{33, 89}";
type = Stem;
}
);
layerId = "1041D826-7B5A-4F1A-81FD-3B5FB25AF0FC";
paths = (
{
closed = 1;
nodes = (
"122 636 LINE",
"83 541 LINE",
"33 568 LINE",
"60 640 LINE",
"56 720 LINE",
"122 720 LINE"
);
}
);
width = 180;
}
);
note = quoteright;
unicode = 2019;
},
{
glyphname = quotesinglbase;
layers = (
{
hints = (
{
horizontal = 1;
place = "{-126, 217}";
type = Stem;
},
{
place = "{110, 71}";
type = Stem;
}
);
layerId = "1041D826-7B5A-4F1A-81FD-3B5FB25AF0FC";
paths = (
{
closed = 1;
nodes = (
"181 91 LINE",
"110 91 LINE",
"110 7 LINE",
"58 -98 LINE",
"121 -126 LINE",
"181 -7 LINE"
);
}
);
width = 311;
}
);
note = quotesinglbase;
rightKerningGroup = quotesinglbase;
unicode = 201A;
},
{
glyphname = florin;
layers = (
{
hints = (
{
horizontal = 1;
place = "{465, 64}";
type = Stem;
},
{
horizontal = 1;
place = "{712, 64}";
type = Stem;
},
{
place = "{57, 460}";
type = Stem;
}
);
layerId = "1041D826-7B5A-4F1A-81FD-3B5FB25AF0FC";
paths = (
{
closed = 1;
nodes = (
"517 742 LINE",
"492 758 OFFCURVE",
"456 776 OFFCURVE",
"401 776 CURVE SMOOTH",
"342 776 OFFCURVE",
"271 739 OFFCURVE",
"250 657 CURVE SMOOTH",
"216 529 LINE",
"95 529 LINE",
"77 465 LINE",
"200 465 LINE",
"57 -90 LINE",
"129 -90 LINE",
"272 465 LINE",
"428 465 LINE",
"446 529 LINE",
"288 529 LINE",
"317 640 LINE SMOOTH",
"331 692 OFFCURVE",
"367 712 OFFCURVE",
"401 712 CURVE SMOOTH",
"442 712 OFFCURVE",
"479 698 OFFCURVE",
"500 684 CURVE"
);
}
);
width = 600;
}
);
note = florin;
unicode = 0192;
},
{
glyphname = cent;
layers = (
{
hints = (
{
horizontal = 1;
place = "{-8, 152}";
type = Stem;
},
{
horizontal = 1;
place = "{526, 149}";
type = Stem;
},
{
place = "{60, 70}";
type = Stem;
},
{
place = "{265, 70}";
type = Stem;
}
);
layerId = "1041D826-7B5A-4F1A-81FD-3B5FB25AF0FC";
paths = (
{
closed = 1;
nodes = (
"448 219 LINE",
"415 172 OFFCURVE",
"364 144 OFFCURVE",
"307 144 CURVE SMOOTH",
"211 144 OFFCURVE",
"130 229 OFFCURVE",
"130 335 CURVE SMOOTH",
"130 434 OFFCURVE",
"203 526 OFFCURVE",
"307 526 CURVE SMOOTH",
"360 526 OFFCURVE",
"408 501 OFFCURVE",
"441 459 CURVE",
"496 500 LINE",
"459 545 OFFCURVE",
"399 580 OFFCURVE",
"335 588 CURVE",
"335 675 LINE",
"265 675 LINE",
"265 587 LINE",
"139 566 OFFCURVE",
"60 452 OFFCURVE",
"60 335 CURVE SMOOTH",
"60 209 OFFCURVE",
"147 104 OFFCURVE",
"265 83 CURVE",
"265 -8 LINE",
"335 -8 LINE",
"335 81 LINE",
"404 90 OFFCURVE",
"468 131 OFFCURVE",
"505 182 CURVE"
);
}
);
width = 559;
}
);
note = cent;
unicode = 00A2;
},
{
glyphname = currency;
layers = (
{
hints = (
{
horizontal = 1;
place = "{139, 64}";
type = Stem;
},
{
horizontal = 1;
place = "{509, 64}";
type = Stem;
},
{
place = "{154, 70}";
type = Stem;
},
{
place = "{519, 70}";
type = Stem;
}
);
layerId = "1041D826-7B5A-4F1A-81FD-3B5FB25AF0FC";
paths = (
{
closed = 1;
nodes = (
"661 599 LINE",
"611 645 LINE",
"499 532 LINE",
"463 558 OFFCURVE",
"419 573 OFFCURVE",
"371 573 CURVE SMOOTH",
"324 573 OFFCURVE",
"280 558 OFFCURVE",
"244 532 CURVE",
"132 645 LINE",
"82 599 LINE",
"196 485 LINE",
"170 449 OFFCURVE",
"154 404 OFFCURVE",
"154 356 CURVE SMOOTH",
"154 309 OFFCURVE",
"169 264 OFFCURVE",
"195 229 CURVE",
"82 115 LINE",
"132 70 LINE",
"243 181 LINE",
"279 155 OFFCURVE",
"323 139 OFFCURVE",
"371 139 CURVE SMOOTH",
"419 139 OFFCURVE",
"464 155 OFFCURVE",
"500 181 CURVE",
"611 70 LINE",
"661 115 LINE",
"547 229 LINE",
"573 265 OFFCURVE",
"589 309 OFFCURVE",
"589 356 CURVE SMOOTH",
"589 404 OFFCURVE",
"573 449 OFFCURVE",
"546 485 CURVE"
);
},
{
closed = 1;
nodes = (
"292 203 OFFCURVE",
"224 271 OFFCURVE",
"224 356 CURVE SMOOTH",
"224 442 OFFCURVE",
"292 509 OFFCURVE",
"371 509 CURVE SMOOTH",
"451 509 OFFCURVE",
"519 442 OFFCURVE",
"519 356 CURVE SMOOTH",
"519 271 OFFCURVE",
"451 203 OFFCURVE",
"371 203 CURVE SMOOTH"
);
}
);
width = 720;
}
);
note = currency;
unicode = 00A4;
},
{
glyphname = dollar;
layers = (
{
hints = (
{
horizontal = 1;
place = "{-107, 139}";
type = Stem;
},
{
horizontal = 1;
place = "{670, 140}";
type = Stem;
},
{
place = "{67, 70}";
type = Stem;
},
{
place = "{259, 70}";
type = Stem;
},
{
place = "{463, 70}";
type = Stem;
}
);
layerId = "1041D826-7B5A-4F1A-81FD-3B5FB25AF0FC";
paths = (
{
closed = 1;
nodes = (
"486 632 LINE",
"486 632 OFFCURVE",
"430 705 OFFCURVE",
"329 728 CURVE",
"329 810 LINE",
"259 810 LINE",
"259 734 LINE",
"142 729 OFFCURVE",
"58 640 OFFCURVE",
"67 527 CURVE SMOOTH",
"77 415 OFFCURVE",
"189 367 OFFCURVE",
"268 338 CURVE SMOOTH",
"294 328 LINE SMOOTH",
"351 307 OFFCURVE",
"463 277 OFFCURVE",
"463 171 CURVE SMOOTH",
"463 73 OFFCURVE",
"377 32 OFFCURVE",
"284 32 CURVE SMOOTH",
"184 32 OFFCURVE",
"116 92 OFFCURVE",
"92 133 CURVE",
"32 100 LINE",
"59 55 OFFCURVE",
"142 -21 OFFCURVE",
"259 -31 CURVE",
"259 -107 LINE",
"329 -107 LINE",
"329 -29 LINE",
"432 -16 OFFCURVE",
"533 44 OFFCURVE",
"533 171 CURVE SMOOTH",
"533 325 OFFCURVE",
"374 367 OFFCURVE",
"318 388 CURVE SMOOTH",
"292 398 LINE SMOOTH",
"219 425 OFFCURVE",
"143 459 OFFCURVE",
"137 532 CURVE SMOOTH",
"130 612 OFFCURVE",
"195 675 OFFCURVE",
"281 670 CURVE SMOOTH",
"375 665 OFFCURVE",
"431 592 OFFCURVE",
"431 592 CURVE"
);
}
);
width = 600;
}
);
note = dollar;
unicode = 0024;
},
{
glyphname = sterling;
layers = (
{
hints = (
{
horizontal = 1;
place = "{-26, 64}";
type = Stem;
},
{
horizontal = 1;
place = "{310, 64}";
type = Stem;
},
{
horizontal = 1;
place = "{670, 64}";
type = Stem;
},
{
place = "{82.88, 69.46}";
type = Stem;
},
{
place = "{163.5, 69.17}";
type = Stem;
}
);
layerId = "1041D826-7B5A-4F1A-81FD-3B5FB25AF0FC";
paths = (
{
closed = 1;
nodes = (
"528 90 LINE",
"523 73 OFFCURVE",
"519 38 OFFCURVE",
"442 38 CURVE SMOOTH",
"328 38 OFFCURVE",
"305 101 OFFCURVE",
"225 119 CURVE",
"236 164 OFFCURVE",
"240 230 OFFCURVE",
"204 310 CURVE",
"410 310 LINE",
"410 374 LINE",
"177 374 LINE",
"125 522 OFFCURVE",
"148 677 OFFCURVE",
"316 670 CURVE SMOOTH",
"354 668 OFFCURVE",
"387 658 OFFCURVE",
"409 632 CURVE",
"462 674 LINE",
"430 712 OFFCURVE",
"368 732 OFFCURVE",
"319 734 CURVE SMOOTH",
"86 744 OFFCURVE",
"52 547 OFFCURVE",
"104 374 CURVE",
"20 374 LINE",
"20 310 LINE",
"128 310 LINE",
"137 290 LINE SMOOTH",
"173 216 OFFCURVE",
"166 158 OFFCURVE",
"154 122 CURVE",
"40 108 OFFCURVE",
"13 11 OFFCURVE",
"13 11 CURVE",
"81 -7 LINE",
"81 -7 OFFCURVE",
"99 59 OFFCURVE",
"181 59 CURVE SMOOTH",
"264 59 OFFCURVE",
"305 -26 OFFCURVE",
"442 -26 CURVE SMOOTH",
"581 -26 OFFCURVE",
"592 61 OFFCURVE",
"596 73 CURVE"
);
}
);
width = 600;
}
);
note = sterling;
unicode = 00A3;
},
{
glyphname = yen;
layers = (
{
hints = (
{
horizontal = 1;
place = "{139, 64}";
type = Stem;
},
{
horizontal = 1;
place = "{290, 64}";
type = Stem;
},
{
place = "{284, 70}";
type = Stem;
}
);
layerId = "1041D826-7B5A-4F1A-81FD-3B5FB25AF0FC";
paths = (
{
closed = 1;
nodes = (
"527 290 LINE",
"527 354 LINE",
"369 354 LINE",
"615 670 LINE",
"559 709 LINE",
"312 390 LINE",
"64 709 LINE",
"9 670 LINE",
"254 354 LINE",
"97 354 LINE",
"97 290 LINE",
"284 290 LINE",
"284 203 LINE",
"97 203 LINE",
"97 139 LINE",
"284 139 LINE",
"284 0 LINE",
"354 0 LINE",
"354 139 LINE",
"527 139 LINE",
"527 203 LINE",
"354 203 LINE",
"354 290 LINE"
);
}
);
width = 600;
}
);
note = yen;
unicode = 00A5;
},
{
glyphname = approxequal;
layers = (
{
hints = (
{
horizontal = 1;
place = "{228, 58}";
type = Stem;
},
{
horizontal = 1;
place = "{388, 59}";
type = Stem;
},
{
place = "{134, 57}";
type = Stem;
},
{
place = "{445, 66}";
type = Stem;
},
{
horizontal = 1;
place = "{447, 58}";
type = Stem;
},
{
horizontal = 1;
place = "{169, 60}";
type = Stem;
}
);
layerId = "1041D826-7B5A-4F1A-81FD-3B5FB25AF0FC";
paths = (
{
closed = 1;
nodes = (
"445 488 LINE",
"445 463 OFFCURVE",
"432 447 OFFCURVE",
"404 447 CURVE SMOOTH",
"340 447 OFFCURVE",
"330 505 OFFCURVE",
"239 505 CURVE SMOOTH",
"177 505 OFFCURVE",
"134 460 OFFCURVE",
"134 397 CURVE",
"191 397 LINE",
"191 427 OFFCURVE",
"204 447 OFFCURVE",
"239 447 CURVE SMOOTH",
"288 447 OFFCURVE",
"335 388 OFFCURVE",
"401 388 CURVE SMOOTH",
"454 388 OFFCURVE",
"511 410 OFFCURVE",
"511 488 CURVE"
);
},
{
closed = 1;
nodes = (
"445 269 LINE",
"445 245 OFFCURVE",
"432 229 OFFCURVE",
"404 229 CURVE SMOOTH",
"340 229 OFFCURVE",
"330 286 OFFCURVE",
"239 286 CURVE SMOOTH",
"177 286 OFFCURVE",
"134 241 OFFCURVE",
"134 179 CURVE",
"191 179 LINE",
"191 208 OFFCURVE",
"204 228 OFFCURVE",
"239 228 CURVE SMOOTH",
"288 228 OFFCURVE",
"335 169 OFFCURVE",
"401 169 CURVE SMOOTH",
"454 169 OFFCURVE",
"511 192 OFFCURVE",
"511 269 CURVE"
);
}
);
width = 600;
}
);
note = approxequal;
unicode = 2248;
},
{
glyphname = asciitilde;
layers = (
{
hints = (
{
horizontal = 1;
place = "{254, 65}";
type = Stem;
},
{
horizontal = 1;
place = "{403, 66}";
type = Stem;
},
{
place = "{77, 70}";
type = Stem;
},
{
place = "{485, 71}";
type = Stem;
}
);
layerId = "1041D826-7B5A-4F1A-81FD-3B5FB25AF0FC";
paths = (
{
closed = 1;
nodes = (
"152 306 LINE",
"148 316 OFFCURVE",
"147 327 OFFCURVE",
"147 338 CURVE SMOOTH",
"147 377 OFFCURVE",
"167 403 OFFCURVE",
"205 403 CURVE SMOOTH",
"285 403 OFFCURVE",
"311 254 OFFCURVE",
"422 254 CURVE SMOOTH",
"485 254 OFFCURVE",
"556 295 OFFCURVE",
"556 378 CURVE SMOOTH",
"556 403 OFFCURVE",
"549 428 OFFCURVE",
"536 450 CURVE",
"475 417 LINE",
"482 406 OFFCURVE",
"485 393 OFFCURVE",
"485 380 CURVE SMOOTH",
"485 349 OFFCURVE",
"466 319 OFFCURVE",
"427 319 CURVE SMOOTH",
"350 319 OFFCURVE",
"320 469 OFFCURVE",
"208 469 CURVE SMOOTH",
"136 469 OFFCURVE",
"77 419 OFFCURVE",
"77 337 CURVE SMOOTH",
"77 319 OFFCURVE",
"80 301 OFFCURVE",
"86 284 CURVE"
);
}
);
width = 600;
}
);
note = asciitilde;
unicode = 007E;
},
{
glyphname = divide;
layers = (
{
hints = (
{
horizontal = 1;
place = "{0, 125}";
type = Stem;
},
{
horizontal = 1;
place = "{275, 64}";
type = Stem;
},
{
horizontal = 1;
place = "{458, 125}";
type = Stem;
},
{
place = "{237, 126}";
type = Stem;
}
);
layerId = "1041D826-7B5A-4F1A-81FD-3B5FB25AF0FC";
paths = (
{
closed = 1;
nodes = (
"335 458 OFFCURVE",
"363 486 OFFCURVE",
"363 520 CURVE SMOOTH",
"363 555 OFFCURVE",
"335 583 OFFCURVE",
"300 583 CURVE SMOOTH",
"265 583 OFFCURVE",
"237 555 OFFCURVE",
"237 520 CURVE SMOOTH",
"237 486 OFFCURVE",
"265 458 OFFCURVE",
"300 458 CURVE SMOOTH"
);
},
{
closed = 1;
nodes = (
"575 275 LINE",
"575 339 LINE",
"36 339 LINE",
"36 275 LINE"
);
},
{
closed = 1;
nodes = (
"335 0 OFFCURVE",
"363 28 OFFCURVE",
"363 63 CURVE SMOOTH",
"363 97 OFFCURVE",
"335 125 OFFCURVE",
"300 125 CURVE SMOOTH",
"265 125 OFFCURVE",
"237 97 OFFCURVE",
"237 63 CURVE SMOOTH",
"237 28 OFFCURVE",
"265 0 OFFCURVE",
"300 0 CURVE SMOOTH"
);
}
);
width = 600;
}
);
note = divide;
unicode = 00F7;
},
{
glyphname = equal;
layers = (
{
hints = (
{
horizontal = 1;
place = "{128, 64}";
type = Stem;
},
{
horizontal = 1;
place = "{388, 64}";
type = Stem;
},
{
place = "{88, 432}";
type = Stem;
}
);
layerId = "1041D826-7B5A-4F1A-81FD-3B5FB25AF0FC";
paths = (
{
closed = 1;
nodes = (
"88 452 LINE",
"88 388 LINE",
"520 388 LINE",
"520 452 LINE"
);
},
{
closed = 1;
nodes = (
"88 192 LINE",
"88 128 LINE",
"520 128 LINE",
"520 192 LINE"
);
}
);
width = 600;
}
);
note = equal;
unicode = 003D;
},
{
glyphname = greater;
layers = (
{
hints = (
{
horizontal = 1;
place = "{94, 427}";
type = Stem;
},
{
place = "{428, 61}";
type = Stem;
}
);
layerId = "1041D826-7B5A-4F1A-81FD-3B5FB25AF0FC";
paths = (
{
closed = 1;
nodes = (
"428 308 LINE",
"108 157 LINE",
"137 94 LINE",
"489 267 LINE",
"489 348 LINE",
"137 521 LINE",
"108 459 LINE"
);
}
);
width = 600;
}
);
note = greater;
unicode = 003E;
},
{
glyphname = greaterequal;
layers = (
{
hints = (
{
horizontal = 1;
place = "{-32, 64}";
type = Stem;
},
{
place = "{428, 61}";
type = Stem;
}
);
layerId = "1041D826-7B5A-4F1A-81FD-3B5FB25AF0FC";
paths = (
{
closed = 1;
nodes = (
"108 459 LINE",
"428 308 LINE",
"108 157 LINE",
"137 94 LINE",
"489 267 LINE",
"489 348 LINE",
"137 521 LINE"
);
},
{
closed = 1;
nodes = (
"43 32 LINE",
"43 -32 LINE",
"560 -32 LINE",
"560 32 LINE"
);
}
);
width = 600;
}
);
note = greaterequal;
unicode = 2265;
},
{
glyphname = infinity;
layers = (
{
hints = (
{
horizontal = 1;
place = "{59, 64}";
type = Stem;
},
{
horizontal = 1;
place = "{361, 64}";
type = Stem;
},
{
place = "{17, 70}";
type = Stem;
},
{
place = "{652, 70}";
type = Stem;
}
);
layerId = "1041D826-7B5A-4F1A-81FD-3B5FB25AF0FC";
paths = (
{
closed = 1;
nodes = (
"494 425 OFFCURVE",
"420 349 OFFCURVE",
"369 292 CURVE",
"318 350 OFFCURVE",
"245 425 OFFCURVE",
"160 425 CURVE SMOOTH",
"43 425 OFFCURVE",
"17 304 OFFCURVE",
"17 242 CURVE SMOOTH",
"17 180 OFFCURVE",
"43 59 OFFCURVE",
"160 59 CURVE SMOOTH",
"244 59 OFFCURVE",
"319 135 OFFCURVE",
"369 191 CURVE",
"413 141 OFFCURVE",
"494 59 OFFCURVE",
"579 59 CURVE SMOOTH",
"696 59 OFFCURVE",
"722 180 OFFCURVE",
"722 242 CURVE SMOOTH",
"722 347 OFFCURVE",
"671 425 OFFCURVE",
"579 425 CURVE SMOOTH"
);
},
{
closed = 1;
nodes = (
"103 123 OFFCURVE",
"87 188 OFFCURVE",
"87 242 CURVE SMOOTH",
"87 296 OFFCURVE",
"103 361 OFFCURVE",
"160 361 CURVE SMOOTH",
"217 361 OFFCURVE",
"274 299 OFFCURVE",
"324 242 CURVE",
"276 187 OFFCURVE",
"217 123 OFFCURVE",
"160 123 CURVE SMOOTH"
);
},
{
closed = 1;
nodes = (
"520 123 OFFCURVE",
"454 196 OFFCURVE",
"415 242 CURVE",
"463 297 OFFCURVE",
"521 361 OFFCURVE",
"579 361 CURVE SMOOTH",
"622 361 OFFCURVE",
"652 319 OFFCURVE",
"652 242 CURVE SMOOTH",
"652 188 OFFCURVE",
"636 123 OFFCURVE",
"579 123 CURVE SMOOTH"
);
}
);
width = 732;
}
);
note = infinity;
unicode = 221E;
},
{
glyphname = integral;
layers = (
{
hints = (
{
horizontal = 1;
place = "{-157, 65}";
type = Stem;
},
{
horizontal = 1;
place = "{720, 64}";
type = Stem;
},
{
place = "{39, 518}";
type = Stem;
}
);
layerId = "1041D826-7B5A-4F1A-81FD-3B5FB25AF0FC";
paths = (
{
closed = 1;
nodes = (
"557 761 LINE",
"539 769 OFFCURVE",
"500 784 OFFCURVE",
"459 784 CURVE SMOOTH",
"402 784 OFFCURVE",
"341 757 OFFCURVE",
"322 652 CURVE SMOOTH",
"300 526 OFFCURVE",
"207 -8 OFFCURVE",
"193 -58 CURVE SMOOTH",
"187 -77 OFFCURVE",
"168 -92 OFFCURVE",
"140 -92 CURVE SMOOTH",
"122 -92 OFFCURVE",
"100 -86 OFFCURVE",
"77 -70 CURVE",
"39 -124 LINE",
"73 -147 OFFCURVE",
"108 -157 OFFCURVE",
"140 -157 CURVE SMOOTH",
"199 -157 OFFCURVE",
"247 -123 OFFCURVE",
"260 -76 CURVE SMOOTH",
"276 -20 OFFCURVE",
"369 516 OFFCURVE",
"391 641 CURVE SMOOTH",
"402 703 OFFCURVE",
"433 720 OFFCURVE",
"464 720 CURVE SMOOTH",
"487 720 OFFCURVE",
"510 711 OFFCURVE",
"527 703 CURVE"
);
}
);
width = 600;
}
);
note = integral;
unicode = 222B;
},
{
glyphname = less;
layers = (
{
hints = (
{
horizontal = 1;
place = "{94, 427}";
type = Stem;
},
{
place = "{138, 381}";
type = Stem;
}
);
layerId = "1041D826-7B5A-4F1A-81FD-3B5FB25AF0FC";
paths = (
{
closed = 1;
nodes = (
"519 459 LINE",
"198 308 LINE",
"519 157 LINE",
"489 94 LINE",
"138 267 LINE",
"138 348 LINE",
"489 521 LINE"
);
}
);
width = 600;
}
);
note = less;
unicode = 003C;
},
{
glyphname = lessequal;
layers = (
{
hints = (
{
horizontal = 1;
place = "{32, 62}";
type = Stem;
},
{
place = "{43, 517}";
type = Stem;
}
);
layerId = "1041D826-7B5A-4F1A-81FD-3B5FB25AF0FC";
paths = (
{
closed = 1;
nodes = (
"466 521 LINE",
"496 459 LINE",
"176 308 LINE",
"496 157 LINE",
"466 94 LINE",
"115 267 LINE",
"115 348 LINE"
);
},
{
closed = 1;
nodes = (
"43 32 LINE",
"560 32 LINE",
"560 -32 LINE",
"43 -32 LINE"
);
}
);
width = 600;
}
);
note = lessequal;
unicode = 2264;
},
{
glyphname = logicalnot;
layers = (
{
hints = (
{
horizontal = 1;
place = "{379, 64}";
type = Stem;
},
{
place = "{629, 70}";
type = Stem;
}
);
layerId = "1041D826-7B5A-4F1A-81FD-3B5FB25AF0FC";
paths = (
{
closed = 1;
nodes = (
"699 157 LINE",
"699 443 LINE",
"48 443 LINE",
"48 379 LINE",
"629 379 LINE",
"629 157 LINE"
);
}
);
width = 744;
}
);
note = logicalnot;
unicode = 00AC;
},
{
glyphname = minus;
layers = (
{
hints = (
{
horizontal = 1;
place = "{275, 64}";
type = Stem;
},
{
place = "{36, 539}";
type = Stem;
}
);
layerId = "1041D826-7B5A-4F1A-81FD-3B5FB25AF0FC";
paths = (
{
closed = 1;
nodes = (
"575 275 LINE",
"575 339 LINE",
"36 339 LINE",
"36 275 LINE"
);
}
);
width = 600;
}
);
note = minus;
unicode = 2212;
},
{
glyphname = multiply;
layers = (
{
hints = (
{
horizontal = 1;
place = "{-23, 575}";
type = Stem;
},
{
place = "{15, 579}";
type = Stem;
}
);
layerId = "1041D826-7B5A-4F1A-81FD-3B5FB25AF0FC";
paths = (
{
closed = 1;
nodes = (
"65 552 LINE",
"15 507 LINE",
"545 -23 LINE",
"594 23 LINE"
);
}
);
width = 609;
}
);
note = multiply;
unicode = 00D7;
},
{
glyphname = notequal;
layers = (
{
hints = (
{
horizontal = 1;
place = "{128, 64}";
type = Stem;
},
{
horizontal = 1;
place = "{388, 64}";
type = Stem;
},
{
place = "{88, 432}";
type = Stem;
}
);
layerId = "1041D826-7B5A-4F1A-81FD-3B5FB25AF0FC";
paths = (
{
closed = 1;
nodes = (
"520 192 LINE",
"304 192 LINE",
"363 388 LINE",
"520 388 LINE",
"520 452 LINE",
"383 452 LINE",
"463 718 LINE",
"402 737 LINE",
"316 452 LINE",
"88 452 LINE",
"88 388 LINE",
"297 388 LINE",
"238 192 LINE",
"88 192 LINE",
"88 128 LINE",
"218 128 LINE",
"147 -107 LINE",
"209 -125 LINE",
"285 128 LINE",
"520 128 LINE"
);
}
);
width = 600;
}
);
note = notequal;
unicode = 2260;
},
{
glyphname = partialdiff;
layers = (
{
hints = (
{
horizontal = 1;
place = "{-32, 64}";
type = Stem;
},
{
horizontal = 1;
place = "{481, 64}";
type = Stem;
},
{
horizontal = 1;
place = "{772, 64}";
type = Stem;
},
{
place = "{32, 70}";
type = Stem;
},
{
place = "{465, 70}";
type = Stem;
}
);
layerId = "1041D826-7B5A-4F1A-81FD-3B5FB25AF0FC";
paths = (
{
closed = 1;
nodes = (
"64 772 LINE",
"237 772 OFFCURVE",
"364 660 OFFCURVE",
"425 495 CURVE",
"385 526 OFFCURVE",
"336 545 OFFCURVE",
"283 545 CURVE SMOOTH",
"216 545 OFFCURVE",
"149 510 OFFCURVE",
"107 462 CURVE SMOOTH",
"61 410 OFFCURVE",
"32 334 OFFCURVE",
"32 256 CURVE SMOOTH",
"32 100 OFFCURVE",
"143 -32 OFFCURVE",
"283 -32 CURVE SMOOTH",
"354 -32 OFFCURVE",
"423 6 OFFCURVE",
"466 58 CURVE SMOOTH",
"508 109 OFFCURVE",
"535 182 OFFCURVE",
"535 256 CURVE SMOOTH",
"535 568 OFFCURVE",
"359 836 OFFCURVE",
"64 836 CURVE"
);
},
{
closed = 1;
nodes = (
"377 56 OFFCURVE",
"333 32 OFFCURVE",
"283 32 CURVE SMOOTH",
"185 32 OFFCURVE",
"102 130 OFFCURVE",
"102 256 CURVE SMOOTH",
"102 321 OFFCURVE",
"125 380 OFFCURVE",
"159 420 CURVE SMOOTH",
"194 459 OFFCURVE",
"236 481 OFFCURVE",
"283 481 CURVE SMOOTH",
"382 481 OFFCURVE",
"465 383 OFFCURVE",
"465 256 CURVE SMOOTH",
"465 192 OFFCURVE",
"445 139 OFFCURVE",
"412 98 CURVE SMOOTH"
);
}
);
width = 600;
}
);
note = partialdiff;
unicode = 2202;
},
{
glyphname = percent;
layers = (
{
hints = (
{
horizontal = 1;
place = "{-4, 64}";
type = Stem;
},
{
horizontal = 1;
place = "{356, 64}";
type = Stem;
},
{
horizontal = 1;
place = "{647, 64}";
type = Stem;
},
{
place = "{63, 70}";
type = Stem;
},
{
place = "{243, 70}";
type = Stem;
},
{
place = "{382, 70}";
type = Stem;
},
{
place = "{562, 70}";
type = Stem;
},
{
horizontal = 1;
place = "{287, 64}";
type = Stem;
}
);
layerId = "1041D826-7B5A-4F1A-81FD-3B5FB25AF0FC";
paths = (
{
closed = 1;
nodes = (
"256 356 OFFCURVE",
"313 418 OFFCURVE",
"313 535 CURVE SMOOTH",
"313 652 OFFCURVE",
"256 711 OFFCURVE",
"188 711 CURVE SMOOTH",
"120 711 OFFCURVE",
"63 652 OFFCURVE",
"63 535 CURVE SMOOTH",
"63 418 OFFCURVE",
"120 356 OFFCURVE",
"188 356 CURVE SMOOTH"
);
},
{
closed = 1;
nodes = (
"630 711 LINE",
"549 711 LINE",
"74 0 LINE",
"156 0 LINE"
);
},
{
closed = 1;
nodes = (
"163 420 OFFCURVE",
"133 452 OFFCURVE",
"133 535 CURVE SMOOTH",
"133 617 OFFCURVE",
"162 647 OFFCURVE",
"188 647 CURVE SMOOTH",
"214 647 OFFCURVE",
"243 617 OFFCURVE",
"243 535 CURVE SMOOTH",
"243 452 OFFCURVE",
"213 420 OFFCURVE",
"188 420 CURVE SMOOTH"
);
},
{
closed = 1;
nodes = (
"575 -4 OFFCURVE",
"632 57 OFFCURVE",
"632 175 CURVE SMOOTH",
"632 292 OFFCURVE",
"575 351 OFFCURVE",
"507 351 CURVE SMOOTH",
"439 351 OFFCURVE",
"382 292 OFFCURVE",
"382 175 CURVE SMOOTH",
"382 57 OFFCURVE",
"439 -4 OFFCURVE",
"507 -4 CURVE SMOOTH"
);
},
{
closed = 1;
nodes = (
"482 60 OFFCURVE",
"452 92 OFFCURVE",
"452 175 CURVE SMOOTH",
"452 256 OFFCURVE",
"481 287 OFFCURVE",
"507 287 CURVE SMOOTH",
"533 287 OFFCURVE",
"562 256 OFFCURVE",
"562 175 CURVE SMOOTH",
"562 92 OFFCURVE",
"532 60 OFFCURVE",
"507 60 CURVE SMOOTH"
);
}
);
width = 675;
}
);
note = percent;
unicode = 0025;
},
{
glyphname = perthousand;
layers = (
{
hints = (
{
horizontal = 1;
place = "{-4, 64}";
type = Stem;
},
{
horizontal = 1;
place = "{356, 64}";
type = Stem;
},
{
horizontal = 1;
place = "{647, 64}";
type = Stem;
},
{
place = "{53, 70}";
type = Stem;
},
{
place = "{233, 70}";
type = Stem;
},
{
place = "{372, 70}";
type = Stem;
},
{
place = "{552, 70}";
type = Stem;
},
{
horizontal = 1;
place = "{287, 64}";
type = Stem;
},
{
place = "{673, 70}";
type = Stem;
},
{
place = "{853, 70}";
type = Stem;
}
);
layerId = "1041D826-7B5A-4F1A-81FD-3B5FB25AF0FC";
paths = (
{
closed = 1;
nodes = (
"246 356 OFFCURVE",
"303 418 OFFCURVE",
"303 535 CURVE SMOOTH",
"303 652 OFFCURVE",
"246 711 OFFCURVE",
"178 711 CURVE SMOOTH",
"110 711 OFFCURVE",
"53 652 OFFCURVE",
"53 535 CURVE SMOOTH",
"53 418 OFFCURVE",
"110 356 OFFCURVE",
"178 356 CURVE SMOOTH"
);
},
{
closed = 1;
nodes = (
"620 711 LINE",
"539 711 LINE",
"64 0 LINE",
"146 0 LINE"
);
},
{
closed = 1;
nodes = (
"153 420 OFFCURVE",
"123 452 OFFCURVE",
"123 535 CURVE SMOOTH",
"123 617 OFFCURVE",
"152 647 OFFCURVE",
"178 647 CURVE SMOOTH",
"204 647 OFFCURVE",
"233 617 OFFCURVE",
"233 535 CURVE SMOOTH",
"233 452 OFFCURVE",
"203 420 OFFCURVE",
"178 420 CURVE SMOOTH"
);
},
{
closed = 1;
nodes = (
"565 -4 OFFCURVE",
"622 57 OFFCURVE",
"622 175 CURVE SMOOTH",
"622 292 OFFCURVE",
"565 351 OFFCURVE",
"497 351 CURVE SMOOTH",
"429 351 OFFCURVE",
"372 292 OFFCURVE",
"372 175 CURVE SMOOTH",
"372 57 OFFCURVE",
"429 -4 OFFCURVE",
"497 -4 CURVE SMOOTH"
);
},
{
closed = 1;
nodes = (
"866 -4 OFFCURVE",
"923 57 OFFCURVE",
"923 175 CURVE SMOOTH",
"923 292 OFFCURVE",
"866 351 OFFCURVE",
"798 351 CURVE SMOOTH",
"730 351 OFFCURVE",
"673 292 OFFCURVE",
"673 175 CURVE SMOOTH",
"673 57 OFFCURVE",
"730 -4 OFFCURVE",
"798 -4 CURVE SMOOTH"
);
},
{
closed = 1;
nodes = (
"472 60 OFFCURVE",
"442 92 OFFCURVE",
"442 175 CURVE SMOOTH",
"442 256 OFFCURVE",
"471 287 OFFCURVE",
"497 287 CURVE SMOOTH",
"523 287 OFFCURVE",
"552 256 OFFCURVE",
"552 175 CURVE SMOOTH",
"552 92 OFFCURVE",
"522 60 OFFCURVE",
"497 60 CURVE SMOOTH"
);
},
{
closed = 1;
nodes = (
"773 60 OFFCURVE",
"743 92 OFFCURVE",
"743 175 CURVE SMOOTH",
"743 256 OFFCURVE",
"772 287 OFFCURVE",
"798 287 CURVE SMOOTH",
"824 287 OFFCURVE",
"853 256 OFFCURVE",
"853 175 CURVE SMOOTH",
"853 92 OFFCURVE",
"823 60 OFFCURVE",
"798 60 CURVE SMOOTH"
);
}
);
width = 976;
}
);
note = perthousand;
unicode = 2030;
},
{
glyphname = plus;
layers = (
{
hints = (
{
horizontal = 1;
place = "{239, 64}";
type = Stem;
},
{
place = "{256, 70}";
type = Stem;
}
);
layerId = "1041D826-7B5A-4F1A-81FD-3B5FB25AF0FC";
paths = (
{
closed = 1;
nodes = (
"326 0 LINE",
"326 239 LINE",
"561 239 LINE",
"561 303 LINE",
"326 303 LINE",
"326 541 LINE",
"256 541 LINE",
"256 303 LINE",
"20 303 LINE",
"20 239 LINE",
"256 239 LINE",
"256 0 LINE"
);
}
);
width = 600;
}
);
note = plus;
unicode = 002B;
},
{
glyphname = plusminus;
layers = (
{
hints = (
{
horizontal = 1;
place = "{-32, 64}";
type = Stem;
},
{
horizontal = 1;
place = "{334, 64}";
type = Stem;
},
{
place = "{266, 70}";
type = Stem;
}
);
layerId = "1041D826-7B5A-4F1A-81FD-3B5FB25AF0FC";
paths = (
{
closed = 1;
nodes = (
"336 334 LINE",
"572 334 LINE",
"572 398 LINE",
"336 398 LINE",
"336 569 LINE",
"266 569 LINE",
"266 398 LINE",
"31 398 LINE",
"31 334 LINE",
"266 334 LINE",
"266 163 LINE",
"336 163 LINE"
);
},
{
closed = 1;
nodes = (
"572 -32 LINE",
"572 32 LINE",
"31 32 LINE",
"31 -32 LINE"
);
}
);
width = 600;
}
);
note = plusminus;
unicode = 00B1;
},
{
glyphname = product;
layers = (
{
hints = (
{
horizontal = 1;
place = "{663, 64}";
type = Stem;
},
{
place = "{122, 70}";
type = Stem;
},
{
place = "{614, 70}";
type = Stem;
}
);
layerId = "1041D826-7B5A-4F1A-81FD-3B5FB25AF0FC";
paths = (
{
closed = 1;
nodes = (
"684 0 LINE",
"684 663 LINE",
"766 663 LINE",
"766 727 LINE",
"40 727 LINE",
"40 663 LINE",
"122 663 LINE",
"122 0 LINE",
"192 0 LINE",
"192 663 LINE",
"614 663 LINE",
"614 0 LINE"
);
}
);
width = 791;
}
);
note = product;
unicode = 220F;
},
{
glyphname = radical;
layers = (
{
hints = (
{
horizontal = 1;
place = "{439, 64}";
type = Stem;
},
{
place = "{80, 541}";
type = Stem;
}
);
layerId = "1041D826-7B5A-4F1A-81FD-3B5FB25AF0FC";
paths = (
{
closed = 1;
nodes = (
"80 439 LINE",
"176 439 LINE",
"367 -105 LINE",
"372 -105 LINE",
"621 742 LINE",
"548 742 LINE",
"364 113 LINE",
"227 503 LINE",
"80 503 LINE"
);
}
);
width = 630;
}
);
note = radical;
unicode = 221A;
},
{
glyphname = summation;
layers = (
{
hints = (
{
horizontal = 1;
place = "{-32, 64}";
type = Stem;
},
{
horizontal = 1;
place = "{663, 64}";
type = Stem;
},
{
place = "{49, 604}";
type = Stem;
}
);
layerId = "1041D826-7B5A-4F1A-81FD-3B5FB25AF0FC";
paths = (
{
closed = 1;
nodes = (
"450 359 LINE",
"191 663 LINE",
"653 663 LINE",
"653 727 LINE",
"49 727 LINE",
"371 348 LINE",
"49 -32 LINE",
"653 -32 LINE",
"653 32 LINE",
"191 32 LINE",
"450 336 LINE"
);
}
);
width = 700;
}
);
note = summation;
unicode = 2211;
},
{
glyphname = ampersand;
layers = (
{
hints = (
{
horizontal = 1;
place = "{-22, 64}";
type = Stem;
},
{
horizontal = 1;
place = "{661, 64}";
type = Stem;
},
{
place = "{16.03, 69.63}";
type = Stem;
},
{
place = "{157.79, 69.47}";
type = Stem;
},
{
place = "{410.42, 70.43}";
type = Stem;
},
{
place = "{495, 70}";
type = Stem;
}
);
layerId = "1041D826-7B5A-4F1A-81FD-3B5FB25AF0FC";
paths = (
{
closed = 1;
nodes = (
"584 0 LINE",
"678 0 LINE",
"527 153 LINE",
"555 213 OFFCURVE",
"565 277 OFFCURVE",
"565 327 CURVE",
"495 327 LINE",
"495 290 OFFCURVE",
"490 247 OFFCURVE",
"476 205 CURVE",
"395 288 OFFCURVE",
"316 369 OFFCURVE",
"292 395 CURVE",
"301 398 LINE SMOOTH",
"390 428 OFFCURVE",
"459 466 OFFCURVE",
"477 548 CURVE SMOOTH",
"501 658 OFFCURVE",
"410 725 OFFCURVE",
"331 725 CURVE SMOOTH",
"255 725 OFFCURVE",
"177 677 OFFCURVE",
"161 585 CURVE SMOOTH",
"150 522 OFFCURVE",
"168 465 OFFCURVE",
"190 423 CURVE",
"102 380 OFFCURVE",
"39 322 OFFCURVE",
"22 243 CURVE SMOOTH",
"-10 99 OFFCURVE",
"90 -22 OFFCURVE",
"245 -22 CURVE SMOOTH",
"364 -22 OFFCURVE",
"442 28 OFFCURVE",
"491 93 CURVE"
);
},
{
closed = 1;
nodes = (
"253 450 LINE",
"235 483 OFFCURVE",
"221 525 OFFCURVE",
"230 574 CURVE SMOOTH",
"240 632 OFFCURVE",
"285 661 OFFCURVE",
"331 661 CURVE SMOOTH",
"373 661 OFFCURVE",
"422 622 OFFCURVE",
"408 562 CURVE SMOOTH",
"397 508 OFFCURVE",
"357 485 OFFCURVE",
"278 459 CURVE SMOOTH"
);
},
{
closed = 1;
nodes = (
"233 360 LINE SMOOTH",
"248 342 OFFCURVE",
"353 234 OFFCURVE",
"444 141 CURVE",
"406 84 OFFCURVE",
"344 42 OFFCURVE",
"245 42 CURVE SMOOTH",
"138 42 OFFCURVE",
"67 125 OFFCURVE",
"90 229 CURVE SMOOTH",
"104 289 OFFCURVE",
"150 333 OFFCURVE",
"226 369 CURVE"
);
}
);
width = 692;
}
);
note = ampersand;
unicode = 0026;
},
{
glyphname = asciicircum;
layers = (
{
hints = (
{
horizontal = 1;
place = "{395, 386}";
type = Stem;
},
{
place = "{83, 383}";
type = Stem;
}
);
layerId = "1041D826-7B5A-4F1A-81FD-3B5FB25AF0FC";
paths = (
{
closed = 1;
nodes = (
"145 395 LINE",
"274 636 LINE",
"404 395 LINE",
"466 425 LINE",
"274 781 LINE",
"83 425 LINE"
);
}
);
width = 600;
}
);
note = asciicircum;
unicode = 005E;
},
{
glyphname = at;
layers = (
{
hints = (
{
horizontal = 1;
place = "{-256, 64}";
type = Stem;
},
{
horizontal = 1;
place = "{-21, 64}";
type = Stem;
},
{
horizontal = 1;
place = "{231, 57}";
type = Stem;
},
{
horizontal = 1;
place = "{430, 64}";
type = Stem;
},
{
horizontal = 1;
place = "{681, 64}";
type = Stem;
},
{
place = "{60, 70}";
type = Stem;
},
{
place = "{371, 70}";
type = Stem;
},
{
place = "{694, 71}";
type = Stem;
},
{
place = "{977, 70}";
type = Stem;
},
{
horizontal = 1;
place = "{-27.19, 66.19}";
type = Stem;
}
);
layerId = "1041D826-7B5A-4F1A-81FD-3B5FB25AF0FC";
paths = (
{
closed = 1;
nodes = (
"788 -129 LINE",
"720 -170 OFFCURVE",
"647 -192 OFFCURVE",
"563 -192 CURVE SMOOTH",
"324 -192 OFFCURVE",
"130 2 OFFCURVE",
"130 245 CURVE SMOOTH",
"130 487 OFFCURVE",
"324 681 OFFCURVE",
"563 681 CURVE SMOOTH",
"802 681 OFFCURVE",
"977 499 OFFCURVE",
"977 257 CURVE SMOOTH",
"977 131 OFFCURVE",
"926 47 OFFCURVE",
"862 39 CURVE SMOOTH",
"798 30 OFFCURVE",
"767 54 OFFCURVE",
"765 138 CURVE",
"765 314 LINE SMOOTH",
"765 424 OFFCURVE",
"681 494 OFFCURVE",
"578 494 CURVE SMOOTH",
"489 494 OFFCURVE",
"433 449 OFFCURVE",
"408 421 CURVE",
"457 379 LINE",
"483 402 OFFCURVE",
"525 430 OFFCURVE",
"578 430 CURVE SMOOTH",
"646 430 OFFCURVE",
"695 388 OFFCURVE",
"695 314 CURVE SMOOTH",
"695 306 LINE",
"694 306 LINE",
"694 277 LINE",
"663 284 OFFCURVE",
"627 288 OFFCURVE",
"594 288 CURVE SMOOTH",
"478 288 OFFCURVE",
"371 252 OFFCURVE",
"371 122 CURVE SMOOTH",
"371 56 OFFCURVE",
"421 -21 OFFCURVE",
"532 -21 CURVE SMOOTH",
"596 -21 OFFCURVE",
"661 8 OFFCURVE",
"705 68 CURVE",
"728 -6 OFFCURVE",
"786 -36 OFFCURVE",
"871 -25 CURVE SMOOTH",
"979 -11 OFFCURVE",
"1047 107 OFFCURVE",
"1047 257 CURVE SMOOTH",
"1047 531 OFFCURVE",
"842 745 OFFCURVE",
"563 745 CURVE SMOOTH",
"285 745 OFFCURVE",
"60 520 OFFCURVE",
"60 245 CURVE SMOOTH",
"60 -30 OFFCURVE",
"285 -256 OFFCURVE",
"563 -256 CURVE SMOOTH",
"658 -256 OFFCURVE",
"751 -228 OFFCURVE",
"825 -183 CURVE"
);
},
{
closed = 1;
nodes = (
"694 211 LINE SMOOTH",
"691 104 OFFCURVE",
"635 43 OFFCURVE",
"532 43 CURVE SMOOTH",
"469 43 OFFCURVE",
"441 81 OFFCURVE",
"441 122 CURVE SMOOTH",
"441 205 OFFCURVE",
"504 231 OFFCURVE",
"608 231 CURVE SMOOTH",
"641 231 OFFCURVE",
"671 227 OFFCURVE",
"694 223 CURVE"
);
}
);
width = 1110;
}
);
note = at;
unicode = 0040;
},
{
glyphname = bar;
layers = (
{
hints = (
{
horizontal = 1;
place = "{-164, 933}";
type = Stem;
},
{
place = "{292, 70}";
type = Stem;
}
);
layerId = "1041D826-7B5A-4F1A-81FD-3B5FB25AF0FC";
paths = (
{
closed = 1;
nodes = (
"292 -164 LINE",
"362 -164 LINE",
"362 769 LINE",
"292 769 LINE"
);
}
);
width = 600;
}
);
note = bar;
unicode = 007C;
},
{
glyphname = brokenbar;
layers = (
{
hints = (
{
horizontal = 1;
place = "{-69, 819}";
type = Stem;
},
{
place = "{163, 70}";
type = Stem;
}
);
layerId = "1041D826-7B5A-4F1A-81FD-3B5FB25AF0FC";
paths = (
{
closed = 1;
nodes = (
"163 424 LINE",
"233 424 LINE",
"233 750 LINE",
"163 750 LINE"
);
},
{
closed = 1;
nodes = (
"163 -69 LINE",
"233 -69 LINE",
"233 258 LINE",
"163 258 LINE"
);
}
);
width = 600;
}
);
note = brokenbar;
unicode = 00A6;
},
{
glyphname = copyright;
layers = (
{
hints = (
{
horizontal = 1;
place = "{-19, 64}";
type = Stem;
},
{
horizontal = 1;
place = "{150, 64}";
type = Stem;
},
{
horizontal = 1;
place = "{499, 64}";
type = Stem;
},
{
horizontal = 1;
place = "{655, 64}";
type = Stem;
},
{
place = "{37, 70}";
type = Stem;
},
{
place = "{215, 70}";
type = Stem;
},
{
place = "{709, 70}";
type = Stem;
}
);
layerId = "1041D826-7B5A-4F1A-81FD-3B5FB25AF0FC";
paths = (
{
closed = 1;
nodes = (
"156 53 OFFCURVE",
"276 -19 OFFCURVE",
"408 -19 CURVE SMOOTH",
"611 -19 OFFCURVE",
"779 149 OFFCURVE",
"779 350 CURVE SMOOTH",
"779 413 OFFCURVE",
"763 475 OFFCURVE",
"734 527 CURVE SMOOTH",
"672 639 OFFCURVE",
"547 719 OFFCURVE",
"408 719 CURVE SMOOTH",
"206 719 OFFCURVE",
"37 551 OFFCURVE",
"37 350 CURVE SMOOTH",
"37 280 OFFCURVE",
"57 213 OFFCURVE",
"92 156 CURVE SMOOTH"
);
},
{
closed = 1;
nodes = (
"123 237 OFFCURVE",
"107 289 OFFCURVE",
"107 350 CURVE SMOOTH",
"107 520 OFFCURVE",
"242 655 OFFCURVE",
"408 655 CURVE SMOOTH",
"521 655 OFFCURVE",
"620 593 OFFCURVE",
"673 496 CURVE SMOOTH",
"696 452 OFFCURVE",
"709 405 OFFCURVE",
"709 350 CURVE SMOOTH",
"709 180 OFFCURVE",
"574 45 OFFCURVE",
"408 45 CURVE SMOOTH",
"301 45 OFFCURVE",
"206 101 OFFCURVE",
"152 190 CURVE SMOOTH"
);
},
{
closed = 1;
nodes = (
"515 270 LINE",
"489 235 OFFCURVE",
"453 214 OFFCURVE",
"413 214 CURVE SMOOTH",
"344 214 OFFCURVE",
"285 276 OFFCURVE",
"285 357 CURVE SMOOTH",
"285 433 OFFCURVE",
"338 499 OFFCURVE",
"413 499 CURVE SMOOTH",
"452 499 OFFCURVE",
"483 483 OFFCURVE",
"510 450 CURVE",
"564 490 LINE",
"530 533 OFFCURVE",
"473 563 OFFCURVE",
"413 563 CURVE SMOOTH",
"297 563 OFFCURVE",
"215 459 OFFCURVE",
"215 357 CURVE SMOOTH",
"215 246 OFFCURVE",
"306 150 OFFCURVE",
"413 150 CURVE SMOOTH",
"477 150 OFFCURVE",
"537 185 OFFCURVE",
"572 233 CURVE"
);
}
);
width = 817;
}
);
note = copyright;
unicode = 00A9;
},
{
glyphname = dagger;
layers = (
{
hints = (
{
horizontal = 1;
place = "{468, 64}";
type = Stem;
},
{
place = "{242, 70}";
type = Stem;
}
);
layerId = "1041D826-7B5A-4F1A-81FD-3B5FB25AF0FC";
paths = (
{
closed = 1;
nodes = (
"312 -139 LINE",
"312 468 LINE",
"464 468 LINE",
"464 532 LINE",
"312 532 LINE",
"312 739 LINE",
"242 739 LINE",
"242 532 LINE",
"90 532 LINE",
"90 468 LINE",
"242 468 LINE",
"242 -139 LINE"
);
}
);
width = 600;
}
);
note = dagger;
unicode = 2020;
},
{
glyphname = daggerdbl;
layers = (
{
hints = (
{
horizontal = 1;
place = "{73, 64}";
type = Stem;
},
{
horizontal = 1;
place = "{468, 64}";
type = Stem;
},
{
place = "{242, 70}";
type = Stem;
}
);
layerId = "1041D826-7B5A-4F1A-81FD-3B5FB25AF0FC";
paths = (
{
closed = 1;
nodes = (
"464 137 LINE",
"312 137 LINE",
"312 468 LINE",
"464 468 LINE",
"464 532 LINE",
"312 532 LINE",
"312 739 LINE",
"242 739 LINE",
"242 532 LINE",
"90 532 LINE",
"90 468 LINE",
"242 468 LINE",
"242 137 LINE",
"90 137 LINE",
"90 73 LINE",
"242 73 LINE",
"242 -139 LINE",
"312 -139 LINE",
"312 73 LINE",
"464 73 LINE"
);
}
);
width = 600;
}
);
note = daggerdbl;
unicode = 2021;
},
{
glyphname = degree;
layers = (
{
hints = (
{
horizontal = 1;
place = "{486, 64}";
type = Stem;
},
{
horizontal = 1;
place = "{731, 64}";
type = Stem;
},
{
place = "{146, 70}";
type = Stem;
},
{
place = "{392, 70}";
type = Stem;
}
);
layerId = "1041D826-7B5A-4F1A-81FD-3B5FB25AF0FC";
paths = (
{
closed = 1;
nodes = (
"391 486 OFFCURVE",
"462 556 OFFCURVE",
"462 641 CURVE SMOOTH",
"462 725 OFFCURVE",
"391 795 OFFCURVE",
"304 795 CURVE SMOOTH",
"217 795 OFFCURVE",
"146 725 OFFCURVE",
"146 641 CURVE SMOOTH",
"146 556 OFFCURVE",
"217 486 OFFCURVE",
"304 486 CURVE SMOOTH"
);
},
{
closed = 1;
nodes = (
"256 550 OFFCURVE",
"216 589 OFFCURVE",
"216 641 CURVE SMOOTH",
"216 692 OFFCURVE",
"256 731 OFFCURVE",
"304 731 CURVE SMOOTH",
"352 731 OFFCURVE",
"392 692 OFFCURVE",
"392 641 CURVE SMOOTH",
"392 589 OFFCURVE",
"352 550 OFFCURVE",
"304 550 CURVE SMOOTH"
);
}
);
width = 600;
}
);
note = degree;
unicode = 00B0;
},
{
glyphname = paragraph;
layers = (
{
hints = (
{
horizontal = 1;
place = "{408, 64}";
type = Stem;
},
{
horizontal = 1;
place = "{712, 64}";
type = Stem;
},
{
place = "{45, 70}";
type = Stem;
},
{
place = "{274, 70}";
type = Stem;
},
{
place = "{451, 70}";
type = Stem;
}
);
layerId = "1041D826-7B5A-4F1A-81FD-3B5FB25AF0FC";
paths = (
{
closed = 1;
nodes = (
"451 -164 LINE",
"521 -164 LINE",
"521 776 LINE",
"230 776 LINE SMOOTH",
"179 776 OFFCURVE",
"133 755 OFFCURVE",
"99 722 CURVE SMOOTH",
"66 689 OFFCURVE",
"45 643 OFFCURVE",
"45 592 CURVE SMOOTH",
"45 490 OFFCURVE",
"128 408 OFFCURVE",
"230 408 CURVE SMOOTH",
"274 408 LINE",
"274 -164 LINE",
"344 -164 LINE",
"344 712 LINE",
"451 712 LINE"
);
},
{
closed = 1;
nodes = (
"274 712 LINE",
"274 472 LINE",
"230 472 LINE SMOOTH",
"168 472 OFFCURVE",
"115 524 OFFCURVE",
"115 592 CURVE SMOOTH",
"115 626 OFFCURVE",
"128 657 OFFCURVE",
"148 677 CURVE SMOOTH",
"172 700 OFFCURVE",
"199 712 OFFCURVE",
"230 712 CURVE SMOOTH"
);
}
);
width = 600;
}
);
note = paragraph;
unicode = 00B6;
},
